<svg width="12" height="12" viewBox="0 0 12 12" fill="none" xmlns="http://www.w3.org/2000/svg">
<path d="M7.28927 5.99481L11.7337 1.5504C12.0886 1.19582 12.0886 0.620741 11.7337 0.266196C11.3791 -0.0887312 10.8044 -0.0887312 10.4495 0.266196L6.00504 4.71061L1.56023 0.266164C1.20604 -0.0887633 0.630575 -0.0887633 0.27603 0.266164C-0.0785465 0.62074 -0.0785465 1.19582 0.27603 1.55037L4.72083 5.99481L0.266196 10.4494C-0.088732 10.8044 -0.088732 11.3791 0.266196 11.7336C0.443468 11.9113 0.675979 11.9999 0.908489 11.9999C1.14062 11.9999 1.37313 11.9113 1.55043 11.7336L6.00504 7.27905L10.4495 11.7235C10.6271 11.9008 10.8593 11.9898 11.0918 11.9898C11.3239 11.9898 11.5564 11.9008 11.7337 11.7235C12.0887 11.3689 12.0887 10.7942 11.7337 10.4393L7.28927 5.99481Z" fill="#E6B775"/>
</svg>
