<svg width="20" height="22" viewBox="0 0 20 22" fill="none" xmlns="http://www.w3.org/2000/svg">
<path d="M18.9936 20.5019L17.5132 6.57908C17.4885 6.35492 17.2911 6.18057 17.069 6.18057H14.3302V5.33375C14.3302 2.94271 12.4057 1 10.037 1C7.66833 1 5.74378 2.94271 5.74378 5.33375V6.18057H2.93097C2.70891 6.18057 2.51152 6.35492 2.48684 6.57908L1.00642 20.5019C0.981745 20.6264 1.03109 20.7509 1.10511 20.8506C1.17913 20.9502 1.3025 21 1.42587 21H18.5741C18.6975 21 18.8209 20.9502 18.8949 20.8506C18.9689 20.7509 19.0183 20.6264 18.9936 20.5019ZM6.63203 5.33375C6.63203 3.44085 8.16181 1.89664 10.037 1.89664C11.9122 1.89664 13.442 3.44085 13.442 5.33375V6.18057H6.63203V5.33375ZM1.94402 20.0785L3.32575 7.0523H5.74378V7.87422C5.74378 8.31631 6.58269 8.31631 6.58269 7.87422V7.0523H13.3926V7.87422C13.3926 8.25405 14.2315 8.25405 14.2315 7.87422V7.0523H16.7483L18.13 20.0785H1.94402Z" fill="#E6B775" stroke="#E6B775" stroke-width="0.5"/>
</svg>
