<svg width="17" height="17" viewBox="0 0 17 17" fill="none" xmlns="http://www.w3.org/2000/svg">
<g clip-path="url(#clip0)">
<path d="M13.4425 10.5311C13.094 10.1687 12.6736 9.97496 12.228 9.97496C11.786 9.97496 11.362 10.1651 10.9991 10.5275L9.86359 11.6577C9.77016 11.6075 9.67674 11.5609 9.5869 11.5142C9.45755 11.4496 9.33537 11.3886 9.23117 11.324C8.16754 10.6495 7.20094 9.77044 6.27386 8.63304C5.8247 8.06613 5.52286 7.58893 5.30367 7.10455C5.59832 6.83545 5.87141 6.55558 6.13732 6.28648C6.23793 6.18602 6.33854 6.08196 6.43916 5.9815C7.19375 5.22802 7.19375 4.25208 6.43916 3.49859L5.45818 2.51907C5.34679 2.40784 5.2318 2.29302 5.124 2.17821C4.9084 1.95575 4.68202 1.72612 4.44846 1.51084C4.0999 1.16639 3.68308 0.983398 3.24469 0.983398C2.80631 0.983398 2.3823 1.16639 2.02296 1.51084C2.01937 1.51442 2.01937 1.51442 2.01578 1.51801L0.794048 2.7487C0.334103 3.20797 0.0717908 3.7677 0.0142977 4.41713C-0.071942 5.46482 0.237084 6.44076 0.474243 7.07943C1.05636 8.64739 1.92594 10.1005 3.22313 11.6577C4.79701 13.5343 6.69069 15.0161 8.85387 16.0602C9.68033 16.4513 10.7835 16.9142 12.016 16.9931C12.0914 16.9967 12.1705 17.0003 12.2424 17.0003C13.0724 17.0003 13.7695 16.7025 14.3157 16.1105C14.3193 16.1033 14.3265 16.0997 14.3301 16.0925C14.5169 15.8665 14.7325 15.662 14.9589 15.4431C15.1134 15.296 15.2715 15.1417 15.4261 14.9802C15.7818 14.6107 15.9686 14.1801 15.9686 13.7388C15.9686 13.2939 15.7782 12.8669 15.4153 12.5081L13.4425 10.5311ZM14.7289 14.3093C14.7254 14.3093 14.7254 14.3129 14.7289 14.3093C14.5888 14.46 14.4451 14.5963 14.2906 14.747C14.057 14.9695 13.8198 15.2027 13.5971 15.4646C13.2341 15.8521 12.8065 16.0351 12.246 16.0351C12.1921 16.0351 12.1346 16.0351 12.0807 16.0315C11.0135 15.9633 10.0217 15.5471 9.27788 15.1919C7.24406 14.2088 5.45818 12.8131 3.97414 11.0442C2.74882 9.56951 1.92954 8.20607 1.38695 6.74216C1.05277 5.84874 0.930595 5.15267 0.984494 4.49606C1.02043 4.07626 1.18213 3.72823 1.48037 3.43042L2.7057 2.20691C2.88177 2.04186 3.06862 1.95216 3.25188 1.95216C3.47826 1.95216 3.66152 2.08851 3.7765 2.20332C3.7801 2.20691 3.78369 2.2105 3.78728 2.21409C4.00648 2.4186 4.21489 2.6303 4.43408 2.85634C4.54548 2.97116 4.66046 3.08597 4.77545 3.20438L5.75642 4.1839C6.13732 4.56423 6.13732 4.91586 5.75642 5.29619C5.65222 5.40024 5.55161 5.50429 5.4474 5.60476C5.14556 5.91333 4.85809 6.20037 4.54548 6.48023C4.53829 6.48741 4.5311 6.491 4.52751 6.49817C4.21848 6.80674 4.27598 7.10813 4.34066 7.31265C4.34425 7.32342 4.34784 7.33418 4.35144 7.34494C4.60656 7.96208 4.96589 8.54334 5.51208 9.23582L5.51567 9.23941C6.50743 10.4593 7.55309 11.4102 8.70654 12.1385C8.85387 12.2318 9.00479 12.3072 9.14852 12.3789C9.27788 12.4435 9.40005 12.5045 9.50426 12.5691C9.51863 12.5763 9.53301 12.587 9.54738 12.5942C9.66955 12.6552 9.78454 12.6839 9.90312 12.6839C10.2014 12.6839 10.3882 12.4973 10.4493 12.4363L11.6782 11.2092C11.8004 11.0872 11.9944 10.9401 12.2208 10.9401C12.4436 10.9401 12.6269 11.0801 12.7382 11.2021C12.7418 11.2056 12.7418 11.2056 12.7454 11.2092L14.7254 13.1862C15.0955 13.5522 15.0955 13.9289 14.7289 14.3093Z" fill="#D6AA6D" stroke="#D6AA6D" stroke-width="0.25"/>
<path d="M9.18812 4.0439C10.1296 4.20178 10.9848 4.64669 11.6675 5.32841C12.3503 6.01013 12.7922 6.86408 12.9539 7.80414C12.9935 8.04095 13.1983 8.206 13.4318 8.206C13.4606 8.206 13.4857 8.20241 13.5145 8.19882C13.7804 8.15577 13.9565 7.9046 13.9134 7.63909C13.7193 6.50169 13.1803 5.46476 12.3574 4.6431C11.5346 3.82145 10.4961 3.28325 9.357 3.08949C9.0911 3.04644 8.84316 3.22225 8.79644 3.48417C8.74973 3.7461 8.92221 4.00085 9.18812 4.0439Z" fill="#D6AA6D" stroke="#D6AA6D" stroke-width="0.25"/>
<path d="M16.9928 7.49915C16.673 5.62621 15.789 3.92191 14.4308 2.56564C13.0725 1.20937 11.3657 0.326718 9.48997 0.00738466C9.22766 -0.0392595 8.97972 0.140141 8.933 0.402066C8.88988 0.667579 9.06596 0.915152 9.33186 0.961796C11.0063 1.24525 12.5335 2.0382 13.748 3.24736C14.9626 4.46011 15.7531 5.98501 16.037 7.65703C16.0765 7.89383 16.2813 8.05888 16.5149 8.05888C16.5436 8.05888 16.5688 8.05529 16.5975 8.05171C16.8599 8.01224 17.0395 7.76108 16.9928 7.49915Z" fill="#D6AA6D" stroke="#D6AA6D" stroke-width="0.25"/>
</g>
<defs>
<clipPath id="clip0">
<rect width="17" height="17" fill="white"/>
</clipPath>
</defs>
</svg>
