<svg width="14" height="14" viewBox="0 0 14 14" fill="none" xmlns="http://www.w3.org/2000/svg">
<g clip-path="url(#clip0)">
<path d="M13.8511 5.68925L7.21491 0.830346C7.08694 0.736666 6.91309 0.736666 6.78517 0.830346L0.148903 5.68925C-0.0131912 5.80795 -0.04841 6.03556 0.0702892 6.19765C0.188988 6.35974 0.416625 6.39491 0.578691 6.27626L7.00001 1.57467L13.4213 6.27624C13.4861 6.32368 13.5613 6.34651 13.6359 6.34651C13.7479 6.34651 13.8585 6.29497 13.9297 6.19762C14.0484 6.03556 14.0132 5.80795 13.8511 5.68925Z" fill="black" stroke="black" stroke-width="0.25"/>
<path d="M12.0928 6.3586C11.8919 6.3586 11.729 6.52146 11.729 6.72235V12.5124H8.81903V9.35181C8.81903 8.34884 8.00304 7.5329 7.00012 7.5329C5.99721 7.5329 5.18121 8.34889 5.18121 9.35181V12.5124H2.27121V6.72238C2.27121 6.52148 2.10832 6.35862 1.90746 6.35862C1.70659 6.35862 1.5437 6.52148 1.5437 6.72238V12.8762C1.5437 13.0771 1.70659 13.2399 1.90746 13.2399H5.54497C5.73626 13.2399 5.89281 13.0921 5.9073 12.9045C5.90817 12.896 5.90872 12.8867 5.90872 12.8762V9.35184C5.90872 8.75003 6.39831 8.26044 7.00012 8.26044C7.60193 8.26044 8.09152 8.75005 8.09152 9.35184V12.8762C8.09152 12.8866 8.09207 12.8958 8.09294 12.9042C8.10727 13.0919 8.26387 13.2399 8.45527 13.2399H12.0928C12.2937 13.2399 12.4565 13.0771 12.4565 12.8762V6.72238C12.4565 6.52146 12.2937 6.3586 12.0928 6.3586Z" fill="black" stroke="black" stroke-width="0.25"/>
</g>
<defs>
<clipPath id="clip0">
<rect width="14" height="14" fill="white"/>
</clipPath>
</defs>
</svg>
