<svg width="14" height="14" viewBox="0 0 14 14" fill="none" xmlns="http://www.w3.org/2000/svg">
<path d="M14 8.51297V13.6889H10.9993V8.85962C10.9993 7.64648 10.5653 6.81855 9.4792 6.81855C8.65007 6.81855 8.15666 7.37651 7.93958 7.91625C7.86042 8.1092 7.84005 8.37776 7.84005 8.64786V13.6889H4.83839C4.83839 13.6889 4.87881 5.50971 4.83839 4.66229H7.83976V5.94177C7.83367 5.95134 7.82576 5.96166 7.82003 5.97094H7.83976V5.94177C8.23852 5.3276 8.95066 4.45023 10.5447 4.45023C12.5195 4.4502 14 5.74036 14 8.51297ZM1.69852 0.311035C0.671654 0.311035 0 0.984578 0 1.87031C0 2.73674 0.652223 3.43072 1.65868 3.43072H1.67873C2.72548 3.43072 3.37647 2.73687 3.37647 1.87031C3.35674 0.984578 2.72548 0.311035 1.69852 0.311035ZM0.178272 13.6889H3.1788V4.66229H0.178272V13.6889Z" fill="#222222"/>
</svg>
