<svg width="16" height="16" viewBox="0 0 16 16" fill="none" xmlns="http://www.w3.org/2000/svg">
<path d="M5.88056 3.09868C5.88056 3.50188 5.88056 5.30155 5.88056 5.30155H4.26666V7.99524H5.88056V15.9999H9.19586V7.99546H11.4206C11.4206 7.99546 11.6289 6.70386 11.7299 5.29162C11.4404 5.29162 9.2084 5.29162 9.2084 5.29162C9.2084 5.29162 9.2084 3.72452 9.2084 3.44984C9.2084 3.17456 9.56986 2.80428 9.92713 2.80428C10.2837 2.80428 11.0363 2.80428 11.7334 2.80428C11.7334 2.43753 11.7334 1.17033 11.7334 9.62221e-09C10.8028 9.62221e-09 9.74414 9.62221e-09 9.27748 9.62221e-09C5.79861 -0.000185988 5.88056 2.69618 5.88056 3.09868Z" fill="white"/>
</svg>
