<svg width="16" height="16" viewBox="0 0 16 16" fill="none" xmlns="http://www.w3.org/2000/svg">
<g clip-path="url(#clip0)">
<path d="M16.001 3.03941C15.4121 3.30035 14.7802 3.47732 14.1163 3.55633C14.7942 3.15039 15.3131 2.50652 15.559 1.74166C14.9232 2.11758 14.2213 2.39055 13.4734 2.53852C12.8745 1.89964 12.0227 1.50171 11.0779 1.50171C9.2652 1.50171 7.79547 2.97144 7.79547 4.7831C7.79547 5.04004 7.82447 5.291 7.88047 5.53097C5.15298 5.39398 2.73444 4.08723 1.11575 2.10158C0.832795 2.5855 0.671827 3.14937 0.671827 3.75128C0.671827 4.89008 1.25172 5.89489 2.13157 6.48276C1.59366 6.46478 1.08775 6.3168 0.644847 6.07084V6.11184C0.644847 7.70154 1.77664 9.02829 3.27735 9.33025C3.00239 9.40423 2.71246 9.44523 2.41251 9.44523C2.20056 9.44523 1.99559 9.42423 1.79463 9.38423C2.21254 10.689 3.42433 11.6378 4.86007 11.6638C3.73727 12.5437 2.32153 13.0666 0.783827 13.0666C0.518886 13.0666 0.257918 13.0506 0.000976562 13.0216C1.45371 13.9544 3.17839 14.4983 5.03204 14.4983C11.0699 14.4983 14.3703 9.49723 14.3703 5.16004L14.3593 4.73513C15.0042 4.27518 15.562 3.6973 16.001 3.03941Z" fill="white"/>
</g>
<defs>
<clipPath id="clip0">
<rect width="16" height="16" fill="white"/>
</clipPath>
</defs>
</svg>
