<svg width="23" height="30" viewBox="0 0 23 30" fill="none" xmlns="http://www.w3.org/2000/svg">
<g clip-path="url(#clip0)">
<path d="M18.0462 6.77629H21.4462L15.7385 1.08398V4.4686C15.7385 5.74552 16.7693 6.77629 18.0462 6.77629Z" fill="#D6AA6D"/>
<path d="M12.0154 22.155C11.8077 22.155 11.6693 22.1242 11.5847 22.055C11.5 21.9858 11.4616 21.8627 11.4616 21.6781C11.4616 21.6011 11.477 21.4935 11.5 21.355C11.5231 21.2089 11.5539 21.0858 11.5847 20.9704L11.977 19.5704C12.0154 19.4397 12.0385 19.3012 12.0539 19.1474C12.0693 18.9935 12.077 18.8858 12.077 18.8243C12.077 18.532 11.977 18.2936 11.7693 18.1089C11.5616 17.9243 11.2693 17.832 10.8846 17.832C10.677 17.832 10.4462 17.8705 10.2154 17.9474C9.97696 18.0243 9.7308 18.1166 9.46926 18.2166L9.36157 18.6474C9.4385 18.6166 9.5308 18.5859 9.6385 18.5551C9.74619 18.5243 9.85388 18.5089 9.95388 18.5089C10.1616 18.5089 10.3 18.5397 10.377 18.6166C10.4539 18.6859 10.4846 18.8089 10.4846 18.9935C10.4846 19.0935 10.477 19.2012 10.4462 19.3243C10.4231 19.4397 10.3923 19.5704 10.3539 19.7089L9.95388 21.1089C9.91542 21.255 9.89234 21.3858 9.87696 21.5012C9.86157 21.6165 9.85388 21.7319 9.85388 21.8473C9.85388 22.1319 9.96157 22.3704 10.1693 22.5627C10.3846 22.7473 10.677 22.8473 11.0616 22.8473C11.3077 22.8473 11.5308 22.8165 11.7154 22.7473C11.9077 22.678 12.1539 22.5857 12.477 22.4627L12.5847 22.0319C12.5308 22.055 12.4385 22.0857 12.3231 22.1242C12.2154 22.1396 12.1077 22.155 12.0154 22.155Z" fill="#D6AA6D"/>
<path d="M11.7616 15.2759C11.5 15.2759 11.277 15.3605 11.0924 15.5374C10.9077 15.7066 10.8154 15.922 10.8154 16.1605C10.8154 16.4066 10.9077 16.6143 11.0924 16.7836C11.277 16.9528 11.5 17.0374 11.7616 17.0374C12.0231 17.0374 12.2385 16.9528 12.4231 16.7836C12.6077 16.6143 12.7 16.4066 12.7 16.1605C12.7 15.922 12.6077 15.7066 12.4231 15.5374C12.2462 15.3605 12.0231 15.2759 11.7616 15.2759Z" fill="#D6AA6D"/>
<path d="M18.0462 8.31538C15.9231 8.31538 14.2 6.59231 14.2 4.46923V0H2.30769C1.03846 0 0 1.03846 0 2.30769V27.6923C0 28.9615 1.03846 30 2.30769 30H20.2077C21.4846 30 22.5154 28.9615 22.5154 27.6923V8.31538H18.0462ZM11.2154 25.2154C7.81538 25.2154 5.06154 22.4615 5.06154 19.0615C5.06154 15.6615 7.81538 12.9077 11.2154 12.9077C14.6154 12.9077 17.3692 15.6615 17.3692 19.0615C17.3692 22.4615 14.6154 25.2154 11.2154 25.2154Z" fill="#D6AA6D"/>
</g>
<defs>
<clipPath id="clip0">
<rect width="22.5154" height="30" fill="white"/>
</clipPath>
</defs>
</svg>
