<svg width="30" height="30" viewBox="0 0 30 30" fill="none" xmlns="http://www.w3.org/2000/svg">
<g clip-path="url(#clip0)">
<path d="M11.0136 13.7058C11.7061 13.7058 12.2676 13.1444 12.2676 12.4518C12.2676 11.7592 11.7061 11.1978 11.0136 11.1978C10.321 11.1978 9.75952 11.7592 9.75952 12.4518C9.75952 13.1444 10.321 13.7058 11.0136 13.7058Z" fill="#D6AA6D"/>
<path d="M18.9802 18.7957C19.6728 18.7957 20.2343 18.2342 20.2343 17.5416C20.2343 16.849 19.6728 16.2876 18.9802 16.2876C18.2876 16.2876 17.7262 16.849 17.7262 17.5416C17.7262 18.2342 18.2876 18.7957 18.9802 18.7957Z" fill="#D6AA6D"/>
<path d="M29.3198 16.6562L28.8649 16.0353C28.3732 15.3591 28.3609 14.4432 28.8465 13.7547L29.2891 13.1277C29.9653 12.1687 29.6518 10.8348 28.6129 10.2754L27.9367 9.91269C27.1991 9.51927 26.7933 8.69555 26.9347 7.86567L27.0638 7.10957C27.2605 5.95389 26.3938 4.88428 25.2197 4.8351L24.4513 4.80437C23.6152 4.76748 22.8899 4.20194 22.6563 3.39666L22.4411 2.65899C22.1153 1.52791 20.8736 0.943926 19.7917 1.41111L19.0847 1.71233C18.3163 2.04427 17.4189 1.84756 16.8595 1.22055L16.3492 0.64886C15.5685 -0.224043 14.1977 -0.217895 13.4232 0.673449L12.9191 1.25129C12.3659 1.88445 11.4745 2.09345 10.7 1.7738L9.98689 1.47873C8.89883 1.02999 7.66939 1.63856 7.35589 2.76964L7.15303 3.51346C6.93173 4.32489 6.21865 4.90272 5.38263 4.94575L4.61423 4.98878C3.44012 5.0564 2.5918 6.13831 2.80696 7.29398L2.94834 8.05009C3.10202 8.87381 2.7086 9.70369 1.97708 10.1094L1.30704 10.4844C0.280457 11.0561 -0.0146091 12.3962 0.680025 13.3428L1.13492 13.9637C1.62669 14.6399 1.63899 15.5558 1.15336 16.2443L0.710761 16.8713C0.0345685 17.8303 0.348076 19.1642 1.38695 19.7236L2.06314 20.0863C2.80081 20.4797 3.20652 21.3035 3.06514 22.1333L2.93605 22.8894C2.73934 24.0451 3.60609 25.1147 4.78021 25.1639L5.54861 25.1946C6.38463 25.2315 7.11 25.7971 7.34359 26.6023L7.55874 27.34C7.88454 28.4711 9.12628 29.0551 10.2082 28.5879L10.9151 28.2867C11.6835 27.9547 12.581 28.1514 13.1404 28.7784L13.6506 29.3501C14.4375 30.223 15.8083 30.2169 16.5767 29.3256L17.0808 28.7477C17.634 28.1146 18.5254 27.9055 19.2999 28.2252L20.013 28.5203C21.101 28.969 22.3305 28.3604 22.644 27.2294L22.8468 26.4855C23.0681 25.6741 23.7812 25.0963 24.6172 25.0532L25.3856 25.0102C26.5597 24.9426 27.4081 23.8607 27.1929 22.705L27.0515 21.9489C26.8978 21.1252 27.2913 20.2953 28.0228 19.8896L28.6928 19.5146C29.7194 18.9491 30.0145 17.609 29.3198 16.6562ZM7.9829 12.4515C7.9829 10.7794 9.33528 9.42706 11.0073 9.42706C12.6794 9.42706 14.0317 10.7794 14.0317 12.4515C14.0317 14.1235 12.6794 15.4759 11.0073 15.4759C9.33528 15.4759 7.9829 14.1174 7.9829 12.4515ZM11.5913 20.2523C11.3331 20.5658 10.8659 20.6088 10.5524 20.3506C10.2389 20.0925 10.1959 19.6253 10.4541 19.3118L18.3901 9.75286C18.6483 9.43936 19.1155 9.39633 19.429 9.65451C19.7425 9.91269 19.7855 10.3799 19.5273 10.6934L11.5913 20.2523ZM18.9802 20.5658C17.3082 20.5658 15.9558 19.2134 15.9558 17.5414C15.9558 15.8693 17.3082 14.5169 18.9802 14.5169C20.6523 14.5169 22.0047 15.8693 22.0047 17.5414C22.0047 19.2134 20.6523 20.5658 18.9802 20.5658Z" fill="#D6AA6D"/>
</g>
<defs>
<clipPath id="clip0">
<rect width="30" height="30" fill="white"/>
</clipPath>
</defs>
</svg>
