<svg width="30" height="30" viewBox="0 0 30 30" fill="none" xmlns="http://www.w3.org/2000/svg">
<g clip-path="url(#clip0)">
<path d="M0.878906 30H16.8164C17.3019 30 17.6953 29.6066 17.6953 29.1211V28.1836C17.6953 27.2127 16.9084 26.4258 15.9375 26.4258V25.375C15.9375 23.9836 14.8055 22.8516 13.4141 22.8516H4.28123C2.88986 22.8516 1.75781 23.9836 1.75781 25.375V26.4258C0.786896 26.4258 0 27.2127 0 28.1836V29.1211C0 29.6063 0.393677 30 0.878906 30Z" fill="#D6AA6D"/>
<path d="M11 19.3562C11.5841 20.1314 12.6864 20.2864 13.4616 19.7021C14.2371 19.1179 14.3918 18.0157 13.8077 17.2402L8.51824 10.2211C7.9339 9.44562 6.83184 9.29089 6.05662 9.875C5.28116 10.4593 5.12621 11.5614 5.71055 12.3369L11 19.3562Z" fill="#D6AA6D"/>
<path d="M23.6346 9.83459C24.2189 10.6098 25.321 10.7648 26.0964 10.1804C26.8716 9.59632 27.0266 8.49425 26.4423 7.7188L21.1528 0.699681C20.5687 -0.0757702 19.4664 -0.230723 18.6912 0.353612C17.9159 0.937948 17.761 2.04001 18.3453 2.81547L23.6346 9.83459Z" fill="#D6AA6D"/>
<path d="M19.7791 14.9412C21.0782 13.9622 22.0535 12.7466 22.6635 11.4667L16.5089 3.29932C15.1104 3.533 13.6732 4.13519 12.3739 5.11435C11.0747 6.09328 10.0995 7.30887 9.4895 8.58855L15.6441 16.7564C17.0426 16.5227 18.4798 15.9203 19.7791 14.9412Z" fill="#D6AA6D"/>
<path d="M22.1524 15.1699C21.7432 15.5869 21.3122 15.9868 20.8371 16.345C20.3617 16.703 19.8584 17.0072 19.345 17.2857L20.491 18.8066L23.2987 16.6911L22.1524 15.1699Z" fill="#D6AA6D"/>
<path d="M24.3565 18.0952L21.5488 20.2108L26.8383 27.2301C27.4226 28.0056 28.5247 28.1603 29.2999 27.5762C30.0754 26.9919 30.2301 25.8898 29.646 25.1143L24.3565 18.0952Z" fill="#D6AA6D"/>
</g>
<defs>
<clipPath id="clip0">
<rect width="30" height="30" fill="white"/>
</clipPath>
</defs>
</svg>
