<svg width="30" height="30" viewBox="0 0 30 30" fill="none" xmlns="http://www.w3.org/2000/svg">
<g clip-path="url(#clip0)">
<path d="M27.3695 11.9897H2.63077C1.18011 11.9897 0 13.1701 0 14.6205V14.6363C0 16.087 1.18011 17.2671 2.63077 17.2671H27.3695C28.8199 17.2671 30 16.087 30 14.6363V14.6205C30 13.1701 28.8199 11.9897 27.3695 11.9897Z" fill="#D6AA6D"/>
<path d="M29.1211 21.3977H27.691C27.6395 21.2691 27.5832 21.1441 27.5226 21.0226C26.6789 19.3355 25.0079 18.4062 22.817 18.4062C22.5501 18.4062 22.3061 18.4079 22.0711 18.4113C20.2029 18.4385 19.0931 18.5971 18.2401 18.9592C17.8905 19.1075 17.5774 19.2955 17.3099 19.5172C16.9091 19.8493 16.6008 20.2659 16.3939 20.755C16.2978 20.9816 16.2238 21.1824 16.1716 21.3977H13.83C13.7773 21.184 13.7027 20.9828 13.6063 20.7553C13.399 20.2657 13.0909 19.8493 12.6904 19.5172C12.4226 19.2955 12.1097 19.1078 11.7597 18.959C10.9069 18.5971 9.79706 18.4385 7.92915 18.4113C7.69386 18.4079 7.44987 18.4062 7.183 18.4062C4.99237 18.4062 3.3213 19.3355 2.47742 21.0226C2.41676 21.1439 2.36046 21.2691 2.30896 21.3977H0.878906C0.393448 21.3977 0 21.7912 0 22.2766C0 22.7619 0.393448 23.1555 0.878906 23.1555H1.91277C1.89812 23.3437 1.89079 23.5385 1.89079 23.7342C1.89079 26.6721 4.26476 29.0621 7.18277 29.0621C8.96461 29.0621 10.6833 28.2692 12.0222 26.8296C12.5082 26.3075 12.9151 25.7307 13.2319 25.1155C13.4081 24.7733 13.5535 24.4231 13.664 24.075C13.7617 23.7669 13.8325 23.4584 13.8755 23.1555H16.1247C16.1675 23.4584 16.2383 23.7669 16.3362 24.075C16.4465 24.4233 16.5921 24.7733 16.7681 25.1152C17.0849 25.7305 17.4918 26.3073 17.9778 26.8296C19.3167 28.2695 21.0354 29.0623 22.817 29.0623C25.7352 29.0623 28.1092 26.6721 28.1092 23.7344C28.1092 23.538 28.1019 23.3432 28.0872 23.1555H29.1211C29.6066 23.1555 30 22.7621 30 22.2766C30 21.7912 29.6066 21.3977 29.1211 21.3977Z" fill="#D6AA6D"/>
<path d="M24.287 2.55344C24.1062 1.93385 23.6676 1.42185 23.084 1.14879C22.5017 0.876191 21.8299 0.867036 21.2406 1.12384L17.0381 2.95467C15.7428 3.51886 14.2571 3.51886 12.9621 2.95467L8.75963 1.12384C8.17026 0.867036 7.49849 0.875962 6.91621 1.14879C6.33257 1.42207 5.89403 1.93408 5.71321 2.55367L4.74023 5.88527H25.2599L24.287 2.55344Z" fill="#D6AA6D"/>
<path d="M25.7732 7.64307H4.22668L3.47046 10.2319H26.5294L25.7732 7.64307Z" fill="#D6AA6D"/>
</g>
<defs>
<clipPath id="clip0">
<rect width="30" height="30" fill="white"/>
</clipPath>
</defs>
</svg>
