<svg width="30" height="30" viewBox="0 0 30 30" fill="none" xmlns="http://www.w3.org/2000/svg">
<g clip-path="url(#clip0)">
<path d="M29.3274 23.7088L24.6944 19.0753C23.7716 18.1562 22.2434 18.1841 21.2884 19.1394L18.9543 21.473C18.8068 21.3917 18.6542 21.3069 18.4937 21.2168C17.0197 20.4001 15.0023 19.2807 12.8794 17.1562C10.7502 15.0273 9.6298 13.0068 8.81058 11.5319C8.72413 11.3756 8.64131 11.2249 8.55951 11.0819L10.1261 9.51765L10.8962 8.74653C11.8527 7.78984 11.879 6.26208 10.9584 5.3403L6.32535 0.706236C5.4047 -0.21425 3.87581 -0.186325 2.91938 0.77036L1.61364 2.0836L1.64932 2.11903C1.21149 2.6777 0.845619 3.32204 0.573351 4.01688C0.322372 4.67829 0.166114 5.30944 0.0946642 5.94189C-0.517097 11.0135 1.80049 15.6486 8.09014 21.9383C16.7843 30.6319 23.7907 29.9752 24.093 29.9431C24.7513 29.8644 25.3822 29.7071 26.0233 29.4582C26.7121 29.1891 27.356 28.8237 27.9144 28.3868L27.9429 28.4122L29.2657 27.1169C30.2202 26.1603 30.2476 24.6321 29.3274 23.7088Z" fill="#D6AA6D"/>
</g>
<defs>
<clipPath id="clip0">
<rect width="30" height="30" fill="white"/>
</clipPath>
</defs>
</svg>
