<svg width="24" height="30" viewBox="0 0 24 30" fill="none" xmlns="http://www.w3.org/2000/svg">
<g clip-path="url(#clip0)">
<path d="M21.903 0H11.8841H8.90603L8.91663 4.88931V5.935C8.91663 7.38695 7.38342 8.92016 5.93146 8.92016H4.88578L0 8.91309V28.1312C0 29.1627 0.837259 30 1.86882 30H3.91781H11.8841H21.903C22.9345 30 23.7718 29.1627 23.7718 28.1312V3.82949V1.86882C23.7718 0.837259 22.9345 0 21.903 0ZM11.7569 11.6156C12.5412 11.6156 13.1736 12.248 13.1736 13.0323C13.1736 13.8165 12.5412 14.4489 11.7569 14.4489C10.9727 14.4489 10.3403 13.8165 10.3403 13.0323C10.3403 12.248 10.9727 11.6156 11.7569 11.6156ZM13.9684 23.6269H9.80334V21.9383H10.7289V17.0243H10.6441C10.1813 17.0243 9.79981 16.6498 9.79981 16.1799C9.79981 15.7171 10.1743 15.3356 10.6441 15.3356H10.7289H13.0075H13.0429H13.0464V21.9383H13.9684V23.6269Z" fill="#D6AA6D"/>
<path d="M0.812414 7.50735H5.93135C5.93488 7.50735 5.94195 7.50735 5.94548 7.50735C6.8004 7.50029 7.49282 6.80787 7.49988 5.95295C7.49988 5.94942 7.49988 5.94235 7.49988 5.93882V0.816363C7.49988 0.342977 7.11128 0.0285645 6.70855 0.0285645C6.51425 0.0285645 6.31995 0.099219 6.15744 0.261725L0.254241 6.16492C-0.240342 6.6595 0.109399 7.50735 0.812414 7.50735Z" fill="#D6AA6D"/>
</g>
<defs>
<clipPath id="clip0">
<rect width="23.7718" height="30" fill="white"/>
</clipPath>
</defs>
</svg>
