<svg width="30" height="30" viewBox="0 0 30 30" fill="none" xmlns="http://www.w3.org/2000/svg">
<path d="M20.0582 3.21428L19.2299 0.732881C19.0843 0.2955 18.6752 0.000376673 18.2142 0H11.7857C11.3247 0.000376673 10.9156 0.2955 10.77 0.732881L9.94178 3.21428H9.64282V7.50001H20.3571V3.21428H20.0582ZM16.0714 5.35711C16.0714 5.94887 15.5917 6.42856 14.9999 6.42856C14.4082 6.42856 13.9285 5.94887 13.9285 5.35711V4.28573C13.9285 3.69397 14.4082 3.21428 14.9999 3.21428C15.5917 3.21428 16.0714 3.69397 16.0714 4.28573V5.35711Z" fill="#D6AA6D"/>
<path d="M25.7142 3.21387H22.4999V8.57099C22.4999 9.16274 22.0202 9.64243 21.4284 9.64243H8.57129C7.97954 9.64243 7.49984 9.16274 7.49984 8.57099V3.21387H4.28556C3.69381 3.21387 3.21411 3.69356 3.21411 4.28532V28.9281C3.21411 29.5199 3.69381 29.9996 4.28556 29.9996H25.7142C26.3059 29.9996 26.7856 29.5199 26.7856 28.9281V4.28532C26.7856 3.69356 26.3059 3.21387 25.7142 3.21387ZM21.4284 23.571H8.57129C7.97954 23.571 7.49984 23.0913 7.49984 22.4996C7.49984 21.9078 7.97954 21.4281 8.57129 21.4281H21.4284C22.0202 21.4281 22.4999 21.9078 22.4999 22.4996C22.4999 23.0913 22.0202 23.571 21.4284 23.571ZM21.4284 19.2853H8.57129C7.97954 19.2853 7.49984 18.8056 7.49984 18.2138C7.49984 17.6221 7.97954 17.1424 8.57129 17.1424H21.4284C22.0202 17.1424 22.4999 17.6221 22.4999 18.2138C22.4999 18.8056 22.0202 19.2853 21.4284 19.2853ZM21.4284 14.9996H8.57129C7.97954 14.9996 7.49984 14.5199 7.49984 13.9281C7.49984 13.3363 7.97954 12.8567 8.57129 12.8567H21.4284C22.0202 12.8567 22.4999 13.3363 22.4999 13.9281C22.4999 14.5199 22.0202 14.9996 21.4284 14.9996Z" fill="#D6AA6D"/>
</svg>
