<svg width="30" height="30" viewBox="0 0 30 30" fill="none" xmlns="http://www.w3.org/2000/svg">
<g clip-path="url(#clip0)">
<path d="M23.7679 1.56152H16.1749C13.1054 1.56152 10.5474 3.79206 10.0359 6.71728C9.51585 6.87779 8.95008 7.11564 8.38419 7.46813C7.52906 8.00086 7.12938 8.7581 7.08826 9.92335C7.0882 9.92686 7.08814 9.93031 7.08814 9.93394L7.09108 9.934L7.0892 11.889L7.08858 11.8891C7.07479 11.8932 7.06125 11.8982 7.04809 11.9041C6.8454 11.9953 6.73923 11.9541 6.71403 12.3801C6.68533 12.8652 6.76963 14.1469 7.29296 14.4666C7.37137 14.5471 7.42307 14.7667 7.45403 15.0112C7.51195 15.4685 7.57763 15.9868 7.8356 16.3261C8.42299 17.0987 8.26874 18.2943 8.25558 18.3873C8.25358 18.3886 8.25069 18.3903 8.24693 18.3921C7.88499 18.5546 7.78991 18.8712 7.72047 19.1026L7.6848 19.2175C7.5911 19.5193 7.50261 19.8048 7.38052 20.0757C7.3641 20.0993 7.29334 20.1553 7.20164 20.1899L6.93421 20.2925C5.24349 20.9406 3.49524 21.6107 1.87165 22.5083C0.336932 23.3566 0.0142188 27.9511 0.00124509 28.0969C-0.00658927 28.1845 0.0228052 28.2713 0.0821583 28.3362C0.141574 28.4011 0.225433 28.4381 0.313366 28.4381H11.5117H22.7099C22.7978 28.4381 22.8818 28.4011 22.9411 28.3362C23.0005 28.2713 23.0299 28.1845 23.022 28.0969C23.0091 27.9511 22.6863 23.3566 21.1516 22.5083C19.528 21.6108 17.7797 20.9406 16.0891 20.2925L15.8216 20.1899C15.7299 20.1552 15.6591 20.0993 15.6427 20.0757C15.5206 19.8048 15.4321 19.5193 15.3383 19.2175L15.3028 19.1026C15.2334 18.8712 15.1383 18.5546 14.7764 18.3921C14.7726 18.3903 14.7698 18.3886 14.7677 18.3873C14.7547 18.2945 14.6004 17.0987 15.1877 16.3261C15.4456 15.9868 15.5114 15.4683 15.5693 15.0112C15.6003 14.7669 15.6518 14.5471 15.7303 14.4666C15.8733 14.3793 15.9834 14.2198 16.0675 14.0247C16.1032 14.0253 16.1389 14.026 16.1747 14.026H18.2631V16.4222C18.2631 16.9327 18.5679 17.3889 19.0399 17.5843C19.1932 17.6478 19.355 17.6799 19.5208 17.6799C19.8568 17.6799 20.1727 17.5489 20.4084 17.3132L23.7186 14.0259H23.7677C27.2042 14.0259 30 11.2301 30 7.7936C30.0001 4.35726 27.2043 1.56152 23.7679 1.56152ZM23.7679 12.5292H23.1017L19.7601 15.8477V12.5292H16.3142C16.3137 12.474 16.312 12.4237 16.3095 12.3801C16.2842 11.9541 16.1781 11.9953 15.9754 11.9041C15.9623 11.8982 15.9488 11.8932 15.9349 11.8891L15.9343 11.889L15.9349 9.93419C15.9337 8.93948 15.6923 8.27036 15.1966 7.88874C14.9773 7.71983 14.7254 7.5617 14.4818 7.40877C14.1447 7.19718 13.7962 6.97832 13.6698 6.80716C13.3942 6.43336 12.4792 6.393 12.0986 6.393C11.982 6.393 11.8285 6.39714 11.646 6.41074C12.2391 4.47227 14.0447 3.05832 16.1749 3.05832H23.7678C26.379 3.05832 28.5033 5.18275 28.5033 7.79378C28.5033 10.4049 26.379 12.5292 23.7679 12.5292Z" fill="#D6AA6D"/>
<path d="M16.9725 8.78282C17.4877 8.78282 17.9054 8.36514 17.9054 7.84991C17.9054 7.33467 17.4877 6.91699 16.9725 6.91699C16.4572 6.91699 16.0396 7.33467 16.0396 7.84991C16.0396 8.36514 16.4572 8.78282 16.9725 8.78282Z" fill="#D6AA6D"/>
<path d="M19.9712 8.78282C20.4865 8.78282 20.9042 8.36514 20.9042 7.84991C20.9042 7.33467 20.4865 6.91699 19.9712 6.91699C19.456 6.91699 19.0383 7.33467 19.0383 7.84991C19.0383 8.36514 19.456 8.78282 19.9712 8.78282Z" fill="#D6AA6D"/>
<path d="M22.97 8.78282C23.4853 8.78282 23.9029 8.36514 23.9029 7.84991C23.9029 7.33467 23.4853 6.91699 22.97 6.91699C22.4548 6.91699 22.0371 7.33467 22.0371 7.84991C22.0371 8.36514 22.4548 8.78282 22.97 8.78282Z" fill="#D6AA6D"/>
</g>
<defs>
<clipPath id="clip0">
<rect width="30" height="30" fill="white"/>
</clipPath>
</defs>
</svg>
