<svg width="30" height="30" viewBox="0 0 30 30" fill="none" xmlns="http://www.w3.org/2000/svg">
<path d="M25.6234 3.396H24.7463V24.9468C24.7463 26.3785 23.5808 27.5438 22.1492 27.5438H13.2613H6.1936V28.3427C6.1936 29.2575 6.93609 30 7.85087 30H16.7356H25.6203C26.5351 30 27.2776 29.2575 27.2776 28.3427V5.05326C27.2776 4.13848 26.5382 3.396 25.6234 3.396Z" fill="#D6AA6D"/>
<path d="M13.2613 26.604H22.146C23.0608 26.604 23.8033 25.8615 23.8033 24.9468V3.39599V1.65727C23.8033 0.742481 23.0608 0 22.146 0H13.2613H10.307V0.548246C10.3132 0.604637 10.3164 0.66416 10.3164 0.723684V4.33584V5.26316C10.3164 6.55075 9.27004 7.59712 7.98244 7.59712H7.05512H3.44296C3.39597 7.59712 3.34585 7.59399 3.29885 7.59085H2.72241V24.9468C2.72241 25.8615 3.46489 26.604 4.37968 26.604H6.19673H13.2613ZM13.5965 20.9712H7.80387C7.37154 20.9712 7.02066 20.6203 7.02066 20.188C7.02066 19.7556 7.37154 19.4048 7.80387 19.4048H13.5996C14.0319 19.4048 14.3828 19.7556 14.3828 20.188C14.3828 20.6203 14.0288 20.9712 13.5965 20.9712ZM19.3922 16.9737H7.80387C7.37154 16.9737 7.02066 16.6228 7.02066 16.1905C7.02066 15.7581 7.37154 15.4073 7.80387 15.4073H19.3922C19.8246 15.4073 20.1754 15.7581 20.1754 16.1905C20.1754 16.6228 19.8246 16.9737 19.3922 16.9737ZM7.80387 11.1623H19.3922C19.8246 11.1623 20.1754 11.5132 20.1754 11.9455C20.1754 12.3778 19.8246 12.7287 19.3922 12.7287H7.80387C7.37154 12.7287 7.02066 12.3778 7.02066 11.9455C7.02066 11.5132 7.37154 11.1623 7.80387 11.1623Z" fill="#D6AA6D"/>
<path d="M3.44299 6.65711H7.98246C7.98559 6.65711 7.99186 6.65711 7.99499 6.65711C8.75313 6.65084 9.36717 6.03681 9.37343 5.27866C9.37343 5.27553 9.37343 5.26926 9.37343 5.26613V0.723524C9.37343 0.303724 9.02882 0.0249023 8.67171 0.0249023C8.4994 0.0249023 8.3271 0.087559 8.18299 0.231669L2.948 5.46663C2.50941 5.90523 2.81956 6.65711 3.44299 6.65711Z" fill="#D6AA6D"/>
</svg>
