<svg width="30" height="30" viewBox="0 0 30 30" fill="none" xmlns="http://www.w3.org/2000/svg">
<g clip-path="url(#clip0)">
<path d="M16.4719 17.7855V17.1186C16.4719 16.3065 15.8127 15.6479 15.0013 15.6479C14.1886 15.6479 13.53 16.3065 13.53 17.1186V17.7855C13.53 18.597 14.1886 19.2561 15.0013 19.2561C15.8127 19.2561 16.4719 18.5976 16.4719 17.7855Z" fill="#D6AA6D"/>
<path d="M17.4803 18.599C17.1549 19.666 16.1726 20.45 15.0012 20.45C13.8291 20.45 12.8469 19.6666 12.5209 18.599H2.38891C1.74943 18.599 1.14518 18.4503 0.603027 18.1924V24.9198C0.603027 26.2333 1.67778 27.3081 2.99137 27.3081H27.0098C28.3234 27.3081 29.3981 26.2333 29.3981 24.9198V18.193C28.856 18.4509 28.2517 18.5996 27.6128 18.5996L17.4803 18.599Z" fill="#D6AA6D"/>
<path d="M27.5122 6.51851H21.7789C21.4332 4.35348 19.5566 2.69238 17.296 2.69238H12.702C10.4409 2.69238 8.56602 4.35348 8.21911 6.51851H2.48708C1.11856 6.51851 -0.000976562 7.59327 -0.000976562 8.90686V14.4198C-0.000976562 15.7381 1.0684 16.8081 2.38737 16.8081H12.4065C12.4405 16.122 12.7355 15.5029 13.2018 15.0568C13.2161 15.0437 13.2328 15.0324 13.2478 15.0192C13.3511 14.9243 13.4585 14.8347 13.5762 14.7571C13.618 14.729 13.6657 14.7099 13.7093 14.6849C13.806 14.6293 13.9016 14.5714 14.0061 14.5284C14.0879 14.4944 14.1762 14.4747 14.2622 14.449C14.3363 14.4269 14.4067 14.3977 14.4837 14.3821C14.6509 14.3481 14.8235 14.3302 14.9996 14.3302C15.1764 14.3302 15.3483 14.3487 15.5149 14.3821C15.5913 14.3977 15.6624 14.4269 15.737 14.449C15.823 14.4747 15.9102 14.4944 15.9932 14.529C16.0971 14.572 16.192 14.6293 16.2887 14.6849C16.3323 14.7105 16.3801 14.7296 16.4231 14.7577C16.5407 14.8347 16.6476 14.9243 16.7509 15.0192C16.7658 15.033 16.7843 15.0437 16.7974 15.058C17.2644 15.5047 17.5587 16.122 17.5928 16.8093H27.6119C28.9308 16.8093 30.0002 15.7399 30.0002 14.4209V8.90805C30.0002 7.59327 28.8807 6.51851 27.5122 6.51851ZM10.5197 6.51851C10.8242 5.5984 11.6822 4.92787 12.7032 4.92787H17.2972C18.3176 4.92787 19.1756 5.5984 19.4802 6.51851H10.5197Z" fill="#D6AA6D"/>
</g>
<defs>
<clipPath id="clip0">
<rect width="30" height="30" fill="white"/>
</clipPath>
</defs>
</svg>
