<svg width="30" height="30" viewBox="0 0 30 30" fill="none" xmlns="http://www.w3.org/2000/svg">
<path d="M28.745 13.5H27V9.866C27 9.113 26.387 8.5 25.634 8.5H24V7.293L16.207 0H4V5H1.366C0.613 5 0 5.613 0 6.366V28.981L0.029 28.982C0.068 29.1655 0.146 29.3415 0.2645 29.4965C0.509 29.817 0.88 30 1.2825 30H23.662C24.24 30 24.749 29.6105 24.887 29.0935L30 15.0745V14.986C30 14.125 29.472 13.5 28.745 13.5ZM15.5 1.144C15.5 1.091 15.5645 1.064 15.602 1.102L22.898 7.8985C22.9355 7.936 22.909 8 22.856 8H15.5V1.144ZM8 2.5H13C13.276 2.5 13.5 2.7235 13.5 3C13.5 3.2765 13.276 3.5 13 3.5H8C7.724 3.5 7.5 3.2765 7.5 3C7.5 2.7235 7.724 2.5 8 2.5ZM8 6H13C13.276 6 13.5 6.2235 13.5 6.5C13.5 6.7765 13.276 7 13 7H8C7.724 7 7.5 6.7765 7.5 6.5C7.5 6.2235 7.724 6 8 6ZM8 9.5H20C20.276 9.5 20.5 9.7235 20.5 10C20.5 10.2765 20.276 10.5 20 10.5H8C7.724 10.5 7.5 10.2765 7.5 10C7.5 9.7235 7.724 9.5 8 9.5ZM5.1405 14.4065L1 25.763V6.366C1 6.164 1.164 6 1.366 6H4V15.5L4.833 13.418C4.934 13.1655 5.178 13 5.45 13H23H24V9.5H25.634C25.836 9.5 26 9.664 26 9.866V13.5H23.5H6.3655C5.7875 13.5 5.2785 13.8895 5.1405 14.4065Z" fill="#D6AA6D"/>
</svg>
