<svg width="30" height="30" viewBox="0 0 30 30" fill="none" xmlns="http://www.w3.org/2000/svg">
<g clip-path="url(#clip0)">
<path d="M14.9998 9.28467C11.8479 9.28467 9.28369 11.8488 9.28369 15.0005C9.28369 18.1525 11.8479 20.7166 14.9998 20.7166C18.1515 20.7166 20.7157 18.1525 20.7157 15.0005C20.7157 11.8488 18.1515 9.28467 14.9998 9.28467ZM18.3934 13.9241L14.2985 18.019C14.1266 18.1909 13.9012 18.277 13.6759 18.277C13.4507 18.277 13.2255 18.1911 13.0536 18.019L11.4887 16.4542C11.145 16.1106 11.145 15.5533 11.4887 15.2095C11.8323 14.8657 12.3896 14.8657 12.7334 15.2095L13.6759 16.152L17.1488 12.6794C17.4923 12.3357 18.0496 12.3357 18.3934 12.6794C18.7372 13.023 18.7372 13.5803 18.3934 13.9241Z" fill="#D6AA6D"/>
<path d="M27.7434 8.13878L27.7425 8.11544C27.7294 7.82728 27.7207 7.52241 27.7155 7.1832C27.691 5.52908 26.376 4.16083 24.7217 4.06836C21.2724 3.87587 18.6041 2.75115 16.3243 0.528941L16.3048 0.510401C15.5612 -0.171436 14.4394 -0.171436 13.6956 0.510401L13.6761 0.528941C11.3962 2.75115 8.72792 3.87587 5.27868 4.06859C3.62456 4.16083 2.30941 5.52908 2.28492 7.18343C2.27988 7.52035 2.27095 7.82522 2.25791 8.11544L2.25654 8.16968C2.18947 11.6869 2.10616 16.0643 3.57054 20.0374C4.37575 22.2223 5.59523 24.1216 7.19488 25.6828C9.01677 27.4607 11.4031 28.8722 14.2874 29.8779C14.3813 29.9106 14.4788 29.9372 14.5781 29.9571C14.7182 29.985 14.8592 29.999 15.0002 29.999C15.1412 29.999 15.2824 29.985 15.4222 29.9571C15.5216 29.9372 15.6198 29.9104 15.7141 29.8775C18.595 28.8699 20.9788 27.4577 22.7991 25.68C24.398 24.1184 25.6175 22.2186 26.4234 20.0333C27.8933 16.0482 27.8102 11.6626 27.7434 8.13878ZM14.9997 22.4759C10.8771 22.4759 7.52332 19.1221 7.52332 14.9995C7.52332 10.8769 10.8771 7.52309 14.9997 7.52309C19.1221 7.52309 22.4761 10.8769 22.4761 14.9995C22.4761 19.1221 19.1221 22.4759 14.9997 22.4759Z" fill="#D6AA6D"/>
</g>
<defs>
<clipPath id="clip0">
<rect width="30" height="30" fill="white"/>
</clipPath>
</defs>
</svg>
