<svg width="22" height="30" viewBox="0 0 22 30" fill="none" xmlns="http://www.w3.org/2000/svg">
<g clip-path="url(#clip0)">
<path d="M13.9833 5.25341H7.50174C5.84316 5.25341 4.43442 4.14307 3.98335 2.62329H1.12422C0.499653 2.63023 0 3.12988 0 3.74751V28.8828C0 29.5005 0.499653 30.0071 1.12422 30.0071H20.3678C20.9854 30.0071 21.492 29.5074 21.492 28.8828V3.74751C21.492 3.12988 20.9924 2.62329 20.3678 2.62329H17.5087C17.0507 4.14307 15.6419 5.25341 13.9833 5.25341ZM4.18459 24.5525C3.60167 24.5525 3.16447 24.0737 3.13671 23.5046C3.10895 22.9425 3.63636 22.4567 4.18459 22.4567C4.76752 22.4567 5.20472 22.9356 5.23248 23.5046C5.2533 24.0737 4.73282 24.5525 4.18459 24.5525ZM4.18459 20.1875C3.60167 20.1875 3.16447 19.7086 3.13671 19.1396C3.10895 18.5775 3.63636 18.0917 4.18459 18.0917C4.76752 18.0917 5.20472 18.5705 5.23248 19.1396C5.2533 19.7017 4.73282 20.1875 4.18459 20.1875ZM4.18459 15.8155C3.60167 15.8155 3.16447 15.3367 3.13671 14.7676C3.10895 14.2055 3.63636 13.7198 4.18459 13.7198C4.76752 13.7198 5.20472 14.1986 5.23248 14.7676C5.2533 15.3297 4.73282 15.8155 4.18459 15.8155ZM4.18459 11.4436C3.60167 11.4436 3.16447 10.9647 3.13671 10.3957C3.10895 9.83356 3.63636 9.34779 4.18459 9.34779C4.76752 9.34779 5.20472 9.82662 5.23248 10.3957C5.2533 10.9647 4.73282 11.4436 4.18459 11.4436ZM17.3005 24.5525H7.86954C7.29355 24.5525 6.82165 24.0876 6.82165 23.5046C6.82165 22.9217 7.28661 22.4567 7.86954 22.4567H17.3005C17.8765 22.4567 18.3484 22.9217 18.3484 23.5046C18.3484 24.0876 17.8765 24.5525 17.3005 24.5525ZM17.3005 20.1875H7.86954C7.29355 20.1875 6.82165 19.7225 6.82165 19.1396C6.82165 18.5567 7.28661 18.0917 7.86954 18.0917H17.3005C17.8765 18.0917 18.3484 18.5567 18.3484 19.1396C18.3484 19.7225 17.8765 20.1875 17.3005 20.1875ZM17.3005 15.8155H7.86954C7.29355 15.8155 6.82165 15.3506 6.82165 14.7676C6.82165 14.1847 7.28661 13.7198 7.86954 13.7198H17.3005C17.8765 13.7198 18.3484 14.1847 18.3484 14.7676C18.3484 15.3506 17.8765 15.8155 17.3005 15.8155ZM17.3005 11.4436H7.86954C7.29355 11.4436 6.82165 10.9786 6.82165 10.3957C6.82165 9.81274 7.28661 9.34779 7.86954 9.34779H17.3005C17.8765 9.34779 18.3484 9.81274 18.3484 10.3957C18.3484 10.9786 17.8765 11.4436 17.3005 11.4436Z" fill="#D6AA6D"/>
<path d="M5.91943 1.58223C5.91943 2.45663 6.62727 3.16447 7.50167 3.16447H13.9833C14.8577 3.16447 15.5655 2.45663 15.5655 1.58223C15.5655 0.707842 14.8577 0 13.9833 0H7.50167C6.62727 0 5.91943 0.707842 5.91943 1.58223Z" fill="#D6AA6D"/>
</g>
<defs>
<clipPath id="clip0">
<rect width="21.4851" height="30" fill="white"/>
</clipPath>
</defs>
</svg>
