<svg width="30" height="30" viewBox="0 0 30 30" fill="none" xmlns="http://www.w3.org/2000/svg">
<path d="M15 0C6.729 0 0 6.729 0 15C0 23.271 6.729 30 15 30C23.271 30 30 23.271 30 15C30 6.729 23.271 0 15 0ZM4.2295 11.5825C4.1745 11.812 3.969 11.966 3.7435 11.966C3.705 11.966 3.6655 11.9615 3.6265 11.9525C3.358 11.8875 3.1925 11.6175 3.257 11.3495C3.73 9.382 4.7345 7.5885 6.1615 6.1615C7.5885 4.7345 9.382 3.7305 11.3495 3.257C11.6175 3.1935 11.888 3.358 11.9525 3.6265C12.017 3.8945 11.8515 4.1645 11.583 4.2295C9.7955 4.659 8.165 5.572 6.8685 6.868C5.572 8.164 4.659 9.795 4.2295 11.5825ZM6.1565 12.613C6.119 12.613 6.081 12.609 6.0425 12.6C5.7735 12.5375 5.606 12.2685 5.669 12C6.029 10.455 6.81 9.048 7.929 7.9295C9.047 6.811 10.4545 6.0295 11.9995 5.6695C12.267 5.604 12.537 5.774 12.5995 6.043C12.6625 6.3115 12.495 6.5805 12.226 6.643C10.8635 6.9605 9.6225 7.65 8.636 8.636C7.6495 9.622 6.96 10.8635 6.643 12.226C6.5895 12.457 6.384 12.613 6.1565 12.613ZM9.0575 12.866C9.006 13.1 8.7995 13.259 8.5695 13.259C8.534 13.259 8.498 13.255 8.462 13.2475C8.1925 13.1885 8.0215 12.922 8.0805 12.6525C8.579 10.374 10.3735 8.5795 12.652 8.081C12.9205 8.023 13.1875 8.192 13.247 8.4625C13.306 8.732 13.135 8.9985 12.8655 9.0575C10.9685 9.473 9.473 10.9685 9.0575 12.866ZM10.96 15C10.96 12.7725 12.7725 10.96 15 10.96C17.2275 10.96 19.04 12.7725 19.04 15C19.04 17.2275 17.2275 19.04 15 19.04C12.7725 19.04 10.96 17.2275 10.96 15ZM17.24 21.9305C17.01 21.9305 16.8035 21.7715 16.752 21.5375C16.693 21.268 16.864 21.0015 17.1335 20.9425C19.0315 20.527 20.5265 19.032 20.942 17.134C21.001 16.8635 21.267 16.6935 21.537 16.7525C21.8065 16.8115 21.9775 17.078 21.9185 17.3475C21.42 19.626 19.6255 21.4205 17.347 21.919C17.3115 21.927 17.276 21.9305 17.24 21.9305ZM17.8865 24.344C17.6595 24.344 17.454 24.188 17.4 23.9575C17.337 23.689 17.5045 23.42 17.7735 23.3575C19.136 23.04 20.377 22.3505 21.3635 21.3645C22.35 20.3785 23.0395 19.137 23.3565 17.7745C23.419 17.5055 23.6875 17.3345 23.9565 17.401C24.2255 17.4635 24.393 17.7325 24.33 18.001C23.97 19.546 23.189 20.953 22.07 22.0715C20.952 23.19 19.5445 23.9715 17.9995 24.3315C17.9625 24.34 17.9245 24.344 17.8865 24.344ZM23.839 23.839C22.412 25.266 20.6185 26.27 18.6505 26.7435C18.6115 26.753 18.572 26.757 18.5335 26.757C18.308 26.757 18.103 26.603 18.0475 26.3735C17.983 26.1055 18.1485 25.8355 18.417 25.7705C20.205 25.341 21.8355 24.428 23.132 23.132C24.4285 21.836 25.341 20.205 25.7705 18.4175C25.835 18.1485 26.1045 17.9835 26.3735 18.048C26.642 18.113 26.8075 18.383 26.743 18.651C26.27 20.618 25.2655 22.412 23.839 23.839Z" fill="#D6AA6D"/>
</svg>
