<svg width="30" height="30" viewBox="0 0 30 30" fill="none" xmlns="http://www.w3.org/2000/svg">
<g clip-path="url(#clip0)">
<path d="M24.6736 10.8367C24.6736 14.1365 24.6669 17.4431 24.6803 20.743C24.6803 21.0776 24.5864 21.1714 24.2442 21.1714C21.5944 21.158 18.9446 21.158 16.2948 21.1647C15.9862 21.1647 15.8923 21.0776 15.8923 20.7697C15.899 20.2677 15.852 19.7724 15.8319 19.2704C15.8185 18.929 15.8453 18.5877 15.8051 18.253C15.7648 17.8715 15.4026 17.5569 15.0135 17.5569C13.2357 17.5502 11.458 17.5435 9.68028 17.5636C9.21069 17.5703 8.82831 17.9987 8.82831 18.4806C8.82831 19.2369 8.8216 20 8.83502 20.7564C8.84173 21.0509 8.77464 21.1714 8.44593 21.1647C7.5403 21.1446 6.63466 21.1446 5.72903 21.1647C5.40702 21.1714 5.3131 21.0843 5.3131 20.7564C5.32652 16.6198 5.31981 12.4766 5.31981 8.34003C5.31981 5.91031 5.33994 3.4739 5.3064 1.04418C5.3064 0.4083 5.76257 0 6.37303 0C12.1288 0.0200803 17.8847 0.0133869 23.6472 0C24.2241 0 24.6937 0.394913 24.687 1.03079C24.6602 4.29719 24.6736 7.56359 24.6736 10.8367ZM15 8.84873C16.7174 8.84873 18.4415 8.82865 20.1588 8.86211C20.8028 8.8755 21.1785 8.38019 21.1718 7.86479C21.1517 6.77376 21.1651 5.68273 21.1651 4.58501C21.1651 3.94244 20.8364 3.60776 20.1924 3.60776C16.7308 3.60776 13.2693 3.60776 9.80103 3.60776C9.15031 3.60776 8.83502 3.93574 8.83502 4.58501C8.83502 5.64257 8.85514 6.70683 8.82831 7.76439C8.80819 8.41365 9.19727 8.8755 9.90836 8.86211C11.6056 8.82195 13.3028 8.84873 15 8.84873ZM15 15.8099C16.7576 15.8099 18.5085 15.7965 20.2661 15.8166C20.7693 15.8233 21.1785 15.3481 21.1651 14.9531C21.1517 14.498 20.7357 14.0696 20.2661 14.0696C16.7576 14.0696 13.2424 14.0696 9.73395 14.0696C9.62661 14.0696 9.50586 14.0763 9.41194 14.1232C9.00273 14.3173 8.75452 14.739 8.84844 15.1071C8.94235 15.4752 9.28448 15.8166 9.80103 15.8099C11.5385 15.7965 13.2693 15.8099 15 15.8099ZM14.9732 12.3427C16.7509 12.3427 18.5287 12.3226 20.3064 12.3561C20.9034 12.3695 21.3999 11.6064 21.0577 11.0843C20.8364 10.743 20.5345 10.6024 20.1521 10.6024C18.5756 10.6024 16.9991 10.6024 15.4227 10.6024C13.5644 10.6024 11.7129 10.6024 9.8547 10.6024C9.30461 10.6024 8.86856 10.9705 8.84173 11.4391C8.80819 11.9612 9.18386 12.3427 9.74736 12.3427C11.4848 12.3494 13.229 12.3427 14.9732 12.3427ZM20.6418 19.2838C20.9907 19.1968 21.212 18.7483 21.1584 18.3869C21.098 18.012 20.776 17.6841 20.407 17.6774C19.7228 17.664 19.0452 17.664 18.361 17.6774C18.0524 17.6841 17.7169 18.012 17.6767 18.3133C17.6096 18.8019 17.7773 19.1968 18.1463 19.2905C18.153 19.2905 20.6351 19.2905 20.6418 19.2838Z" fill="#D6AA6D"/>
<path d="M17.6633 28.2531C18.2536 28.2531 18.797 28.2531 19.3471 28.2531C19.9173 28.2531 20.2527 28.5811 20.2527 29.1098C20.2527 29.6587 19.9106 29.9934 19.3337 29.9934C16.4356 29.9934 13.5443 29.9934 10.6463 29.9934C10.0962 29.9934 9.75407 29.652 9.74736 29.1232C9.74736 28.5811 10.0761 28.2531 10.6396 28.2531C11.1628 28.2464 11.6928 28.2464 12.2161 28.2464C12.2362 28.2464 12.2563 28.233 12.3301 28.2129C12.3301 27.6908 12.3368 27.1487 12.3301 26.6065C12.3234 26.3722 12.1356 26.4057 11.9813 26.4057C10.5524 26.4057 9.11677 26.4057 7.68788 26.4057C5.85649 26.4057 4.01838 26.3923 2.18699 26.4124C1.18744 26.4191 0.462928 25.9706 0.174466 25.0469C-0.0133692 24.4512 0.0402981 23.7752 0.0201728 23.1393C0.0134644 22.9184 0.228133 22.905 0.422677 22.905C2.64987 22.9117 4.87035 22.905 7.09754 22.905C14.5573 22.905 22.0103 22.9117 29.4701 22.905C29.9397 22.905 30.0068 22.9519 30.0068 23.4606C30.0068 24.0563 30.0336 24.6587 29.772 25.221C29.45 25.9171 28.9133 26.3722 28.1351 26.3923C26.7263 26.4325 25.3176 26.4124 23.9088 26.4124C21.9768 26.4124 20.0381 26.4124 18.106 26.4124C17.67 26.4124 17.67 26.4124 17.67 26.8609C17.6633 27.3093 17.6633 27.7645 17.6633 28.2531Z" fill="#D6AA6D"/>
<path d="M3.57558 14.0963C3.57558 16.3051 3.57558 18.514 3.57558 20.7161C3.57558 21.1311 3.54875 21.1579 3.13953 21.1579C2.26744 21.1579 1.39535 21.1445 0.523256 21.1579C0.0469589 21.1713 0 21.0842 0 20.6358C0 17.182 0 13.7215 0.00670841 10.2676C0.00670841 9.72548 0.0201252 9.17662 0.120751 8.64784C0.241503 7.97849 0.684258 7.50995 1.30814 7.24891C1.97898 6.96109 2.69678 7.14181 3.38775 7.12173C3.44812 7.12173 3.56887 7.34931 3.56887 7.47648C3.58229 8.61437 3.58229 9.75225 3.58229 10.8901C3.58229 11.9544 3.58229 13.0253 3.57558 14.0963Z" fill="#D6AA6D"/>
<path d="M26.4243 14.1031C26.4243 11.921 26.4243 9.73225 26.4243 7.55019C26.4243 7.10173 26.4243 7.10173 26.8738 7.10173C27.2226 7.10173 27.5647 7.11512 27.9136 7.09504C28.893 7.0348 29.8523 7.93172 29.9127 8.83533C29.9395 9.21016 29.9932 9.585 29.9999 9.95983C30.0066 13.5274 30.0066 17.095 30.0066 20.6626C30.0066 21.1379 29.9798 21.1646 29.5236 21.1646C28.6515 21.1646 27.7794 21.1646 26.9073 21.1646C26.4512 21.1646 26.431 21.1446 26.431 20.6961C26.4243 18.494 26.4243 16.2985 26.4243 14.1031Z" fill="#D6AA6D"/>
<path d="M12.3636 21.1579C11.8806 21.1579 11.4043 21.1512 10.9213 21.1579C10.6798 21.1646 10.5724 21.0776 10.5792 20.8299C10.5926 20.4283 10.5859 20.0267 10.5792 19.6251C10.5792 19.4042 10.6731 19.2971 10.8944 19.2971C11.8806 19.3038 12.9271 19.2971 13.9065 19.3105C13.987 19.3105 14.1279 19.4511 14.1413 19.5381C14.1883 19.9531 14.1413 20.3815 14.148 20.7965C14.1547 21.0173 14.0742 21.1713 13.7925 21.1579C13.3229 21.1512 12.8399 21.1646 12.3636 21.1579Z" fill="#D6AA6D"/>
<path d="M14.9664 7.10187C13.6449 7.10187 12.33 7.09518 11.0085 7.10856C10.6932 7.11526 10.5523 7.02824 10.5791 6.69357C10.606 6.3589 10.5993 6.02423 10.5791 5.68955C10.5657 5.41512 10.6731 5.34149 10.928 5.34819C12.3837 5.35488 13.8327 5.35488 15.2884 5.35488C16.5429 5.35488 17.7907 5.36158 19.0452 5.34819C19.3403 5.34819 19.4477 5.4352 19.4275 5.72971C19.4007 6.051 19.4007 6.37898 19.4275 6.70026C19.4544 7.03494 19.3135 7.11526 18.9982 7.11526C17.6498 7.09518 16.3081 7.10187 14.9664 7.10187Z" fill="#D6AA6D"/>
</g>
<defs>
<clipPath id="clip0">
<rect width="30" height="30" fill="white"/>
</clipPath>
</defs>
</svg>
