<svg width="30" height="30" viewBox="0 0 30 30" fill="none" xmlns="http://www.w3.org/2000/svg">
<path d="M10.1493 23.5795L6.42036 19.8506L0 26.2714L3.72849 29.9999L10.1493 23.5795Z" fill="#D6AA6D"/>
<path d="M18.5742 17.5781C21.9662 17.5781 24.7266 14.8178 24.7266 11.4258C24.7266 8.03375 21.9662 5.27344 18.5742 5.27344C15.1822 5.27344 12.4219 8.03375 12.4219 11.4258C12.4219 14.8178 15.1822 17.5781 18.5742 17.5781Z" fill="#D6AA6D"/>
<path d="M7.66319 18.6079L11.3924 22.337L12.5789 21.1505C14.3797 22.2654 16.4378 22.8516 18.5742 22.8516C24.8742 22.8516 30 17.7258 30 11.4258C30 5.12581 24.8742 0 18.5742 0C12.2742 0 7.14844 5.12581 7.14844 11.4258C7.14844 13.5622 7.7346 15.6203 8.84949 17.4211L7.66319 18.6079ZM18.5742 3.51562C22.936 3.51562 26.4844 7.06398 26.4844 11.4258C26.4844 15.7876 22.936 19.3359 18.5742 19.3359C14.2124 19.3359 10.6641 15.7876 10.6641 11.4258C10.6641 7.06398 14.2124 3.51562 18.5742 3.51562Z" fill="#D6AA6D"/>
</svg>
