<svg width="30" height="30" viewBox="0 0 30 30" fill="none" xmlns="http://www.w3.org/2000/svg">
<path d="M7.01057 6.08292L18.9701 2.81847L18.3368 1.53829C17.9224 0.70617 16.9118 0.362543 16.0796 0.776916L5.37329 6.08292H7.01057Z" fill="#D6AA6D"/>
<path d="M22.6828 2.9126C22.5346 2.9126 22.3864 2.93281 22.2381 2.97324L19.4285 3.74134L10.8479 6.08272H20.5874H24.8322L24.3066 4.15572C24.1045 3.40446 23.424 2.9126 22.6828 2.9126Z" fill="#D6AA6D"/>
<path d="M26.5873 7.26221H26.2033H25.6811H25.1589H21.1735H6.52892H4.60865H2.99158H2.69175H1.68782C1.15553 7.26221 0.680517 7.50814 0.370578 7.89556C0.229085 8.07411 0.12128 8.27961 0.0606401 8.50533C0.0235823 8.64682 0 8.79505 0 8.94665V9.14879V11.0691V27.7148C0 28.6446 0.754632 29.3992 1.68445 29.3992H26.5839C27.5138 29.3992 28.2684 28.6446 28.2684 27.7148V23.0152H18.2729C16.6929 23.0152 15.4093 21.7316 15.4093 20.1516V18.6086V18.0865V17.5643V16.4054C15.4093 15.6305 15.7192 14.9265 16.2212 14.411C16.6659 13.9528 17.2622 13.6429 17.9293 13.5654C18.0404 13.552 18.155 13.5452 18.2695 13.5452H26.8669H27.3891H27.9113H28.2684V8.94665C28.2718 8.01684 27.5171 7.26221 26.5873 7.26221Z" fill="#D6AA6D"/>
<path d="M29.4508 15.1552C29.2824 15.0002 29.0836 14.8823 28.8613 14.8048C28.6894 14.7476 28.5076 14.7139 28.3155 14.7139H28.2717H28.238H27.7159H25.8326H18.2728C17.343 14.7139 16.5884 15.4685 16.5884 16.3983V17.2371V17.7593V18.2815V20.1479C16.5884 21.0777 17.343 21.8323 18.2728 21.8323H28.2717H28.3155C28.5076 21.8323 28.6895 21.7986 28.8613 21.7413C29.0836 21.6672 29.2824 21.546 29.4508 21.391C29.7877 21.0844 30 20.6397 30 20.1479V16.3983C30 15.9064 29.7877 15.4617 29.4508 15.1552ZM21.79 18.6083C21.79 19.0732 21.4126 19.4505 20.9477 19.4505H20.3885C19.9236 19.4505 19.5463 19.0732 19.5463 18.6083V18.049C19.5463 17.7795 19.6709 17.5403 19.8697 17.3887C20.0146 17.2775 20.1931 17.2068 20.3885 17.2068H20.53H20.9477C21.4126 17.2068 21.79 17.5841 21.79 18.049V18.6083Z" fill="#D6AA6D"/>
</svg>
