<svg width="60" height="60" viewBox="0 0 60 60" fill="none" xmlns="http://www.w3.org/2000/svg">
<path d="M35.8668 20.0141C39.8012 21.0296 42.778 24.2734 43.4506 28.2782C43.5276 28.7362 43.9245 29.0605 44.374 29.0605C44.4256 29.0605 44.4778 29.0563 44.5305 29.0475C45.0411 28.9617 45.3855 28.4783 45.2997 27.9676C44.5046 23.2336 40.9858 19.3991 36.3353 18.1987C35.8334 18.0691 35.3226 18.3709 35.1932 18.8722C35.0641 19.3733 35.3656 19.8847 35.8668 20.0141Z" fill="#D6AA6D"/>
<path d="M19.058 49.5266C19.7661 48.8183 20.1562 47.8766 20.1562 46.875C20.1562 46.1939 19.9755 45.5407 19.6375 44.9696L22.7002 41.907C25.5165 44.4127 29.2239 45.9375 33.2812 45.9375C42.0693 45.9375 49.2188 38.7879 49.2188 30C49.2188 21.2121 42.0693 14.0625 33.2812 14.0625C24.4932 14.0625 17.3438 21.2121 17.3438 30C17.3438 34.0574 18.8686 37.7646 21.3742 40.5811L18.3115 43.6438C17.7404 43.3057 17.0873 43.125 16.4062 43.125C15.4045 43.125 14.4629 43.515 13.7546 44.2233L4.37965 53.5983C3.67137 54.3066 3.28125 55.2483 3.28125 56.25C3.28125 57.2516 3.67137 58.1933 4.37965 58.9017C5.11066 59.6327 6.07102 59.9981 7.03125 59.9981C7.99148 59.9981 8.95184 59.6326 9.68285 58.9017L19.058 49.5266C19.0579 49.5267 19.0579 49.5267 19.058 49.5266ZM33.2812 15.9375C41.0353 15.9375 47.3438 22.2459 47.3438 30C47.3438 37.7541 41.0353 44.0625 33.2812 44.0625C25.5272 44.0625 19.2188 37.7541 19.2188 30C19.2188 22.2459 25.5272 15.9375 33.2812 15.9375ZM17.732 48.2009L8.35699 57.5757C7.62586 58.307 6.43629 58.3066 5.70539 57.5759C5.35125 57.2217 5.15625 56.7507 5.15625 56.25C5.15625 55.7491 5.35125 55.2783 5.70539 54.9243L15.0804 45.5491C15.4345 45.1951 15.9054 45 16.4061 45C16.9069 45 17.3779 45.195 17.732 45.5493C18.0863 45.9033 18.2812 46.3741 18.2812 46.875C18.2812 47.3757 18.0863 47.8467 17.732 48.2009Z" fill="#D6AA6D"/>
<path d="M41.7188 30C41.7188 29.4823 41.299 29.0625 40.7812 29.0625H22.0312C21.5135 29.0625 21.0938 29.4823 21.0938 30C21.0938 30.5177 21.5135 30.9375 22.0312 30.9375H40.7812C41.299 30.9375 41.7188 30.5177 41.7188 30Z" fill="#D6AA6D"/>
<path d="M42.6562 33.75H24.8438C24.326 33.75 23.9062 34.1698 23.9062 34.6875C23.9062 35.2052 24.326 35.625 24.8438 35.625H42.6562C43.174 35.625 43.5938 35.2052 43.5938 34.6875C43.5938 34.1698 43.174 33.75 42.6562 33.75Z" fill="#D6AA6D"/>
<path d="M24.8438 26.25H38.9062C39.424 26.25 39.8438 25.8302 39.8438 25.3125C39.8438 24.7948 39.424 24.375 38.9062 24.375H24.8438C24.326 24.375 23.9062 24.7948 23.9062 25.3125C23.9062 25.8302 24.326 26.25 24.8438 26.25Z" fill="#D6AA6D"/>
<path d="M56.7141 13.0323C56.7128 13.0189 56.7102 13.0061 56.7083 12.9929C56.7059 12.9758 56.7039 12.9587 56.7005 12.9416C56.6974 12.9262 56.6932 12.9114 56.6895 12.8962C56.6858 12.8817 56.6827 12.8671 56.6783 12.8527C56.6739 12.8379 56.6682 12.8235 56.6631 12.8089C56.6579 12.7945 56.6532 12.7801 56.6474 12.7659C56.6418 12.7525 56.6352 12.7395 56.629 12.7263C56.6222 12.7118 56.6156 12.6971 56.608 12.6829C56.6012 12.6702 56.5935 12.6582 56.5862 12.6459C56.5779 12.632 56.5699 12.6178 56.5608 12.6042C56.5519 12.591 56.5419 12.5784 56.5324 12.5657C56.5236 12.5539 56.5155 12.5419 56.5062 12.5305C56.4884 12.5088 56.4694 12.4881 56.4497 12.468C56.4477 12.4661 56.4462 12.4638 56.4442 12.462L44.2567 0.274453C44.2564 0.274219 44.2561 0.273984 44.2559 0.27375C44.2266 0.24457 44.1948 0.218086 44.1619 0.192891C44.1543 0.187148 44.1468 0.181289 44.139 0.175781C44.1057 0.151875 44.0713 0.129727 44.0351 0.110391C44.0324 0.108984 44.0296 0.107813 44.0269 0.106406C43.9927 0.0885938 43.9569 0.073125 43.9203 0.0595313C43.9128 0.0568359 43.9055 0.0539063 43.898 0.0513281C43.8588 0.0378516 43.8187 0.0263672 43.7774 0.0181641C43.7762 0.0179297 43.7749 0.0178125 43.7736 0.0175781C43.7357 0.0101953 43.6968 0.00574219 43.6574 0.00304688C43.6467 0.00234375 43.6361 0.00175781 43.6254 0.00140625C43.6148 0.00128906 43.6044 0 43.5938 0H12.6562C11.1054 0 9.84375 1.26176 9.84375 2.8125V43.1249C9.84375 43.6426 10.2635 44.0624 10.7812 44.0624C11.299 44.0624 11.7188 43.6426 11.7188 43.1249V2.8125C11.7188 2.29559 12.1393 1.875 12.6562 1.875H42.6562V11.25C42.6562 12.8007 43.918 14.0625 45.4688 14.0625H51.0936C51.6114 14.0625 52.0311 13.6427 52.0311 13.125C52.0311 12.6073 51.6114 12.1875 51.0936 12.1875H45.4688C44.9518 12.1875 44.5312 11.7669 44.5312 11.25V3.20074L54.8438 13.5132V57.1875C54.8438 57.7044 54.4232 58.125 53.9062 58.125H13.5941C13.0764 58.125 12.6566 58.5448 12.6566 59.0625C12.6566 59.5802 13.0764 60 13.5941 60H53.9062C55.4571 60 56.7188 58.7382 56.7188 57.1875V13.1252C56.7188 13.0943 56.7171 13.0632 56.7141 13.0323Z" fill="#A2A2A2"/>
</svg>
