<svg width="60" height="60" viewBox="0 0 60 60" fill="none" xmlns="http://www.w3.org/2000/svg">
<path d="M13.5452 38.7091C14.6049 38.7091 15.472 39.5762 15.472 40.6359H17.3988C17.3988 38.844 16.1656 37.3411 14.4893 36.8979V34.817H12.5625V36.7438H9.67236V40.6166C9.67236 42.7554 11.4065 44.4895 13.5452 44.4895C14.6049 44.4895 15.472 45.3565 15.472 46.4162V48.343H13.5452C12.4855 48.343 11.6184 47.476 11.6184 46.4162H9.69163C9.69163 48.2081 10.9248 49.711 12.6011 50.1542V52.2351H14.5279V50.3083H17.4373V46.4355C17.4373 44.2968 15.7032 42.5627 13.5645 42.5627C12.5047 42.5627 11.6377 41.6956 11.6377 40.6359V38.7091H13.5452Z" fill="#D6AA6D"/>
<path d="M3.8728 56.1271H23.2177V30.9634H3.8728V56.1271ZM5.79959 32.8902H21.2909V54.1811H5.79959V32.8902Z" fill="#D6AA6D"/>
<path d="M3.8728 17.4182H5.79959V19.345H3.8728V17.4182Z" fill="#D6AA6D"/>
<path d="M7.74561 17.4182H37.7456V19.345H7.74561V17.4182Z" fill="#D6AA6D"/>
<path d="M3.8728 21.2909H37.7456V23.2177H3.8728V21.2909Z" fill="#D6AA6D"/>
<path d="M3.8728 25.1637H25.1637V27.0905H3.8728V25.1637Z" fill="#D6AA6D"/>
<path d="M25.1638 7.74573H27.0906V9.67251H25.1638V7.74573Z" fill="#D6AA6D"/>
<path d="M21.291 7.74573H23.2178V9.67251H21.291V7.74573Z" fill="#D6AA6D"/>
<path d="M17.4182 7.74573H19.345V9.67251H17.4182V7.74573Z" fill="#D6AA6D"/>
<path d="M39.6724 54.1812H41.5991V56.1079H39.6724V54.1812Z" fill="#D6AA6D"/>
<path d="M35.7996 54.1812H37.7263V56.1079H35.7996V54.1812Z" fill="#D6AA6D"/>
<path d="M31.9268 54.1812H33.8535V56.1079H31.9268V54.1812Z" fill="#D6AA6D"/>
<path d="M36.4741 13.5453H15.4915V5.79958H40.2506V3.8728H13.5454V15.4913H36.4934L36.4741 13.5453Z" fill="#D6AA6D"/>
<path d="M43.5453 58.0539H1.92678V11.6185H11.5992V1.92678H43.5453V3.42967L45.4721 3.46821V0H10.2505L0 10.2505V60H45.4721V53.9306L43.5453 53.9114V58.0539ZM9.67245 3.2948V9.67245H3.2948L9.67245 3.2948Z" fill="#D6AA6D"/>
<path d="M51.8304 26.9364L54.894 14.5087C55.6455 11.8497 54.7592 8.99808 52.5626 7.0713C50.6358 5.37573 48.0154 4.66282 45.4913 4.9133C45.4913 4.9133 44.2389 5.10598 43.5646 5.29866C42.8902 5.49134 42.5626 5.62621 41.6378 6.14644C40.5395 6.76302 39.711 7.72641 39.711 7.72641C38.2466 9.36417 37.553 11.4644 37.842 13.5453L38.2852 15.4721L41.0983 26.9172C36.185 28.4393 32.9287 31.9075 32.9287 35.7996V42.5819C32.9287 47.2062 37.4952 51.079 43.5646 52.0231C43.5646 52.0231 44.7399 52.1773 45.4913 52.2158C46.2428 52.2544 46.1272 52.2544 46.4547 52.2544C53.9306 52.2544 60 47.9191 60 42.5819V35.7996C60 31.9268 56.7437 28.4393 51.8304 26.9364ZM39.8844 14.0077V13.9692C39.3256 12.0039 39.9807 9.96148 41.6185 8.51639C44.2775 6.18498 48.632 6.18498 51.291 8.51639C52.948 9.96148 53.6031 12.0039 53.0251 14.0077L49.9422 26.5125C49.5568 28.0925 49.3449 29.7303 49.3449 31.368V34.5472C49.0751 34.9133 48.2274 35.7996 46.4355 35.7996C44.6435 35.7996 43.7958 34.9133 43.526 34.5472V31.368C43.526 29.7303 43.3333 28.0925 42.9287 26.5125L39.8844 14.0077ZM58.054 42.5819C58.054 46.8594 52.8516 50.3276 46.4355 50.3276C40.0193 50.3276 34.817 46.8594 34.817 42.5819V40.7707C37.1869 43.5838 41.5029 45.4914 46.4355 45.4914C51.368 45.4914 55.684 43.6031 58.054 40.7707V42.5819ZM46.4547 43.5453C40.0578 43.5453 34.8362 40.0771 34.8362 35.7996C34.8362 32.8324 37.4374 30.1349 41.4258 28.8439C41.5414 29.6725 41.5992 30.5203 41.5992 31.368V35.0675L41.6956 35.2794C41.7534 35.3757 42.9672 37.7457 46.4355 37.7457C49.9037 37.7457 51.1175 35.3757 51.1753 35.2794L51.2717 35.0675V31.3873C51.2717 30.5395 51.3295 29.6917 51.4451 28.8632C55.4335 30.1542 58.0347 32.8517 58.0347 35.8189C58.054 40.0771 52.8516 43.5453 46.4547 43.5453Z" fill="#A2A2A2"/>
</svg>
