<svg width="60" height="60" viewBox="0 0 60 60" fill="none" xmlns="http://www.w3.org/2000/svg">
<path d="M46.0632 49.0646C46.2809 48.8891 46.4204 48.6206 46.4204 48.3191C46.4204 48.3107 46.4204 4.78723 46.4204 4.78723C46.4204 4.25834 45.9918 3.82979 45.4629 3.82979H17.7627C17.0796 1.61451 15.0135 0 12.5771 0C10.1799 0 8.0823 1.59753 7.3923 3.82979H4.32439C3.7955 3.82979 3.36694 4.25834 3.36694 4.78723V59.0426C3.36694 59.5714 3.7955 60 4.32439 60H34.7312C35.0408 60 35.3092 59.8606 35.4847 59.6433L46.0632 49.0646ZM35.697 56.7227V49.2766H43.143L35.697 56.7227ZM12.5771 1.91489C13.9383 1.91489 15.1203 2.69426 15.7024 3.82979H9.45145C10.0392 2.68749 11.2355 1.91489 12.5771 1.91489ZM5.28184 5.74468H16.0877V12.4468C16.0877 13.3268 15.3719 14.0426 14.492 14.0426C13.612 14.0426 12.8962 13.3268 12.8962 12.4468V8.61702C12.8962 8.08813 12.4677 7.65957 11.9388 7.65957C11.4099 7.65957 10.9813 8.08813 10.9813 8.61702V12.4468C10.9813 14.3825 12.5563 15.9574 14.492 15.9574C16.4277 15.9574 18.0026 14.3825 18.0026 12.4468V5.74468H44.5055V47.3617H34.7395C34.2106 47.3617 33.7821 47.7903 33.7821 48.3191V58.0851H5.28184V5.74468Z" fill="#D6AA6D"/>
<path d="M50.5695 3.82977H49.2929C48.764 3.82977 48.3354 4.25833 48.3354 4.78722C48.3354 5.31611 48.764 5.74467 49.2929 5.74467H49.612V58.0851H39.3901C38.8612 58.0851 38.4326 58.5136 38.4326 59.0425C38.4326 59.5714 38.8612 60 39.3901 60H50.5695C51.0984 60 51.5269 59.5714 51.5269 59.0425V4.78722C51.5269 4.25833 51.0984 3.82977 50.5695 3.82977Z" fill="#D6AA6D"/>
<path d="M55.6757 3.82977H54.3991C53.8702 3.82977 53.4417 4.25833 53.4417 4.78722C53.4417 5.31611 53.8702 5.74467 54.3991 5.74467H54.7182V58.0851H54.3991C53.8702 58.0851 53.4417 58.5136 53.4417 59.0425C53.4417 59.5714 53.8702 60 54.3991 60H55.6757C56.2046 60 56.6331 59.5714 56.6331 59.0425V4.78722C56.6331 4.25833 56.2046 3.82977 55.6757 3.82977Z" fill="#D6AA6D"/>
<path d="M37.8032 44.1064C38.3321 44.1064 38.7607 43.6779 38.7607 43.149C38.7607 42.6201 38.3321 42.1915 37.8032 42.1915H11.9838C11.4549 42.1915 11.0264 42.6201 11.0264 43.149C11.0264 43.6779 11.4549 44.1064 11.9838 44.1064H37.8032Z" fill="#A2A2A2"/>
<path d="M11.9838 38.3617H37.8032C38.3321 38.3617 38.7607 37.9331 38.7607 37.4042C38.7607 36.8753 38.3321 36.4468 37.8032 36.4468H11.9838C11.4549 36.4468 11.0264 36.8753 11.0264 37.4042C11.0264 37.9331 11.4549 38.3617 11.9838 38.3617Z" fill="#A2A2A2"/>
<path d="M11.9838 32.617H37.8032C38.3321 32.617 38.7607 32.1885 38.7607 31.6596C38.7607 31.1307 38.3321 30.7021 37.8032 30.7021H11.9838C11.4549 30.7021 11.0264 31.1307 11.0264 31.6596C11.0264 32.1885 11.4549 32.617 11.9838 32.617Z" fill="#A2A2A2"/>
<path d="M11.9838 26.8723H37.8032C38.3321 26.8723 38.7607 26.4437 38.7607 25.9148C38.7607 25.386 38.3321 24.9574 37.8032 24.9574H11.9838C11.4549 24.9574 11.0264 25.386 11.0264 25.9148C11.0264 26.4437 11.4549 26.8723 11.9838 26.8723Z" fill="#A2A2A2"/>
<path d="M11.9838 21.1277H37.8032C38.3321 21.1277 38.7607 20.6991 38.7607 20.1702C38.7607 19.6413 38.3321 19.2128 37.8032 19.2128H11.9838C11.4549 19.2128 11.0264 19.6413 11.0264 20.1702C11.0264 20.6991 11.4549 21.1277 11.9838 21.1277Z" fill="#A2A2A2"/>
</svg>
