<svg width="60" height="56" viewBox="0 0 60 56" fill="none" xmlns="http://www.w3.org/2000/svg">
<g clip-path="url(#clip0)">
<path d="M10.0065 22.9897H23.0091C23.5574 22.9897 24.0078 22.5393 24.0078 21.991C24.0078 21.4427 23.5574 20.9923 23.0091 20.9923H10.0065C9.4582 20.9923 9.00781 21.4427 9.00781 21.991C9.00781 22.5393 9.43862 22.9897 10.0065 22.9897Z" fill="#D6AA6D"/>
<path d="M35.9921 27.0039H10.0065C9.4582 27.0039 9.00781 27.4543 9.00781 28.0026C9.00781 28.5509 9.4582 29.0013 10.0065 29.0013H36.0117C36.56 29.0013 37.0104 28.5509 37.0104 28.0026C37.0104 27.4543 36.5405 27.0039 35.9921 27.0039Z" fill="#D6AA6D"/>
<path d="M35.9921 32.9961H10.0065C9.4582 32.9961 9.00781 33.4465 9.00781 33.9948C9.00781 34.5431 9.4582 34.9935 10.0065 34.9935H36.0117C36.56 34.9935 37.0104 34.5431 37.0104 33.9948C36.9908 33.4465 36.5405 32.9961 35.9921 32.9961Z" fill="#D6AA6D"/>
<path d="M45.9987 16.9191C45.9987 13.6489 43.3355 10.9857 40.0653 10.9857L5.93342 11.064C2.66319 11.064 0 13.7272 0 16.9975V38.1267C0 41.4165 2.66319 44.0601 5.93342 44.0601H12.0039V54.0667C12.0039 54.4779 12.2585 54.8499 12.6501 55.0066C12.7676 55.0458 12.8851 55.0654 13.0026 55.0654C13.2768 55.0654 13.5509 54.9479 13.7467 54.7325L23.4595 44.0601L40.0849 44.0014C43.3551 44.0014 46.0183 41.3382 46.0183 38.068V37.9505L46.0379 37.97L45.9987 16.9191ZM44.0013 38.068C44.0013 40.2416 42.2389 42.004 40.0653 42.004L22.9896 42.0823C22.7154 42.0823 22.4413 42.1998 22.2454 42.4152L13.9817 51.5014V43.081C13.9817 42.5327 13.5313 42.0823 12.983 42.0823H5.93342C3.75979 42.0823 1.99739 40.3199 1.99739 38.1463V16.9975C1.99739 14.8238 3.75979 13.0614 5.93342 13.0614L15 13.0419L40.0653 12.9831C42.2389 12.9831 44.0013 14.7455 44.0013 16.9191V38.068Z" fill="#D6AA6D"/>
<path d="M54.0665 0.078329L19.9346 0C16.6644 0 14.0012 2.66318 14.0012 5.93342V9.047H15.9986V5.93342C15.9986 3.75979 17.761 1.99739 19.9346 1.99739L54.0665 2.07572C56.2401 2.07572 58.0025 3.83812 58.0025 6.01175V27.1606C58.0025 29.3342 56.2401 31.0966 54.0665 31.0966H51.9908C51.4425 31.0966 50.9921 31.547 50.9921 32.0953V40.5157L47.9764 37.1867V40.1436L51.2467 43.7467C51.4425 43.9621 51.7166 44.0796 51.9908 44.0796C52.1083 44.0796 52.2258 44.0601 52.3433 44.0209C52.7349 43.8642 52.9895 43.4922 52.9895 43.0809V33.0744H54.0665C57.3367 33.0744 59.9999 30.4112 59.9999 27.141V5.99217C59.9999 2.72193 57.3367 0.078329 54.0665 0.078329Z" fill="#A2A2A2"/>
</g>
<defs>
<clipPath id="clip0">
<rect width="60" height="55.0653" fill="white"/>
</clipPath>
</defs>
</svg>
