<svg width="60" height="60" viewBox="0 0 60 60" fill="none" xmlns="http://www.w3.org/2000/svg">
<g clip-path="url(#clip0)">
<path d="M59.3487 48.4613L47.0093 36.1221C46.5892 35.702 46.0308 35.4708 45.4366 35.4708C45.0257 35.4708 44.6331 35.5837 44.2902 35.791L37.3581 28.8589C37.0028 28.5037 36.4268 28.5037 36.0715 28.8589C35.7163 29.2141 35.7163 29.7902 36.0715 30.1454L42.956 37.0299L40.4197 39.5662L27.7921 26.9386L30.3284 24.4023L32.0181 26.0918C32.3732 26.4471 32.9492 26.447 33.3046 26.0918C33.6598 25.7365 33.6598 25.1605 33.3044 24.8053L31.6148 23.1158L36.0118 18.7188L36.3598 19.0667C36.7918 19.4989 37.3665 19.7369 37.9779 19.7369C38.5891 19.7369 39.1637 19.4989 39.596 19.0667L41.2167 17.446C41.6488 17.0138 41.8869 16.4392 41.8869 15.828C41.8869 15.2168 41.6488 14.6421 41.2167 14.21L28.7811 1.77432C28.3491 1.34213 27.7744 1.104 27.163 1.104C26.5517 1.104 25.9772 1.34201 25.5451 1.7742L23.9243 3.3949C23.4921 3.82709 23.254 4.40166 23.254 5.01303C23.254 5.62416 23.4921 6.19885 23.9242 6.63103L24.2721 6.97896L10.3687 20.8823L10.0208 20.5344C9.12866 19.6424 7.67694 19.6424 6.78479 20.5345L5.16409 22.1552C4.73202 22.5874 4.4939 23.1621 4.4939 23.7732C4.4939 24.3845 4.73202 24.9592 5.16409 25.3912L17.5994 37.8267C18.0316 38.2589 18.6063 38.4969 19.2176 38.4969C19.8288 38.4969 20.4034 38.2589 20.8356 37.8267L22.4564 36.206C22.4565 36.206 22.4565 36.206 22.4565 36.206C23.3484 35.3138 23.3485 33.8622 22.4565 32.97L22.1086 32.622L26.5055 28.2252L39.1808 40.9005C38.9735 41.2434 38.8605 41.636 38.8605 42.047C38.8605 42.641 39.0919 43.1995 39.5119 43.6196L51.8511 55.9589C52.2712 56.379 52.8296 56.6102 53.4239 56.6102C54.0179 56.6102 54.5763 56.3789 54.9966 55.9589L59.3487 51.6068C59.7687 51.1868 60 50.6283 60 50.0341C60 49.44 59.7687 48.8813 59.3487 48.4613ZM25.2108 4.6815L26.8317 3.06068C26.9202 2.97221 27.038 2.92346 27.163 2.92346C27.2882 2.92346 27.4059 2.97221 27.4944 3.0608L39.93 15.4963C40.0185 15.5847 40.0673 15.7025 40.0673 15.8277C40.0673 15.9528 40.0186 16.0706 39.9299 16.1592L38.3093 17.7799C38.1321 17.957 37.8233 17.9571 37.6462 17.78L25.2109 5.34455C25.1223 5.25596 25.0734 5.1383 25.0734 5.01303C25.0734 4.88775 25.1223 4.77021 25.2108 4.6815ZM21.1699 34.9194L19.549 36.5401C19.372 36.7172 19.0631 36.7172 18.886 36.5401L6.45058 24.1046C6.3621 24.0161 6.31323 23.8984 6.31323 23.7732C6.31323 23.6481 6.36198 23.5303 6.45069 23.4417L8.07128 21.821C8.16269 21.7296 8.28269 21.6839 8.4028 21.6839C8.52292 21.6839 8.64292 21.7296 8.73421 21.821L21.1697 34.2563C21.3525 34.4392 21.3525 34.7365 21.1699 34.9194ZM25.8621 26.2952C25.862 26.2953 25.862 26.2953 25.8619 26.2954L20.8219 31.3354L11.6552 22.1689L25.5587 8.26568L34.7252 17.4322L29.6858 22.4715C29.6855 22.4719 29.6851 22.4721 29.6848 22.4724L25.8621 26.2952ZM58.0619 50.3201L53.7098 54.6722C53.6068 54.7753 53.4865 54.7906 53.4239 54.7906C53.3612 54.7906 53.2408 54.7753 53.1378 54.6722L40.7986 42.3328C40.6955 42.2297 40.68 42.1093 40.68 42.0467C40.68 41.9842 40.6953 41.8638 40.7986 41.7607L41.0632 41.4961L45.1506 37.4086C45.2536 37.3054 45.3739 37.2901 45.4366 37.2901C45.4992 37.2901 45.6196 37.3054 45.7226 37.4086L58.0619 49.7478C58.1651 49.851 58.1805 49.9713 58.1805 50.0339C58.1805 50.0965 58.1651 50.2169 58.0619 50.3201Z" fill="#D6AA6D"/>
<path d="M34.5504 50.8321H33.1566V46.0382C33.1566 44.9688 32.2867 44.0988 31.2172 44.0988H15.5355C15.033 44.0988 14.6258 44.5061 14.6258 45.0085C14.6258 45.5109 15.033 45.9182 15.5355 45.9182H31.2172C31.2833 45.9182 31.3371 45.972 31.3371 46.0381V50.832H7.16496V46.0381C7.16496 45.9719 7.21875 45.9182 7.28484 45.9182H9.81961C10.3221 45.9182 10.7293 45.5109 10.7293 45.0085C10.7293 44.5061 10.3221 44.0988 9.81961 44.0988H7.28484C6.21539 44.0988 5.34551 44.9688 5.34551 46.0382V50.8321H3.95168C1.7727 50.8321 0 52.6048 0 54.7838V57.374C0 58.2133 0.682734 58.896 1.52203 58.896H36.98C37.8193 58.896 38.5021 58.2133 38.5021 57.374V54.7838C38.5021 52.6048 36.7294 50.8321 34.5504 50.8321ZM36.6827 57.0766H1.81945V54.7838C1.81945 53.6082 2.77594 52.6516 3.95168 52.6516H34.5505C35.7261 52.6516 36.6827 53.6081 36.6827 54.7838V57.0766Z" fill="#A2A2A2"/>
</g>
<defs>
<clipPath id="clip0">
<rect width="60" height="60" fill="white"/>
</clipPath>
</defs>
</svg>
