<svg width="58" height="60" viewBox="0 0 58 60" fill="none" xmlns="http://www.w3.org/2000/svg">
<g clip-path="url(#clip0)">
<path d="M46.8099 50.3237C46.8099 52.1954 45.1854 53.714 43.1725 53.714H10.206C8.19305 53.714 6.53325 52.1954 6.53325 50.3237V5.47381C6.53325 5.42084 6.56857 5.36786 6.56857 5.31489C6.56857 5.27958 6.56857 5.2266 6.56857 5.19129C6.6392 3.39023 8.24603 1.94232 10.206 1.94232H35.4385V10.5062C35.4562 12.2719 36.9041 13.7022 38.6698 13.6845H46.8099V16.2449H48.7522V12.7487C48.7346 12.4308 48.5756 12.1307 48.3284 11.9188L37.1689 0.547381C37.0983 0.459094 37.0277 0.370806 36.9394 0.317834L36.9041 0.282519C36.7275 0.105945 36.4803 0 36.2154 0H10.206C7.45144 0 5.13832 1.907 4.69688 4.43202C2.04826 4.83814 0 7.02766 0 9.67628V54.6851C0 57.6163 2.54267 60 5.61507 60H38.5815C41.3361 60 43.6315 58.093 44.073 55.568C46.7216 55.1619 48.7522 52.9547 48.7522 50.3237V28.146H46.8099V50.3237ZM37.3808 3.47852L45.3973 11.7245H38.6698C38.3343 11.7245 38.0165 11.6009 37.7693 11.3714C37.5221 11.1418 37.3808 10.824 37.3808 10.4885V3.47852ZM38.5815 58.0577H5.61507C3.60212 58.0577 1.94232 56.5391 1.94232 54.6675V9.67628C1.94232 8.12243 3.14303 6.81577 4.59094 6.40965V50.3237C4.59094 53.2549 7.13361 55.6386 10.206 55.6386H42.06C41.6186 57.1042 40.2237 58.0577 38.5815 58.0577Z" fill="#D6AA6D"/>
<path d="M56.8569 21.4185L51.9482 18.2049C51.7892 18.099 51.6127 18.0283 51.4184 18.0283H15.5385C14.9911 18.046 14.5497 18.4874 14.5144 19.0525V19.1761L11.6362 19.1231C11.0888 19.1407 10.665 19.5822 10.665 20.1119L10.7004 24.332C10.7004 24.8617 11.1418 25.2855 11.6715 25.2855H14.532V25.4268C14.532 25.9565 15.0088 26.3803 15.5562 26.3803H17.6044L17.5868 27.8282C17.5868 28.3756 17.781 28.923 18.1695 29.3114C18.4873 29.6646 18.9464 29.8588 19.4231 29.8765H31.1653C31.6951 29.8765 32.1365 29.435 32.1365 28.9053C32.1365 28.3756 31.6951 27.9341 31.1653 27.9341H19.5291C19.5291 27.8105 19.5291 27.8812 19.5291 27.8635L19.5467 26.3626H51.4714C51.6656 26.3626 51.8422 26.3097 52.0011 26.2214L56.9099 23.043C57.1924 22.8665 57.3513 22.5663 57.3513 22.2308C57.2984 21.913 57.1394 21.5951 56.8569 21.4185ZM14.5144 23.3432H12.625L12.5897 21.0831L14.532 21.1007V23.3432H14.5144ZM50.4473 24.438H16.4567V19.953H50.4473V24.438ZM52.3719 23.6434V20.8359L54.5261 22.2484L52.3719 23.6434Z" fill="#D6AA6D"/>
<path d="M12.3779 35.445H29.2584C29.8234 35.445 30.2825 34.9859 30.2825 34.4209C30.2825 33.8558 29.8234 33.3967 29.2584 33.3967H12.3779C11.8129 33.3967 11.3538 33.8558 11.3538 34.4209C11.3538 34.9859 11.8129 35.445 12.3779 35.445Z" fill="#A2A2A2"/>
<path d="M12.3779 40.4598H41.7599C42.3249 40.4598 42.784 40.0007 42.784 39.4356C42.784 38.8706 42.3249 38.4115 41.7599 38.4115H12.3779C11.8129 38.4115 11.3538 38.8706 11.3538 39.4356C11.3538 40.0007 11.8129 40.4598 12.3779 40.4598Z" fill="#A2A2A2"/>
<path d="M12.3779 45.4567H41.7599C42.3249 45.4567 42.784 44.9976 42.784 44.4326C42.784 43.8675 42.3249 43.4084 41.7599 43.4084H12.3779C11.8129 43.4084 11.3538 43.8675 11.3538 44.4326C11.3538 44.9976 11.8129 45.4567 12.3779 45.4567Z" fill="#A2A2A2"/>
<path d="M12.3779 50.4715H41.7599C42.3249 50.4715 42.784 50.0124 42.784 49.4474C42.784 48.8823 42.3249 48.4232 41.7599 48.4232H12.3779C11.8129 48.4232 11.3538 48.8823 11.3538 49.4474C11.3538 50.0124 11.8129 50.4715 12.3779 50.4715Z" fill="#A2A2A2"/>
</g>
<defs>
<clipPath id="clip0">
<rect width="57.2984" height="60" fill="white"/>
</clipPath>
</defs>
</svg>
