<svg width="66" height="60" viewBox="0 0 66 60" fill="none" xmlns="http://www.w3.org/2000/svg">
<g clip-path="url(#clip0)">
<path d="M49.6001 39.6C49.3001 39.6 49.1001 39.8 49.1001 40.1V40.7C49.1001 41 49.3001 41.2 49.6001 41.2C49.9001 41.2 50.1001 41 50.1001 40.7V40.1C50.1001 39.8 49.9001 39.6 49.6001 39.6Z" fill="#A2A2A2" stroke="#A2A2A2" stroke-width="0.75"/>
<path d="M56 39.6C55.7 39.6 55.5 39.8 55.5 40.1V40.7C55.5 41 55.7 41.2 56 41.2C56.3 41.2 56.5 41 56.5 40.7V40.1C56.5 39.8 56.3 39.6 56 39.6Z" fill="#A2A2A2" stroke="#A2A2A2" stroke-width="0.75"/>
<path d="M55.1001 44.3C54.9001 44.1 54.6001 44 54.3001 44.2C53.9001 44.5 53.3001 44.7 52.7001 44.7C52.1001 44.7 51.5001 44.5 51.1001 44.2C51.0001 44 50.6001 44 50.4001 44.3C50.2001 44.5 50.2001 44.9 50.5001 45.1C51.1001 45.6 51.9001 45.9 52.8001 45.9C53.7001 45.9 54.5001 45.6 55.1001 45.1C55.3001 44.8 55.3001 44.5 55.1001 44.3Z" fill="#A2A2A2" stroke="#A2A2A2" stroke-width="0.75"/>
<path d="M41.2001 60V55.4C41.2001 54.9 41.3001 54.4 41.6001 54L44.1001 57C44.4001 57.4 44.6001 57.8 44.6001 58.3V60H45.7001V58.3C45.7001 57.6 45.4001 56.9 45.0001 56.3L42.4001 53.1C42.6001 52.9 42.9001 52.8 43.2001 52.7L46.0001 52C46.4001 52.9 48.4001 56.8 52.5001 59.7C52.6001 59.8 52.7001 59.8 52.8001 59.8C52.9001 59.8 53.0001 59.8 53.1001 59.7C57.2001 56.8 59.2001 52.8 59.6001 52L62.4001 52.8C62.7001 52.9 63.0001 53 63.2001 53.2L60.6001 56.4C60.1001 57 59.9001 57.7 59.9001 58.4V60H61.0001V58.3C61.0001 57.8 61.2001 57.4 61.5001 57L64.0001 54C64.2001 54.4 64.4001 54.9 64.4001 55.4V60H65.5001V55.4C65.5001 53.7 64.4001 52.2 62.7001 51.8L58.3001 50.6L57.8001 49C57.7001 48.8 57.6001 48.7 57.5001 48.7C57.4001 48.7 57.3001 48.7 57.2001 48.7V48.5C57.6001 48.2 58.0001 47.9 58.4001 47.6C59.8001 46.3 60.7001 44.6 60.9001 42.7C61.9001 42.6 62.7001 41.9 62.9001 40.9C63.0001 40.3 62.8001 39.7 62.5001 39.2C63.1001 38.8 63.6001 38.1 63.6001 37.3C63.6001 36.6 63.3001 36 62.8001 35.6C62.9001 35.3 63.0001 35 63.0001 34.7C63.0001 33.6 62.1001 32.6 61.0001 32.5C60.8001 31.8 60.1001 31.2 59.3001 31.2C59.1001 31.2 58.8001 31.3 58.6001 31.3C57.2001 30.5 55.6001 30 54.0001 30H51.4001C49.8001 30 48.3001 30.5 47.0001 31.4C46.8001 31.3 46.5001 31.3 46.3001 31.3C45.5001 31.3 44.8001 31.8 44.6001 32.6C43.5001 32.7 42.6001 33.6 42.6001 34.8C42.6001 35.1 42.7001 35.4 42.8001 35.7C42.3001 36.1 42.0001 36.7 42.0001 37.4C42.0001 38.2 42.4001 38.9 43.1001 39.3C42.8001 39.8 42.6001 40.3 42.7001 41C42.9001 41.9 43.7001 42.7 44.7001 42.8C45.0001 44.7 45.9001 46.4 47.2001 47.7C47.6001 48 48.0001 48.4 48.4001 48.6V48.8C48.3001 48.8 48.2001 48.8 48.1001 48.8C47.9001 48.9 47.8001 49 47.8001 49.1L47.3001 50.7L42.9001 51.9C41.3001 52.3 40.1001 53.8 40.1001 55.5V60H41.2001ZM57.3001 50.9L55.3001 53.4H55.2001L53.7001 52.3L57.0001 50L57.3001 50.9ZM52.8001 51.6L49.5001 49.2V48.9C50.5001 49.4 51.6001 49.6 52.8001 49.6C53.9001 49.6 55.1001 49.4 56.1001 48.9V49.2L52.8001 51.6ZM59.2001 32.4C59.6001 32.4 59.9001 32.7 59.9001 33.1C59.9001 33.3 60.0001 33.4 60.1001 33.5C60.2001 33.6 60.4001 33.6 60.6001 33.6C60.7001 33.6 60.7001 33.6 60.8001 33.6C61.4001 33.6 61.9001 34.1 61.9001 34.7C61.9001 35 61.8001 35.3 61.6001 35.4C61.5001 35.5 61.4001 35.7 61.5001 35.9C61.5001 36.1 61.7001 36.2 61.8001 36.3C62.2001 36.5 62.5001 36.9 62.5001 37.3C62.5001 37.9 62.0001 38.4 61.4001 38.4C60.8001 38.4 60.3001 37.9 60.3001 37.3C60.3001 37 60.4001 36.7 60.6001 36.6C60.7001 36.5 60.8001 36.3 60.7001 36.1C60.7001 35.9 60.5001 35.8 60.4001 35.7C60.0001 35.5 59.7001 35.1 59.7001 34.7C59.7001 34.6 59.7001 34.6 59.7001 34.5C59.7001 34.3 59.7001 34.2 59.6001 34C59.5001 33.9 59.3001 33.8 59.2001 33.8C58.8001 33.8 58.5001 33.5 58.5001 33.1C58.4001 32.7 58.8001 32.4 59.2001 32.4ZM43.1001 37.3C43.1001 36.9 43.4001 36.5 43.8001 36.3C44.0001 36.2 44.1001 36.1 44.1001 35.9C44.1001 35.7 44.1001 35.5 44.0001 35.4C43.9001 35.3 43.7001 35 43.7001 34.7C43.7001 34.1 44.2001 33.6 44.8001 33.6C44.9001 33.6 44.9001 33.6 45.0001 33.6C45.2001 33.6 45.3001 33.6 45.5001 33.5C45.6001 33.4 45.7001 33.2 45.7001 33.1C45.7001 32.7 46.0001 32.4 46.4001 32.4C46.8001 32.4 47.1001 32.7 47.1001 33.1C47.1001 33.5 46.8001 33.8 46.4001 33.8C46.2001 33.8 46.1001 33.9 46.0001 34C45.9001 34.1 45.9001 34.3 45.9001 34.5C45.9001 34.6 45.9001 34.6 45.9001 34.7C45.9001 35.1 45.6001 35.5 45.2001 35.7C45.0001 35.8 44.9001 35.9 44.9001 36.1C44.9001 36.3 44.9001 36.5 45.0001 36.6C45.1001 36.7 45.3001 37 45.3001 37.3C45.3001 37.9 44.8001 38.4 44.2001 38.4C43.6001 38.4 43.1001 37.9 43.1001 37.3ZM47.9001 46.6C46.6001 45.4 45.8001 43.7 45.6001 42C45.6001 41.7 45.3001 41.5 45.1001 41.5H44.8001C44.3001 41.5 43.8001 41.1 43.7001 40.6C43.6001 40 43.9001 39.5 44.5001 39.4C45.5001 39.2 46.3001 38.3 46.3001 37.3C46.3001 37 46.2001 36.7 46.1001 36.4C46.6001 36 46.9001 35.5 46.9001 34.8C47.6001 34.6 48.2001 33.9 48.2001 33C48.2001 32.6 48.1001 32.3 47.9001 32C49.0001 31.3 50.2001 30.9 51.5001 30.9H54.0001C55.3001 30.9 56.5001 31.3 57.6001 32C57.4001 32.3 57.3001 32.6 57.3001 33C57.3001 33.8 57.8001 34.5 58.6001 34.8C58.6001 35.4 58.9001 36 59.4001 36.4C59.3001 36.7 59.2001 37 59.2001 37.3C59.2001 38.4 60.0001 39.2 61.0001 39.4C61.5001 39.5 61.9001 40.1 61.8001 40.6C61.7001 41.1 61.2001 41.5 60.7001 41.5H60.4001C60.1001 41.5 59.9001 41.7 59.9001 42C59.8001 43.8 58.9001 45.4 57.6001 46.6C56.3001 47.8 54.6001 48.5 52.8001 48.5C51.0001 48.5 49.3001 47.9 47.9001 46.6ZM48.6001 49.9L51.9001 52.2L50.4001 53.3H50.3001L48.3001 50.8L48.6001 49.9ZM47.5001 51.6L49.4001 54C49.6001 54.3 50.0001 54.4 50.3001 54.4C50.5001 54.4 50.8001 54.3 51.0001 54.2L52.2001 53.3H53.3001L54.5001 54.2C54.7001 54.4 55.0001 54.4 55.2001 54.4C55.5001 54.4 55.9001 54.2 56.1001 54L58.0001 51.6L58.4001 51.7C57.9001 52.7 56.1001 56 52.6001 58.6C49.2001 56 47.4001 52.7 46.9001 51.7L47.5001 51.6Z" fill="#A2A2A2" stroke="#A2A2A2" stroke-width="0.75"/>
<path d="M55.8 20.8H0.9C0.4 20.8 0 21.2 0 21.7V48C0 48.6 0.4 49 0.9 49H38.2C38.7 49 39.1 48.6 39.1 48.1C39.1 47.6 38.7 47.2 38.2 47.2H1.9V22.7H54.9V25.1C54.9 25.6 55.3 26 55.8 26C56.3 26 56.7 25.6 56.7 25.1V21.8C56.7 21.3 56.3 20.8 55.8 20.8Z" fill="#D6AA6D"/>
<path d="M49.4001 16.5L5.50007 6.60001C5.30007 6.60001 5.00007 6.60001 4.80007 6.70001C4.60007 6.90001 4.50007 7.10001 4.40007 7.30001L2.20007 17.2C2.10007 17.7 2.40007 18.2 2.90007 18.3C3.40007 18.4 3.90007 18.1 4.00007 17.6L6.00007 8.70001L49.0001 18.3C49.1001 18.3 49.1001 18.3 49.2001 18.3C49.7001 18.3 50.1001 17.9 50.1001 17.4C50.1001 17 49.8001 16.6 49.4001 16.5Z" fill="#D6AA6D"/>
<path d="M44.1 11L17.8 2.75671e-07C17.3 -0.2 16.8 2.68221e-07 16.6 0.4L14.4 4.8C14.2 5.3 14.3 5.8 14.8 6.1C15.3 6.3 15.8 6.2 16.1 5.7C16.1 5.7 16.1 5.7 16.1 5.6L17.9 2L43.4 12.6C43.9 12.8 44.4 12.6 44.6 12.1C44.8 11.8 44.6 11.2 44.1 11Z" fill="#D6AA6D"/>
<path d="M44.7001 25.2H36.0001C35.5001 25.2 35.1001 25.6 35.1001 26.1C35.1001 26.6 35.5001 27 36.0001 27H44.7001C45.2001 27 45.6001 26.6 45.6001 26.1C45.6001 25.6 45.3001 25.2 44.7001 25.2Z" fill="#D6AA6D"/>
<path d="M27.3001 25.3C22.0001 25.3 17.6001 29.6 17.6001 35C17.6001 40.3 21.9001 44.6 27.3001 44.7C32.6001 44.7 37.0001 40.4 37.0001 35C37.0001 29.6 32.6001 25.3 27.3001 25.3ZM27.3001 42.8C22.9001 42.8 19.4001 39.3 19.4001 34.9C19.4001 30.5 22.9001 27 27.3001 27C31.7001 27 35.2001 30.5 35.2001 34.9C35.2001 39.3 31.6001 42.8 27.3001 42.8Z" fill="#D6AA6D"/>
<path d="M18.5 42.8H10.2L6.30005 38.5V31.4L10.6 27.2H18.5C19 27.2 19.4 26.8 19.4 26.3C19.4 25.8 19 25.4 18.5 25.4H10.2C10 25.4 9.70005 25.5 9.50005 25.7L4.60005 30.5C4.40005 30.7 4.30005 31 4.30005 31.3V39.1C4.30005 39.3 4.40005 39.6 4.50005 39.7L9.00005 44.6C9.20005 44.8 9.40005 44.9 9.70005 44.9H18.4C18.9 44.9 19.3 44.5 19.3 44C19.4 43.2 19 42.8 18.5 42.8Z" fill="#D6AA6D"/>
<path d="M23.2999 38.3H24.8999V39.6C24.8999 39.7 24.8999 39.7 24.9999 39.8C24.9999 39.8 25.0999 39.9 25.1999 39.9H26.3999C26.4999 39.9 26.4999 39.9 26.5999 39.8C26.5999 39.8 26.6999 39.7 26.6999 39.6V38.3H29.9999C30.0999 38.3 30.0999 38.3 30.1999 38.2C30.1999 38.2 30.2999 38.1 30.2999 38V37.1C30.2999 37 30.2999 37 30.1999 36.9C30.1999 36.9 30.0999 36.8 29.9999 36.8H26.4999V36H28.8999C29.7999 36 30.5999 35.7 31.1999 35.1C31.7999 34.5 32.0999 33.8 32.0999 32.9C32.0999 32 31.7999 31.3 31.1999 30.7C30.5999 30.1 29.7999 29.8 28.8999 29.8H25.0999C24.9999 29.8 24.9999 29.8 24.8999 29.9C24.8999 29.9 24.7999 30 24.7999 30.1V34.5H23.1999C23.0999 34.5 23.0999 34.5 22.9999 34.6C22.9999 34.6 22.8999 34.7 22.8999 34.8V35.8C22.8999 35.9 22.8999 35.9 22.9999 36C22.9999 36 23.0999 36.1 23.1999 36.1H24.7999V37H23.1999C23.0999 37 23.0999 37 22.9999 37.1C22.9999 37.1 22.8999 37.2 22.8999 37.3V38.2C22.8999 38.3 22.8999 38.3 22.9999 38.4C23.1999 38.3 23.1999 38.3 23.2999 38.3ZM26.4999 31.5H28.6999C29.1999 31.5 29.5999 31.6 29.8999 31.9C30.1999 32.2 30.3999 32.6 30.3999 33C30.3999 33.5 30.1999 33.8 29.8999 34.1C29.5999 34.4 29.1999 34.5 28.6999 34.5H26.4999V31.5Z" fill="#D6AA6D"/>
</g>
<defs>
<clipPath id="clip0">
<rect width="65.5" height="60" fill="white"/>
</clipPath>
</defs>
</svg>
