<svg width="60" height="60" viewBox="0 0 60 60" fill="none" xmlns="http://www.w3.org/2000/svg">
<path d="M59.7267 21.297C59.4901 20.7321 59.0474 20.2931 58.4807 20.0615L54.478 18.4236C53.9117 18.192 53.2883 18.1943 52.7234 18.4314C52.1581 18.6685 51.7195 19.1112 51.4874 19.6774L46.9308 30.8144V12.6155C46.9308 12.3793 46.837 12.1523 46.6699 11.9852L34.9452 0.260925C34.7781 0.0938415 34.5515 0 34.3153 0H0.891266C0.39917 0 0 0.39917 0 0.891266V7.76825C0 8.26035 0.39917 8.65952 0.891266 8.65952C1.38336 8.65952 1.78207 8.26035 1.78207 7.76825V1.78207H33.4236V12.6155C33.4236 13.1076 33.8228 13.5063 34.3149 13.5063H45.1488V35.1704L41.2202 44.7711C41.1708 44.892 41.1484 45.0224 41.1552 45.1529L41.5746 53.5405C41.5919 53.8857 41.8071 54.1896 42.1271 54.3205C42.236 54.3654 42.3505 54.3869 42.4644 54.3869C42.6842 54.3869 42.9002 54.3059 43.0678 54.1516L45.1483 52.2363V58.2179H1.78207V11.3329C1.78207 10.8408 1.38336 10.4416 0.891266 10.4416C0.39917 10.4416 0 10.8408 0 11.3329V59.1087C0 59.6008 0.39917 60 0.891266 60H46.0396C46.5317 60 46.9308 59.6008 46.9308 59.1087V50.5957L49.2467 48.4639C49.3428 48.3751 49.4179 48.2666 49.4678 48.1458L53.5075 38.2718C53.6938 37.8163 53.4755 37.2958 53.02 37.1095C52.565 36.9232 52.0445 37.1411 51.8582 37.5966L48.1554 46.6461L43.2069 44.6214L50.8109 26.0376L55.7593 28.0623L53.1358 34.4742C52.9495 34.9297 53.1674 35.4501 53.6234 35.6364C54.0788 35.8228 54.5988 35.6049 54.7852 35.1494L59.735 23.0521C59.9666 22.4854 59.9638 21.8619 59.7267 21.297ZM35.2061 3.04184L43.8885 11.7247H35.2061V3.04184ZM43.0051 46.4639L47.0082 48.1018L43.2596 51.5529L43.0051 46.4639ZM58.0852 22.3769L56.434 26.4125L51.4856 24.3878L53.1367 20.3522C53.1885 20.2263 53.2864 20.1279 53.4123 20.0752C53.5387 20.0221 53.6774 20.0212 53.8033 20.0729L57.8059 21.7108C57.9318 21.7621 58.0302 21.86 58.0829 21.9859C58.136 22.1123 58.1369 22.251 58.0852 22.3769Z" fill="#D6AA6D"/>
<path d="M29.6544 9.72839H18.6054C18.1133 9.72839 17.7141 10.1271 17.7141 10.6192C17.7141 11.1113 18.1133 11.5105 18.6054 11.5105H29.6544C30.1465 11.5105 30.5457 11.1113 30.5457 10.6192C30.5457 10.1271 30.1465 9.72839 29.6544 9.72839Z" fill="#A2A2A2"/>
<path d="M6.89175 29.2721H13.9367C14.4288 29.2721 14.8276 28.873 14.8276 28.3809V22.0701L16.1574 20.3773C16.4613 19.9905 16.394 19.4302 16.0072 19.1263C15.6204 18.8223 15.0601 18.8896 14.7561 19.2764L13.8379 20.4451H6.89175C6.39966 20.4451 6.00049 20.8438 6.00049 21.3359V28.3809C6.00049 28.873 6.39966 29.2721 6.89175 29.2721ZM7.78256 22.2272H12.4376L11.0194 24.0321L10.0279 23.0401C9.68 22.6922 9.11557 22.6922 8.76767 23.0401C8.41977 23.3885 8.41977 23.9525 8.76767 24.3004L10.4696 26.0023C10.6372 26.1699 10.8642 26.2633 11.0995 26.2633C11.1174 26.2633 11.1352 26.2628 11.1531 26.2619C11.4071 26.2468 11.6429 26.1232 11.8004 25.9227L13.0455 24.3384V27.4901H7.78256V22.2272Z" fill="#A2A2A2"/>
<path d="M39.1586 21.8289H20.0905C19.5984 21.8289 19.1992 22.228 19.1992 22.7201C19.1992 23.2122 19.5984 23.6114 20.0905 23.6114H39.1586C39.6512 23.6114 40.0499 23.2122 40.0499 22.7201C40.0499 22.228 39.6512 21.8289 39.1586 21.8289Z" fill="#A2A2A2"/>
<path d="M20.0905 27.8883H35.4164C35.9085 27.8883 36.3072 27.4891 36.3072 26.997C36.3072 26.5049 35.9085 26.1062 35.4164 26.1062H20.0905C19.5984 26.1062 19.1992 26.5049 19.1992 26.997C19.1992 27.4891 19.5984 27.8883 20.0905 27.8883Z" fill="#A2A2A2"/>
<path d="M6.00049 40.0831C6.00049 40.5752 6.39966 40.9744 6.89175 40.9744H13.9367C14.4288 40.9744 14.8276 40.5752 14.8276 40.0831V33.7724L16.1574 32.0796C16.4613 31.6928 16.394 31.1325 16.0072 30.8285C15.6204 30.5246 15.0601 30.5919 14.7561 30.9787L13.8379 32.1474H6.89175C6.39966 32.1474 6.00049 32.5461 6.00049 33.0382V40.0831ZM7.78256 33.9294H12.4376L11.0194 35.7344L10.0279 34.7424C9.68 34.3945 9.11557 34.3945 8.76767 34.7424C8.41977 35.0908 8.41977 35.6547 8.76767 36.0026L10.4696 37.7046C10.6372 37.8721 10.8642 37.9655 11.0995 37.9655C11.1174 37.9655 11.1352 37.9651 11.1531 37.9642C11.4071 37.9491 11.6429 37.8255 11.8004 37.625L13.0455 36.0406V39.1923H7.78256V33.9294Z" fill="#A2A2A2"/>
<path d="M39.1586 33.5312H20.0905C19.5984 33.5312 19.1992 33.9304 19.1992 34.4225C19.1992 34.9146 19.5984 35.3133 20.0905 35.3133H39.1586C39.6512 35.3133 40.0499 34.9146 40.0499 34.4225C40.0499 33.9304 39.6512 33.5312 39.1586 33.5312Z" fill="#A2A2A2"/>
<path d="M20.0905 39.5907H25.7933C26.2854 39.5907 26.6841 39.1915 26.6841 38.6994C26.6841 38.2073 26.2854 37.8086 25.7933 37.8086H20.0905C19.5984 37.8086 19.1992 38.2073 19.1992 38.6994C19.1992 39.1915 19.5984 39.5907 20.0905 39.5907Z" fill="#A2A2A2"/>
<path d="M6.00049 51.7854C6.00049 52.2775 6.39966 52.6767 6.89175 52.6767H13.9367C14.4288 52.6767 14.8275 52.2775 14.8275 51.7854V44.7409C14.8275 44.2488 14.4288 43.8496 13.9367 43.8496H6.89175C6.39966 43.8496 6.00049 44.2488 6.00049 44.7409V51.7854ZM7.78256 45.6317H13.0455V50.8941H7.78256V45.6317Z" fill="#A2A2A2"/>
<path d="M40.0499 46.1247C40.0499 45.6326 39.6512 45.2334 39.1586 45.2334H20.0905C19.5984 45.2334 19.1992 45.6326 19.1992 46.1247C19.1992 46.6168 19.5984 47.0155 20.0905 47.0155H39.1586C39.6512 47.0155 40.0499 46.6168 40.0499 46.1247Z" fill="#A2A2A2"/>
<path d="M20.0905 49.5104C19.5984 49.5104 19.1992 49.9095 19.1992 50.4016C19.1992 50.8937 19.5984 51.2929 20.0905 51.2929H36.3072C36.7998 51.2929 37.1985 50.8937 37.1985 50.4016C37.1985 49.9095 36.7998 49.5104 36.3072 49.5104H20.0905Z" fill="#A2A2A2"/>
</svg>
