<svg width="60" height="60" viewBox="0 0 60 60" fill="none" xmlns="http://www.w3.org/2000/svg">
<path d="M27.4294 51.6345L27.4293 51.6347C27.3448 51.8036 27.2776 51.9798 27.228 52.1602C23.9561 49.968 18.0882 45.8103 12.7166 40.8408C9.56862 37.9285 6.61929 34.7629 4.46356 31.5746C2.2981 28.372 1 25.2441 1 22.3856C1 13.8321 8.11517 7.04688 17.3438 7.04688C20.8105 7.04688 24.2291 8.12524 27.125 9.97233V12.2468L22.3212 17.1603L22.3192 17.1624C21.7272 17.7714 21.4251 18.6143 21.5167 19.471C21.6044 20.3265 22.0726 21.0894 22.78 21.5629L22.7815 21.5639L30.4435 26.6719L22.7829 31.7789C22.7827 31.779 22.7825 31.7792 22.7824 31.7793C21.9775 32.3142 21.5 33.2124 21.5 34.1719C21.5 35.1316 21.9777 36.0299 22.7829 36.5648L31.9206 42.6555L27.4294 51.6345Z" stroke="#A2A2A2" stroke-width="2"/>
<path d="M29.5564 34.1719L37.2183 29.0639L37.2197 29.063C38.0158 28.5304 38.4999 27.6349 38.4999 26.6719C38.4999 25.7095 38.0166 24.8153 37.2263 24.2826L37.2221 24.2798L28.8545 18.7014L32.0533 15.4313C32.0534 15.4313 32.0534 15.4312 32.0535 15.4312C32.5809 14.8922 32.8749 14.1726 32.8749 13.4194V9.97233C35.7708 8.12524 39.1894 7.04688 42.6561 7.04688C51.8883 7.04688 58.9999 13.832 58.9999 22.3856C58.9999 24.8647 58.0167 27.5925 56.2785 30.4466C54.5456 33.2918 52.1064 36.1902 49.3032 38.9905C44.5766 43.712 38.8827 48.0875 33.9833 51.3836L38.1956 42.9591L38.1971 42.9559C38.8385 41.6618 38.4281 40.0863 37.2183 39.2798L29.5564 34.1719Z" stroke="#D6AA6D" stroke-width="2"/>
</svg>
