<svg width="60" height="60" viewBox="0 0 60 60" fill="none" xmlns="http://www.w3.org/2000/svg">
<g clip-path="url(#clip0)">
<path d="M16.1283 10.0312C16.5371 11.2063 17.627 12.0068 18.8533 12.0068H26.2788C27.505 12.0068 28.595 11.2063 29.0037 10.0312C29.3954 8.90717 30.6046 6.38659 31.5583 5.58613C32.3929 4.88787 32.7846 3.79789 32.5802 2.74197C32.3758 1.70308 31.6605 0.885595 30.6557 0.562007C27.6583 -0.425787 24.9844 -0.1022 22.9577 1.53277C22.6001 1.8223 22.1062 1.8223 21.7315 1.53277C19.7048 -0.1022 17.031 -0.425787 14.0335 0.562007C13.0287 0.902626 12.2964 1.70308 12.109 2.74197C11.9046 3.79789 12.2964 4.88787 13.1309 5.58613C14.1868 6.48877 15.8388 9.19669 16.1283 10.0312ZM14.0676 3.11665C14.1016 2.92931 14.2379 2.58869 14.6637 2.45244C15.6004 2.14588 16.4689 1.99261 17.2694 1.99261C18.4956 1.99261 19.5856 2.35026 20.4882 3.08259C21.5782 3.95116 23.111 3.95116 24.201 3.08259C25.6997 1.89042 27.6583 1.66902 30.0256 2.45244C30.4513 2.58869 30.5876 2.92931 30.6216 3.11665C30.6898 3.45727 30.5535 3.81492 30.281 4.05335C28.7482 5.3477 27.3858 8.63467 27.1303 9.367C26.9941 9.74168 26.6705 9.99715 26.2958 9.99715H18.8703C18.4956 9.99715 18.155 9.74168 18.0358 9.367C17.627 8.15781 15.7707 5.17739 14.4423 4.05335C14.1357 3.81492 13.9994 3.4743 14.0676 3.11665Z" fill="#D6AA6D"/>
<path d="M31.0646 13.9995C31.0646 13.4545 30.6218 12.9946 30.0597 12.9946C29.8724 12.9946 29.7021 13.0628 29.5658 13.1479C29.4126 13.0628 29.2593 12.9946 29.0719 12.9946H17.0651C16.5201 12.9946 16.0603 13.4374 16.0603 13.9995C16.0603 14.5615 16.5031 15.0043 17.0651 15.0043H29.0719V16.0091H18.07C17.525 16.0091 17.0651 16.4519 17.0651 17.0139C17.0651 17.576 17.5079 18.0188 18.07 18.0188H29.9916C30.8942 18.7681 31.9842 19.1939 33.1764 19.1939C34.5048 19.1939 35.7651 18.6659 36.7188 17.7292C37.1105 17.3375 37.1105 16.7074 36.7188 16.3157C36.3271 15.924 35.697 15.924 35.3053 16.3157C34.1812 17.4397 32.2227 17.4567 31.0816 16.3327V13.9995H31.0646Z" fill="#D6AA6D"/>
<path d="M21.0673 26.0062C14.6637 26.0062 7.06787 34.13 7.06787 41.0105C7.06787 41.5555 7.51068 42.0153 8.0727 42.0153C8.61769 42.0153 9.07752 41.5725 9.07752 41.0105C9.07752 35.3051 15.8047 28.0159 21.0843 28.0159C21.6293 28.0159 22.0892 27.5731 22.0892 27.0111C22.0721 26.449 21.6123 26.0062 21.0673 26.0062Z" fill="#D6AA6D"/>
<path d="M8.80503 27.5731L15.8899 22.4127C17.048 21.4931 18.5127 20.9992 19.9773 20.9992H27.7605C29.3784 20.9992 30.8431 21.8677 31.8309 22.6171L39.0349 27.505C40.3463 28.5098 41.5044 29.702 42.4922 31.0304C43.2075 30.8941 43.9058 30.7579 44.6041 30.6046C43.4119 28.7993 41.9472 27.2325 40.1931 25.887L32.989 20.9992C31.7968 20.0795 29.9234 18.9895 27.7434 18.9895H19.9603C18.0358 18.9895 16.1454 19.6367 14.6637 20.8118L7.5788 25.9722C0.204405 31.7797 -2.12883 41.9302 2.02672 50.1391C3.54247 53.1195 6.06305 56.7301 9.52033 56.9685C9.79282 56.9855 10.0653 57.0026 10.3378 57.0026H27.7945L26.8067 54.9929H10.3719C10.1334 54.9929 9.91204 54.9929 9.69064 54.9759C7.73208 54.8396 5.65431 52.813 3.832 49.2365C0.10222 41.8961 2.21406 32.7675 8.80503 27.5731Z" fill="#D6AA6D"/>
<path d="M59.0633 35.5095C59.0633 32.7505 52.7789 32.0011 49.0661 32.0011C48.5381 32.0011 47.1075 31.9841 45.694 32.1544C44.3145 32.3247 42.969 32.6824 42.4581 32.7675C41.5725 33.006 40.772 33.3466 40.1589 33.7553C40.1419 33.7724 40.1078 33.7894 40.0908 33.8064C39.9716 33.8916 39.8524 33.9938 39.7502 34.096C39.6991 34.147 39.665 34.1811 39.631 34.2322C39.5458 34.3174 39.4777 34.4025 39.4096 34.5047C39.3585 34.5898 39.3244 34.658 39.2733 34.7431C39.2393 34.8113 39.1882 34.8964 39.1711 34.9645C39.12 35.1348 39.086 35.3051 39.086 35.4925V44.587C38.7454 44.4508 38.4047 44.3315 38.0471 44.2464C37.996 44.2294 37.9449 44.2294 37.9108 44.2123C37.5532 44.1272 37.1955 44.0761 36.8379 44.042C36.8038 44.042 36.7527 44.042 36.7187 44.042C36.5143 44.025 36.3099 44.008 36.1056 44.008C36.0034 44.008 35.8842 44.025 35.782 44.025C35.6968 44.025 35.6117 44.025 35.5265 44.042C35.1689 44.0761 34.8112 44.1101 34.4706 44.1783H34.4536C34.4195 44.1783 34.4025 44.1953 34.3684 44.1953C34.0618 44.2634 33.7553 44.3486 33.4487 44.4678C33.3465 44.5019 33.2273 44.5359 33.1251 44.587C32.8356 44.7062 32.5461 44.8425 32.2566 44.9958C32.1544 45.0468 32.0522 45.115 31.95 45.1831C31.7627 45.3023 31.5583 45.4215 31.388 45.5578C31.2858 45.6429 31.1666 45.7111 31.0644 45.7962C30.826 45.9835 30.6046 46.1879 30.4002 46.4093C30.315 46.5115 30.2299 46.5967 30.1277 46.6988C29.9744 46.8692 29.8382 47.0395 29.7019 47.2268C29.6338 47.329 29.5486 47.4141 29.4805 47.5163C29.3102 47.7718 29.1399 48.0443 29.0037 48.3168C28.9526 48.419 28.9015 48.5382 28.8504 48.6404C28.7312 48.8788 28.629 49.1343 28.5438 49.3897C28.5098 49.4579 28.4927 49.543 28.4587 49.6111C28.3565 49.9347 28.2884 50.2753 28.2202 50.616C28.2202 50.6671 28.2032 50.7011 28.1862 50.7522C28.1862 50.8033 28.1862 50.8714 28.1691 50.9225C28.1351 51.161 28.118 51.3994 28.101 51.6378C28.101 51.723 28.084 51.8081 28.084 51.8933C28.084 51.9273 28.084 51.9614 28.084 51.9955C28.084 52.1487 28.101 52.302 28.101 52.4723C28.1351 53.3409 28.4757 54.4139 28.663 54.9929C28.9526 55.8615 29.8552 57.0026 29.8552 57.0026C31.3199 58.8249 33.5679 60 36.0885 60C38.9838 60 41.5214 58.4502 42.935 56.134C44.7232 56.696 46.9202 57.0026 49.1002 57.0026C53.9029 57.0026 59.0973 55.4698 59.0973 53.0003V47.4993H59.0122C59.0633 47.329 59.0973 47.1757 59.0973 47.0054V35.5095H59.0633ZM41.1808 35.4755C41.2148 35.4414 41.2659 35.4073 41.317 35.3733C41.4022 35.3222 41.5044 35.2711 41.6236 35.203C41.6917 35.1689 41.7598 35.1348 41.828 35.1008C41.9131 35.0667 41.9983 35.0327 42.0834 34.9986C42.1856 34.9645 42.3048 34.9134 42.4411 34.8794C42.5262 34.8453 42.6114 34.8113 42.7136 34.7942C42.935 34.7261 43.1904 34.658 43.4459 34.5898C43.5651 34.5558 43.7184 34.5388 43.8546 34.5047C44.0249 34.4706 44.1782 34.4366 44.3656 34.4025C44.5529 34.3684 44.7743 34.3344 44.9787 34.3003C46.1027 34.13 47.4482 34.0108 49.0661 34.0108C53.8007 34.0108 56.4405 34.9816 57.0025 35.4925C56.9855 35.5095 56.9685 35.5266 56.9344 35.5606C56.9003 35.5947 56.8492 35.6287 56.7982 35.6628C56.73 35.6969 56.6449 35.748 56.5597 35.799C56.4916 35.8331 56.4064 35.8672 56.3213 35.9012C56.2191 35.9523 56.0999 36.0034 55.9636 36.0375C55.8615 36.0715 55.7593 36.1056 55.6401 36.1567C55.4868 36.2078 55.3335 36.2589 55.1632 36.2929C55.0269 36.327 54.9077 36.3611 54.7544 36.4122C54.5671 36.4633 54.3457 36.4973 54.1413 36.5484C53.988 36.5825 53.8348 36.6165 53.6474 36.6506C53.409 36.6847 53.1365 36.7357 52.881 36.7698C52.6937 36.7868 52.5234 36.8209 52.336 36.8379C52.0295 36.872 51.6718 36.9061 51.3312 36.9231C51.1609 36.9401 50.9906 36.9571 50.8033 36.9571C50.2583 36.9912 49.6792 37.0082 49.0661 37.0082C48.453 37.0082 47.8739 36.9912 47.3289 36.9571C47.1416 36.9401 46.9883 36.9231 46.801 36.9231C46.4604 36.889 46.1027 36.872 45.7962 36.8379C45.6088 36.8209 45.4385 36.7868 45.2512 36.7698C44.9787 36.7357 44.7232 36.7017 44.4848 36.6506C44.3145 36.6165 44.1612 36.5825 43.9909 36.5484C43.7695 36.4973 43.5651 36.4633 43.3778 36.4122C43.2245 36.3781 43.1053 36.344 42.969 36.2929C42.7987 36.2419 42.6284 36.1908 42.4922 36.1567C42.3729 36.1226 42.2708 36.0715 42.1686 36.0375C42.0494 35.9864 41.9131 35.9353 41.8109 35.9012C41.7258 35.8672 41.6576 35.8331 41.5725 35.799C41.4873 35.748 41.4022 35.7139 41.3341 35.6628C41.283 35.6287 41.2319 35.5947 41.1978 35.5606C41.1637 35.5436 41.1637 35.5265 41.1297 35.4925C41.1637 35.4925 41.1637 35.4755 41.1808 35.4755ZM42.0323 52.6426C42.0323 52.6767 42.0153 52.7108 42.0153 52.7278C41.9983 52.9151 41.9642 53.0854 41.9301 53.2728C41.9301 53.2898 41.9131 53.3069 41.9131 53.3239C41.862 53.5112 41.8109 53.6986 41.7598 53.8859C41.7598 53.8859 41.7598 53.9029 41.7428 53.9029C41.6747 54.0903 41.6066 54.2946 41.5214 54.482C40.5677 56.5598 38.4899 58.0074 36.0545 58.0074C32.7675 58.0074 30.0936 55.3506 30.0596 52.0806C30.0596 51.9955 30.0596 51.9273 30.0596 51.8422C30.0596 51.74 30.0596 51.6208 30.0766 51.5186C30.0766 51.4334 30.0936 51.3313 30.1107 51.2461C30.1277 51.1609 30.1447 51.0588 30.1447 50.9736C30.1958 50.7181 30.2469 50.4627 30.3321 50.2072C30.3321 50.1732 30.3491 50.1561 30.3661 50.1221C30.4513 49.8666 30.5535 49.6282 30.6727 49.3897C30.6897 49.3727 30.6897 49.3386 30.7068 49.3216C31.2517 48.2657 32.1033 47.3631 33.1251 46.784C33.1251 46.784 33.1251 46.784 33.1422 46.784C33.3806 46.6478 33.619 46.5456 33.8745 46.4434C33.9426 46.4093 34.0108 46.3923 34.0789 46.3753C34.3003 46.2901 34.5217 46.222 34.7601 46.1709C34.7942 46.1709 34.8282 46.1539 34.8623 46.1539C35.1518 46.1028 35.4414 46.0687 35.7309 46.0517C35.782 46.0517 35.8331 46.0517 35.9012 46.0517C36.1907 46.0346 36.4973 46.0517 36.7868 46.0857C36.8038 46.0857 36.8209 46.0857 36.8379 46.0857C37.1444 46.1198 37.451 46.1879 37.7405 46.2731H37.7576C38.0641 46.3582 38.3707 46.4774 38.6602 46.6137C38.9327 46.7499 39.1882 46.8862 39.4436 47.0565L39.4777 47.0906C39.5117 47.1076 39.5458 47.1417 39.5799 47.1587C39.7502 47.2779 39.9035 47.3971 40.0567 47.5334C40.0908 47.5674 40.1249 47.6015 40.1589 47.6355C40.3122 47.7718 40.4655 47.9251 40.6017 48.0784C40.6188 48.0954 40.6358 48.1124 40.6358 48.1294C40.9594 48.5041 41.2319 48.9129 41.4533 49.3557C41.5044 49.4579 41.5555 49.56 41.6066 49.6622C41.6747 49.8325 41.7428 50.0199 41.8109 50.1902C41.8109 50.2072 41.828 50.2242 41.828 50.2242C41.879 50.4116 41.9301 50.5819 41.9812 50.7692C41.9812 50.7863 41.9812 50.8033 41.9983 50.8203C42.0323 51.0077 42.0664 51.195 42.0834 51.3824C42.0834 51.3994 42.0834 51.4164 42.0834 51.4334C42.1005 51.6378 42.1175 51.8422 42.1175 52.0466C42.0664 52.2169 42.0664 52.4212 42.0323 52.6426ZM49.0661 55.0099C47.1757 55.0099 45.2852 54.7545 43.7184 54.3117C43.8206 53.9881 43.8887 53.6475 43.9398 53.3069C43.9568 53.2217 43.9739 53.1536 43.9739 53.0684C44.0249 52.7278 44.059 52.3701 44.059 52.0295C44.059 51.7741 44.042 51.5186 44.0249 51.2631C44.0079 51.178 44.0079 51.0758 43.9909 50.9906C43.9739 50.8544 43.9568 50.7352 43.9398 50.5989C45.4555 50.8714 47.2268 51.0247 49.0661 51.0247C51.4504 51.0247 54.9077 50.7182 57.0706 49.7644V52.9492C56.8322 53.5453 53.7837 55.0099 49.0661 55.0099ZM50.1901 48.981C49.8325 48.998 49.4748 49.0151 49.0831 49.0151C46.8861 49.0151 44.7062 48.6744 43.0372 48.0784C43.0372 48.0613 43.0201 48.0613 43.0201 48.0443C42.9009 47.8399 42.7817 47.6355 42.6454 47.4482C42.6284 47.4141 42.5943 47.3971 42.5773 47.3631C42.4581 47.1927 42.3219 47.0224 42.1856 46.8521C42.1515 46.801 42.1004 46.7499 42.0494 46.7159C41.9301 46.5796 41.7939 46.4434 41.6747 46.3071C41.6066 46.239 41.5384 46.1879 41.4703 46.1198C41.3511 46.0176 41.2319 45.9154 41.1127 45.8132C41.0956 45.7962 41.0956 45.7962 41.0786 45.7792C41.0786 45.3875 41.0786 44.5189 41.0786 43.4289C41.1297 43.463 41.1978 43.48 41.2489 43.497C41.4192 43.5822 41.5895 43.6503 41.7598 43.7355C41.845 43.7695 41.9472 43.8036 42.0323 43.8547C42.2026 43.9228 42.39 43.9909 42.5603 44.042C42.6625 44.0761 42.7476 44.1101 42.8498 44.1442C43.0542 44.2123 43.2756 44.2634 43.497 44.3315C43.5821 44.3486 43.6503 44.3826 43.7354 44.3997C44.042 44.4678 44.3485 44.5529 44.6721 44.604C44.7402 44.6211 44.8084 44.6211 44.8765 44.6381C45.132 44.6892 45.3874 44.7233 45.6599 44.7743C45.7791 44.7914 45.8813 44.8084 46.0005 44.8254C46.2219 44.8595 46.4433 44.8765 46.6818 44.9106C46.801 44.9276 46.9202 44.9276 47.0394 44.9447C47.2779 44.9617 47.5163 44.9787 47.7547 44.9958C47.8569 44.9958 47.9591 45.0128 48.0783 45.0128C48.4189 45.0298 48.7595 45.0298 49.1002 45.0298C49.4408 45.0298 49.7814 45.0128 50.122 45.0128C50.2242 45.0128 50.3434 44.9958 50.4456 44.9958C50.684 44.9787 50.9225 44.9617 51.1439 44.9447C51.2631 44.9276 51.3823 44.9276 51.5186 44.9106C51.74 44.8936 51.9614 44.8595 52.1828 44.8254C52.302 44.8084 52.4212 44.7914 52.5234 44.7743C52.7788 44.7403 53.0343 44.6892 53.2898 44.6381C53.3579 44.6211 53.426 44.6211 53.5112 44.604C53.8348 44.5359 54.1413 44.4678 54.4309 44.3997C54.516 44.3826 54.6012 44.3486 54.6863 44.3315C54.9077 44.2805 55.1121 44.2123 55.3165 44.1442C55.4186 44.1101 55.5208 44.0761 55.606 44.042C55.7933 43.9739 55.9636 43.9228 56.1339 43.8547C56.2191 43.8206 56.3213 43.7866 56.4064 43.7355C56.5938 43.6673 56.7641 43.5822 56.9174 43.497C56.9685 43.463 57.0366 43.4459 57.0706 43.4289V46.9543C56.8492 47.4993 54.2605 48.7766 50.1901 48.981ZM49.0661 43.0031C44.3656 43.0031 41.3341 41.5555 41.0786 41.0105C41.0786 39.8694 41.0786 38.7113 41.0786 37.7576C41.0956 37.7746 41.1297 37.7746 41.1637 37.7917C41.4022 37.8938 41.6576 37.996 41.9131 38.0812C41.9301 38.0812 41.9472 38.0982 41.9642 38.0982C42.2367 38.1834 42.5262 38.2685 42.8157 38.3367C42.9179 38.3537 43.0031 38.3877 43.1053 38.4048C43.3267 38.4559 43.531 38.507 43.7524 38.541C43.8546 38.5581 43.9739 38.5751 44.076 38.6091C44.3145 38.6602 44.5699 38.6943 44.8084 38.7284C44.8935 38.7454 44.9616 38.7454 45.0468 38.7624C45.3704 38.8135 45.694 38.8476 46.0176 38.8816C46.1027 38.8816 46.1708 38.8987 46.256 38.8987C46.5115 38.9157 46.7499 38.9327 46.9883 38.9498C47.0905 38.9498 47.1927 38.9668 47.2949 38.9668C47.5163 38.9838 47.7377 38.9838 47.9591 39.0009C48.0443 39.0009 48.1464 39.0009 48.2316 39.0179C48.5211 39.0179 48.8106 39.0349 49.0831 39.0349C49.3556 39.0349 49.6452 39.0349 49.9347 39.0179C50.0198 39.0179 50.122 39.0179 50.2072 39.0009C50.4286 39.0009 50.633 38.9838 50.8544 38.9668C50.9565 38.9668 51.0587 38.9498 51.1609 38.9498C51.3993 38.9327 51.6548 38.9157 51.8932 38.8987C51.9784 38.8987 52.0465 38.8816 52.1317 38.8816C52.4553 38.8476 52.7788 38.8135 53.1024 38.7624C53.1876 38.7454 53.2557 38.7454 53.3409 38.7284C53.5793 38.6943 53.8348 38.6602 54.0732 38.6091C54.1754 38.5921 54.2946 38.5751 54.3968 38.541C54.6182 38.4899 54.8396 38.4559 55.044 38.4048C55.1462 38.3877 55.2483 38.3537 55.3335 38.3367C55.64 38.2685 55.9296 38.1834 56.2021 38.0982C56.2191 38.0982 56.2361 38.0812 56.2361 38.0812C56.4916 37.996 56.7471 37.8938 56.9855 37.7917C57.0196 37.7746 57.0536 37.7746 57.0706 37.7576V40.9424C56.8322 41.5555 53.7837 43.0031 49.0661 43.0031Z" fill="#A2A2A2"/>
</g>
<defs>
<clipPath id="clip0">
<rect width="59.0633" height="60" fill="white"/>
</clipPath>
</defs>
</svg>
