<svg width="60" height="60" viewBox="0 0 60 60" fill="none" xmlns="http://www.w3.org/2000/svg">
<g clip-path="url(#clip0)">
<path d="M20.2229 13.418C20.2463 13.418 20.2698 13.418 20.2933 13.418C20.9858 12.8672 28.6383 5.89453 28.6383 5.89453C28.9552 5.60156 29.0139 5.10938 28.7675 4.74609V4.73438L25.8449 0.398438C25.6806 0.152344 25.3989 0 25.1055 0H15.6219C15.3285 0 15.0468 0.152344 14.8825 0.398438L11.9482 4.75781C11.7017 5.12109 11.7604 5.60156 12.0773 5.90625C12.0891 5.89453 19.683 12.7969 20.2229 13.418ZM20.3637 11.1445L14.9529 6.12891H25.7745L20.3637 11.1445ZM16.1031 1.78125H24.636L26.3614 4.34766H14.366L16.1031 1.78125Z" fill="#A2A2A2"/>
<path d="M59.4248 34.8516C58.2863 30.1641 55.5046 26.0391 51.5961 23.2148C47.8872 20.5312 43.3567 19.1601 38.8027 19.3476C36.7018 14.8476 33.0515 11.2969 28.4506 9.30468C28.0046 9.10546 27.4764 9.3164 27.2769 9.76171C27.0774 10.207 27.2886 10.7344 27.7346 10.9336C32.1008 12.832 35.5398 16.2656 37.4177 20.6133C37.8285 21.5625 38.1572 22.5586 38.4037 23.5547C38.4741 23.8242 38.5328 24.0937 38.5914 24.3984C39.4835 28.9453 38.6384 33.6328 36.2323 37.5937C33.9436 41.3437 30.4459 44.1328 26.3145 45.5273C26.244 45.3633 26.1736 45.1875 26.1032 45.0117C25.9741 44.6836 25.8567 44.3437 25.7511 44.0039C25.7393 43.9805 25.7393 43.9453 25.7276 43.9219C25.6807 43.7578 25.6337 43.5937 25.5868 43.4297V43.418C33.3684 40.8164 38.075 32.7187 36.3731 24.6211C36.3262 24.4219 36.291 24.2578 36.2558 24.0937C35.9623 22.8867 35.5281 21.7148 34.9764 20.6016C34.9764 20.6016 34.9764 20.6016 34.9764 20.5898C34.9764 20.5781 34.9647 20.5781 34.9647 20.5664C33.3332 17.3437 30.622 14.7187 27.3238 13.1719C26.2792 12.6797 25.1877 12.3164 24.0727 12.0586C23.3567 12.4922 22.6994 12.9844 22.0422 13.5C23.5915 13.6758 25.1055 14.1094 26.5609 14.7891C29.19 16.0195 31.3966 18.0234 32.8755 20.4844C28.3098 22.0898 24.4835 25.2422 22.0304 29.4609C19.7299 33.4219 18.8497 37.9687 19.4835 42.457C16.6079 42.2812 13.8145 41.2383 11.514 39.4805C8.84967 37.4414 7.03042 34.6523 6.2323 31.3945C4.33089 23.6016 9.13136 15.7266 16.9365 13.8281C17.5351 13.6875 18.122 13.582 18.7206 13.5117C18.1337 12.9726 17.4647 12.5156 16.8192 12.0351C16.7135 12.0586 16.6196 12.082 16.514 12.1055C7.73464 14.2383 2.34732 23.0859 4.48347 31.8281C5.36375 35.4375 7.46469 38.6601 10.4107 40.9101C13.1102 42.9844 16.4201 44.1562 19.8004 44.2734C19.8121 44.3437 19.8356 44.4141 19.8473 44.4844C19.8825 44.6484 19.9295 44.8125 19.9764 44.9648C19.9882 45 19.9999 45.0351 20.0116 45.082C20.0469 45.2109 20.0821 45.3398 20.1173 45.4687C20.129 45.5039 20.1407 45.5391 20.1525 45.5742C20.1994 45.7148 20.2346 45.8437 20.2816 45.9844C20.2933 46.0078 20.2933 46.0312 20.3051 46.0547C20.352 46.2187 20.4107 46.3711 20.4694 46.5351C16.5492 46.5586 12.6994 45.3281 9.48347 43.0195C5.90366 40.4414 3.35671 36.6562 2.31211 32.3672C1.26751 28.0898 1.78394 23.5664 3.76751 19.6406C5.7276 15.75 9.00225 12.668 12.9694 10.957C13.4154 10.7578 13.6267 10.2422 13.4389 9.78515C13.2393 9.33984 12.7229 9.1289 12.2652 9.3164C7.9107 11.1914 4.31915 14.5781 2.17126 18.832C-9.81523e-05 23.1328 -0.563478 28.0898 0.575019 32.7773C1.72525 37.4766 4.51868 41.625 8.43887 44.4492C11.9248 46.957 16.1032 48.3047 20.352 48.3047C20.6337 48.3047 20.9037 48.293 21.1853 48.2812C24.5304 55.4297 31.7839 60 39.6361 60C41.2323 60 42.8403 59.8125 44.46 59.4141C55.3637 56.7656 62.0774 45.75 59.4248 34.8516ZM37.7581 38.5312C40.2112 34.5 41.1853 29.8008 40.5281 25.1601C43.4271 25.3359 46.244 26.3906 48.568 28.1836C51.1971 30.2109 53.0046 33 53.791 36.2226C55.6924 44.0156 50.8919 51.8906 43.0868 53.7891C39.3074 54.7031 35.399 54.1055 32.0774 52.0898C30.0234 50.8359 28.345 49.1484 27.1478 47.1328C31.5609 45.5859 35.3051 42.5508 37.7581 38.5312ZM25.2112 41.6719C24.7534 38.4375 25.399 35.1562 27.0774 32.3086C28.8379 29.3203 31.5375 27.1055 34.7769 25.9687C35.7393 32.7773 31.7135 39.375 25.2112 41.6719ZM44.0375 57.6914C42.5703 58.0547 41.0914 58.2187 39.6361 58.2187C32.2417 58.2187 25.4342 53.7773 22.5234 46.8984C22.4882 46.8281 22.4647 46.7461 22.4295 46.6758C22.4177 46.6406 22.406 46.6172 22.3943 46.582C22.3591 46.4883 22.3238 46.3945 22.2769 46.3008C22.2769 46.2891 22.2652 46.2773 22.2652 46.2539C22.2182 46.1484 22.183 46.0312 22.1478 45.9258V45.9141C22.1008 45.7969 22.0656 45.6797 22.0187 45.5508C21.9835 45.4336 21.9365 45.3047 21.9013 45.1875C21.9013 45.1758 21.9013 45.1758 21.8896 45.1641C21.8544 45.0469 21.8192 44.9414 21.7839 44.8242C21.7722 44.7891 21.7605 44.7539 21.7487 44.707C21.7253 44.625 21.7018 44.5312 21.6783 44.4492C21.6431 44.3203 21.6079 44.1914 21.5844 44.0625C21.5492 43.9336 21.5257 43.8047 21.4905 43.6758C21.4788 43.6289 21.467 43.5703 21.4553 43.5234C21.4436 43.4648 21.4318 43.4062 21.4201 43.3476C21.4084 43.3125 21.4084 43.2656 21.3966 43.2305V43.2187C20.5398 38.8125 21.291 34.2891 23.5562 30.3867C25.8332 26.4609 29.413 23.543 33.6853 22.1133C33.9905 22.793 34.237 23.4961 34.4248 24.2226C30.6924 25.4766 27.5586 28.0078 25.5398 31.4297C23.4741 34.9453 22.8051 39.0469 23.6384 43.0312C23.6501 43.1016 23.6736 43.1719 23.6853 43.2422C23.7088 43.3476 23.7323 43.4531 23.7558 43.5469C23.791 43.6875 23.8262 43.8398 23.8731 43.9805C23.8849 44.0156 23.8966 44.0508 23.9084 44.0859C23.9436 44.1914 23.967 44.3086 24.0022 44.4141C24.014 44.4492 24.0257 44.4844 24.0375 44.5078C24.0727 44.625 24.1079 44.7422 24.1431 44.8594C24.1548 44.8828 24.1548 44.9062 24.1666 44.9297C24.2135 45.0586 24.2605 45.1992 24.3074 45.3281V45.3398C25.575 48.7851 27.9576 51.6914 31.1501 53.625C33.744 55.1953 36.6548 56.0039 39.6126 56.0039C40.9154 56.0039 42.2182 55.8516 43.5093 55.5351C52.2652 53.4023 57.6525 44.5664 55.5163 35.8242C54.636 32.2031 52.6055 29.0742 49.6595 26.7891C46.9483 24.6914 43.6032 23.4844 40.1994 23.3672C40.1877 23.2969 40.1642 23.2266 40.1525 23.1562C39.9882 22.4648 39.7769 21.7851 39.5422 21.1172C43.4741 21.0937 47.3473 22.3359 50.5633 24.6562C54.1196 27.2344 56.6548 31.0078 57.6994 35.2851C60.1173 45.2109 53.9905 55.2656 44.0375 57.6914Z" fill="#D6AA6D"/>
</g>
<defs>
<clipPath id="clip0">
<rect width="60" height="60" fill="white"/>
</clipPath>
</defs>
</svg>
