<svg width="60" height="60" viewBox="0 0 60 60" fill="none" xmlns="http://www.w3.org/2000/svg">
<g clip-path="url(#clip0)">
<path d="M59.0039 51.1055C58.5 51.1406 58.125 51.5742 58.125 52.0781C58.125 53.5664 58.125 57.9492 58.125 58.1133H11.9062V38.8359C11.9062 38.3437 11.5078 37.9336 11.0039 37.9336C10.4648 37.9336 10.0195 38.3672 10.0195 38.918V59.0508C10.0195 59.5781 10.4414 60 10.9687 60H59.0625C59.5898 60 60.0117 59.5781 60.0117 59.0508V52.043C60 51.5039 59.543 51.0703 59.0039 51.1055Z" fill="white"/>
<path d="M59.7305 13.3008L49.6992 3.28125C49.5234 3.10547 49.2891 3.01172 49.0312 3.01172H30.8555C30.3516 3.01172 29.9414 3.42187 29.9414 3.92578C29.9414 4.46484 30.375 4.89844 30.9141 4.89844H48.1055C48.1055 4.92187 48.1055 4.94531 48.1055 4.95703V13.9805C48.1055 14.4961 48.5273 14.918 49.043 14.918H58.0664C58.0898 14.918 58.1133 14.918 58.125 14.918V47.0508C58.125 47.5898 58.582 48.0234 59.1211 47.9883C59.625 47.9531 60 47.5195 60 47.0156V13.9688C60 13.7227 59.9063 13.4766 59.7305 13.3008ZM49.9805 13.0312V6.21094L56.7891 13.0195H49.9805V13.0312Z" fill="white"/>
<path d="M23.2383 43.0898H16.9805C16.4648 43.0898 16.043 43.5117 16.043 44.0273C16.043 44.543 16.4648 44.9648 16.9805 44.9648H23.2383C23.7539 44.9648 24.1758 44.543 24.1758 44.0273C24.1758 43.5117 23.7539 43.0898 23.2383 43.0898Z" fill="white"/>
<path d="M23.2383 48.1055H16.9805C16.4648 48.1055 16.043 48.5273 16.043 49.043C16.043 49.5586 16.4648 49.9805 16.9805 49.9805H23.2383C23.7539 49.9805 24.1758 49.5586 24.1758 49.043C24.1758 48.5156 23.7539 48.1055 23.2383 48.1055Z" fill="white"/>
<path d="M55.6992 22.1481L50.5781 17.2848C50.2031 16.9215 49.6055 16.945 49.2539 17.32C48.9023 17.695 48.914 18.2926 49.289 18.6442L53.707 22.8395L52.9219 23.6247L39.4219 10.1247C39.2929 9.99576 39.1289 9.90201 38.9414 9.86686L35.4609 9.17545L33.7851 7.32389C33.4336 6.93717 32.8476 6.91373 32.4609 7.25358C32.0742 7.60514 32.0508 8.19107 32.3906 8.57779C32.3906 8.57779 34.3242 10.6872 34.3828 10.734L34.9922 13.8044C35.0273 13.9919 35.1211 14.1559 35.25 14.2848L50.2148 29.2497C50.7656 29.8004 51.4805 30.07 52.207 30.07C52.9336 30.07 53.6484 29.8004 54.1992 29.2497L54.375 29.0739C55.4765 27.9723 55.4765 26.1911 54.375 25.0895L54.2578 24.9606L55.7226 23.4958C56.0859 23.1325 56.0742 22.5114 55.6992 22.1481ZM36.7851 13.1598L36.4101 11.2731L38.2969 11.6481L47.3555 20.7067L45.8555 22.2067L36.7851 13.1598ZM53.0625 27.7497L52.8867 27.9254C52.5234 28.2887 51.9258 28.2887 51.5625 27.9254L47.1797 23.5426L48.6797 22.0426L53.0625 26.4254C53.4258 26.7887 53.4258 27.3864 53.0625 27.7497Z" fill="white"/>
<path d="M27.9375 3.01172V2.8125C27.9375 1.25391 26.6719 0 25.1133 0H2.8125C1.26563 0 0 1.26562 0 2.8125V33.1289C0 34.6875 1.26563 35.9414 2.8125 35.9414H9C9.01172 35.9414 9.03516 35.9414 9.04687 35.9414H12.1523C12.1758 35.9414 12.1875 35.9414 12.1992 35.9414H25.1016C26.6602 35.9414 27.9141 34.6758 27.9141 33.1289V16.9687C27.9141 16.4531 27.4922 16.0312 26.9766 16.0312C26.4609 16.0312 26.0391 16.4531 26.0391 16.9687V33.1289C26.0391 33.6445 25.6172 34.0664 25.1016 34.0664H2.8125C2.29687 34.0664 1.875 33.6445 1.875 33.1289V2.8125C1.875 2.29687 2.29687 1.875 2.8125 1.875H25.1133C25.6289 1.875 26.0508 2.29687 26.0508 2.8125V11.9531C26.0508 12.4687 26.4727 12.8906 26.9883 12.8906C27.5039 12.8906 27.9258 12.4687 27.9258 11.9531V4.88672H27.9375V3.01172V3.01172Z" fill="white"/>
<path d="M23.9883 3.01172H3.94922C3.43359 3.01172 3.01172 3.43359 3.01172 3.94922V8.96484C3.01172 9.48046 3.43359 9.90234 3.94922 9.90234H23.9883C24.5039 9.90234 24.9258 9.48046 24.9258 8.96484V3.94922C24.9258 3.42187 24.5039 3.01172 23.9883 3.01172ZM23.0508 8.01562H4.88672V4.88672H23.0508V8.01562Z" fill="white"/>
<path d="M7.95703 11.0273H3.94922C3.43359 11.0273 3.01172 11.4492 3.01172 11.9648V15.9727C3.01172 16.4883 3.43359 16.9101 3.94922 16.9101H7.95703C8.47266 16.9101 8.89453 16.4883 8.89453 15.9727V11.9648C8.89453 11.4492 8.47266 11.0273 7.95703 11.0273ZM7.01953 15.0352H4.88672V12.9023H7.01953V15.0352V15.0352Z" fill="white"/>
<path d="M15.9727 11.0273H11.9648C11.4492 11.0273 11.0273 11.4492 11.0273 11.9648V15.9727C11.0273 16.4883 11.4492 16.9101 11.9648 16.9101H15.9727C16.4883 16.9101 16.9101 16.4883 16.9101 15.9727V11.9648C16.9101 11.4492 16.4883 11.0273 15.9727 11.0273ZM15.0352 15.0352H12.9023V12.9023H15.0352V15.0352Z" fill="white"/>
<path d="M23.9883 11.0273H19.9805C19.4648 11.0273 19.043 11.4492 19.043 11.9648V15.9727C19.043 16.4883 19.4648 16.9101 19.9805 16.9101H23.9883C24.5039 16.9101 24.9258 16.4883 24.9258 15.9727V11.9648C24.9258 11.4492 24.5039 11.0273 23.9883 11.0273ZM23.0508 15.0352H20.918V12.9023H23.0508V15.0352Z" fill="white"/>
<path d="M7.95703 19.043H3.94922C3.43359 19.043 3.01172 19.4648 3.01172 19.9805V23.9883C3.01172 24.5039 3.43359 24.9258 3.94922 24.9258H7.95703C8.47266 24.9258 8.89453 24.5039 8.89453 23.9883V19.9805C8.89453 19.4648 8.47266 19.043 7.95703 19.043ZM7.01953 23.0508H4.88672V20.918H7.01953V23.0508V23.0508Z" fill="white"/>
<path d="M15.9727 19.043H11.9648C11.4492 19.043 11.0273 19.4648 11.0273 19.9805V23.9883C11.0273 24.5039 11.4492 24.9258 11.9648 24.9258H15.9727C16.4883 24.9258 16.9101 24.5039 16.9101 23.9883V19.9805C16.9101 19.4648 16.4883 19.043 15.9727 19.043ZM15.0352 23.0508H12.9023V20.918H15.0352V23.0508Z" fill="white"/>
<path d="M7.95703 27.0586H3.94922C3.43359 27.0586 3.01172 27.4805 3.01172 27.9961V32.0039C3.01172 32.5195 3.43359 32.9414 3.94922 32.9414H7.95703C8.47266 32.9414 8.89453 32.5195 8.89453 32.0039V27.9961C8.89453 27.4805 8.47266 27.0586 7.95703 27.0586ZM7.01953 31.0664H4.88672V28.9336H7.01953V31.0664V31.0664Z" fill="white"/>
<path d="M15.9727 27.0586H11.9648C11.4492 27.0586 11.0273 27.4805 11.0273 27.9961V32.0039C11.0273 32.5195 11.4492 32.9414 11.9648 32.9414H15.9727C16.4883 32.9414 16.9101 32.5195 16.9101 32.0039V27.9961C16.9101 27.4805 16.4883 27.0586 15.9727 27.0586ZM15.0352 31.0664H12.9023V28.9336H15.0352V31.0664Z" fill="white"/>
<path d="M23.9883 19.043H19.9805C19.4648 19.043 19.043 19.4648 19.043 19.9805V32.0039C19.043 32.5195 19.4648 32.9414 19.9805 32.9414H23.9883C24.5039 32.9414 24.9258 32.5195 24.9258 32.0039V19.9805C24.9258 19.4648 24.5039 19.043 23.9883 19.043ZM23.0508 31.0664H20.918V20.918H23.0508V31.0664Z" fill="white"/>
<path d="M42.0234 29.0625C38.1797 29.0625 34.6055 30.5859 31.9453 33.3633C31.582 33.7383 31.5937 34.3359 31.9687 34.6875C32.3437 35.0508 32.9414 35.0391 33.293 34.6641C35.5898 32.2617 38.6953 30.9492 42.0117 30.9492C48.6797 30.9492 54.0938 36.375 54.0938 43.0313C54.0938 49.6875 48.668 55.1133 42.0117 55.1133C35.3555 55.1133 29.9414 49.6875 29.9414 43.0313C29.9414 41.0625 30.3984 39.1875 31.3008 37.4531C31.5352 36.9961 31.3594 36.4219 30.9023 36.1875C30.4453 35.9531 29.8711 36.1289 29.6367 36.5859C28.6055 38.5664 28.0664 40.793 28.0664 43.0313C28.0664 50.7305 34.3359 57 42.0352 57C49.7344 57 56.0039 50.7305 56.0039 43.0313C56.0039 35.332 49.7227 29.0625 42.0234 29.0625Z" fill="white"/>
<path d="M44.168 42.2109L42.7148 42.1641V36.9492H46.0312C46.5469 36.9492 46.9687 36.5273 46.9687 36.0117C46.9687 35.4961 46.5469 35.0742 46.0312 35.0742H42.7148V34.0078C42.7148 33.4922 42.293 33.0703 41.7773 33.0703C41.2617 33.0703 40.8398 33.4922 40.8398 34.0078V35.0742H39.9023C38.3438 35.0742 37.0898 36.3398 37.0898 37.8867V41.1445C37.0898 42.6914 38.3437 43.957 39.8906 43.957L40.8398 43.9805V49.1016H38.0273C37.5117 49.1016 37.0898 49.5234 37.0898 50.0391C37.0898 50.5547 37.5117 50.9766 38.0273 50.9766H40.8398V52.043C40.8398 52.5586 41.2617 52.9805 41.7773 52.9805C42.293 52.9805 42.7148 52.5586 42.7148 52.043V50.9766H44.1562C45.7148 50.9766 46.9687 49.7109 46.9687 48.1641V45.0352C46.9687 43.4766 45.7148 42.2227 44.168 42.2109ZM40.8398 42.1172L39.9258 42.0938C39.9141 42.0938 39.9023 42.0938 39.9023 42.0938C39.3867 42.0938 38.9648 41.6719 38.9648 41.1563V37.8984C38.9648 37.3828 39.3867 36.9609 39.9023 36.9609H40.8398V42.1172ZM45.0937 48.1641C45.0937 48.6797 44.6719 49.1016 44.1562 49.1016H42.7148V44.0508L44.1328 44.0977C44.1445 44.0977 44.1562 44.0977 44.1562 44.0977C44.6719 44.0977 45.0937 44.5195 45.0937 45.0352V48.1641Z" fill="white"/>
</g>
<defs>
<clipPath id="clip0">
<rect width="60" height="60" fill="white"/>
</clipPath>
</defs>
</svg>
