<svg width="60" height="60" viewBox="0 0 60 60" fill="none" xmlns="http://www.w3.org/2000/svg">
<g clip-path="url(#clip0)">
<path d="M53.283 47.307C52.9696 46.9921 52.4474 47.0971 52.2385 47.412C51.9252 47.8319 51.5074 48.0419 51.0896 48.0419C50.6718 48.0419 50.254 47.8319 49.9407 47.412C49.6273 47.0971 49.2095 46.9921 48.8962 47.307C48.5828 47.622 48.4784 48.0419 48.7917 48.3568C49.4184 49.0917 50.254 49.5116 51.0896 49.5116C52.0296 49.5116 52.8652 49.0917 53.3874 48.3568C53.7008 48.0419 53.5963 47.622 53.283 47.307Z" fill="#A2A2A2" stroke="#A2A2A2" stroke-width="0.25"/>
<path d="M48.4784 45.2075C48.8962 45.2075 49.2096 44.8925 49.2096 44.4726C49.2096 44.0527 48.8962 43.7378 48.4784 43.7378C48.0607 43.7378 47.7473 44.0527 47.7473 44.4726C47.7473 44.8925 48.0607 45.2075 48.4784 45.2075Z" fill="#A2A2A2" stroke="#A2A2A2" stroke-width="0.25"/>
<path d="M53.5966 45.2075C54.0144 45.2075 54.3277 44.8925 54.3277 44.4726C54.3277 44.0527 54.0144 43.7378 53.5966 43.7378C53.1788 43.7378 52.8655 44.0527 52.8655 44.4726C52.8655 44.8925 53.1788 45.2075 53.5966 45.2075Z" fill="#A2A2A2" stroke="#A2A2A2" stroke-width="0.25"/>
<path d="M60.5946 43.5278C60.5946 42.793 60.2813 42.0581 59.7591 41.6382V40.9034C59.7591 40.5884 59.7591 40.2735 59.7591 39.9586C59.6546 38.8038 59.2368 37.859 59.2368 37.859C58.819 36.5993 58.0879 35.5495 57.1479 34.6047V31.2454C57.1479 31.0354 57.0434 30.8255 56.939 30.7205C56.7301 30.4055 56.3123 30.4055 55.9989 30.5105L51.0899 32.925C51.0899 32.925 47.9565 31.3503 46.1809 30.5105C45.6587 30.3006 45.032 30.6155 45.032 31.2454V33.8698V34.7096C43.4653 36.2843 42.4208 38.4889 42.4208 40.9034V41.6382C41.8986 42.0581 41.5852 42.793 41.5852 43.5278C41.5852 44.2627 42.1074 44.9975 42.1074 44.9975C42.5252 45.6274 43.2564 46.0473 44.0919 46.0473H44.1964V46.1523C44.1964 48.6718 45.5542 50.9813 47.6432 52.136V53.3958C47.6432 53.3958 47.6432 53.5008 47.5387 53.5008L44.7186 54.4456C43.3608 54.8655 42.4208 56.2302 42.4208 57.6999V60.1144C42.4208 60.5343 42.7341 60.9542 43.1519 60.9542C43.5697 60.9542 43.9875 60.6393 43.9875 60.2194V57.6999C43.9875 56.8601 44.5097 56.2302 45.2409 55.9153L46.0764 55.6003C47.2254 57.28 49.001 58.2248 51.0899 58.2248C53.0744 58.2248 54.9545 57.175 56.1034 55.6003L56.939 55.9153C57.6701 56.1252 58.1923 56.8601 58.1923 57.6999V60.1144C58.1923 60.5343 58.5057 60.9542 58.9235 60.9542C59.3413 60.9542 59.7591 60.6393 59.7591 60.2194V57.6999C59.7591 56.2302 58.819 54.9705 57.4612 54.4456L54.6411 53.5008L54.5367 53.3958V52.136C56.1034 51.2962 57.2523 49.7215 57.7745 48.0419C58.0879 47.0971 58.1923 46.0473 58.1923 46.0473C59.4457 46.0473 60.5946 44.8925 60.5946 43.5278ZM55.4767 32.5051V35.2345L52.7611 33.8698L55.4767 32.5051ZM46.5987 32.5051L49.3143 33.8698L46.5987 35.2345V32.5051ZM54.5367 55.0754C53.7011 56.1252 52.4477 56.7551 51.0899 56.7551C49.7321 56.7551 48.4787 56.1252 47.6432 55.0754L48.1654 54.8655C48.7921 54.6555 49.3143 54.0257 49.3143 53.2908V52.6609C49.941 52.8709 50.5677 52.8709 51.1944 52.8709C51.821 52.8709 52.4477 52.7659 53.0744 52.6609V53.2908C53.0744 54.0257 53.4922 54.6555 54.2233 54.8655L54.5367 55.0754ZM57.9834 44.4726H57.1479C56.7301 44.4726 56.4167 44.7876 56.4167 45.2075V45.9423V46.0473C56.4167 48.9867 54.0144 51.4012 51.0899 51.4012C48.1654 51.4012 45.7631 48.9867 45.7631 46.0473V45.2075C45.7631 44.7876 45.4498 44.4726 45.032 44.4726H44.1964C43.6742 44.4726 43.2564 44.0527 43.2564 43.5278C43.2564 43.2129 43.4653 42.898 43.7786 42.688C43.883 42.688 43.8831 42.583 43.9875 42.583C45.8676 42.583 52.0299 42.1631 55.9989 39.8536C56.4167 39.6436 56.5212 39.2237 56.3123 38.8038C56.1034 38.3839 55.6856 38.2789 55.2678 38.4889C51.7166 40.4835 46.1809 40.9034 44.1964 41.0083V40.9034C44.1964 39.4337 44.6142 38.069 45.4498 36.9142C45.5542 37.0192 45.5542 37.1241 45.6587 37.1241C45.7631 37.2291 45.972 37.2291 46.0764 37.2291C46.1809 37.2291 46.2853 37.2291 46.3898 37.1241L51.2988 34.7096L56.2078 37.1241C56.3123 37.1241 56.4167 37.2291 56.5212 37.2291C56.6256 37.2291 56.8345 37.2291 56.939 37.1241C57.0434 37.0192 57.1479 37.0192 57.1479 36.9142C57.9834 38.069 58.4012 39.4337 58.4012 40.9034V42.0581C58.4012 42.3731 58.5057 42.583 58.819 42.688C59.1324 42.898 59.3413 43.2129 59.3413 43.5278C59.0279 44.0527 58.6101 44.4726 57.9834 44.4726Z" fill="#A2A2A2" stroke="#A2A2A2" stroke-width="0.25"/>
<path d="M56.4587 21.1525H0.910624C0.404722 21.1525 0 21.5593 0 22.0678V48.8135C0 49.4237 0.404722 49.8305 0.910624 49.8305H38.6509C39.1568 49.8305 39.5616 49.4237 39.5616 48.9152C39.5616 48.4068 39.1568 48 38.6509 48H1.92243V23.0847H55.5481V25.5254C55.5481 26.0339 55.9528 26.4407 56.4587 26.4407C56.9646 26.4407 57.3693 26.0339 57.3693 25.5254V22.1695C57.3693 21.661 56.9646 21.1525 56.4587 21.1525Z" fill="#D6AA6D"/>
<path d="M49.9831 16.7796L5.56488 6.71185C5.36252 6.71185 5.05898 6.71185 4.85662 6.81355C4.65426 7.01694 4.55308 7.22033 4.4519 7.42372L2.22593 17.4915C2.12475 18 2.42829 18.5085 2.93419 18.6102C3.44009 18.7119 3.946 18.4068 4.04718 17.8983L6.07079 8.84745L49.5784 18.6102C49.6796 18.6102 49.6796 18.6102 49.7807 18.6102C50.2866 18.6102 50.6914 18.2034 50.6914 17.6949C50.6914 17.2881 50.3878 16.8813 49.9831 16.7796Z" fill="#D6AA6D"/>
<path d="M44.6204 11.1864L18.01 -1.26511e-05C17.5041 -0.203402 16.9982 -1.26585e-05 16.7959 0.406767L14.5699 4.88134C14.3675 5.38982 14.4687 5.89829 14.9746 6.20338C15.4805 6.40677 15.9864 6.30507 16.2899 5.7966C16.2899 5.7966 16.2899 5.7966 16.2899 5.6949L18.1112 2.03389L43.9122 12.8135C44.4181 13.0169 44.924 12.8135 45.1263 12.3051C45.3287 12 45.1263 11.3898 44.6204 11.1864Z" fill="#D6AA6D"/>
<path d="M45.2275 25.6271H36.4248C35.9189 25.6271 35.5142 26.0339 35.5142 26.5424C35.5142 27.0508 35.9189 27.4576 36.4248 27.4576H45.2275C45.7334 27.4576 46.1381 27.0508 46.1381 26.5424C46.1381 26.0339 45.8346 25.6271 45.2275 25.6271Z" fill="#D6AA6D"/>
<path d="M27.6221 25.7288C22.2596 25.7288 17.8076 30.1017 17.8076 35.5932C17.8076 40.983 22.1584 45.3559 27.6221 45.4576C32.9847 45.4576 37.4366 41.0847 37.4366 35.5932C37.4366 30.1017 32.9847 25.7288 27.6221 25.7288ZM27.6221 43.5254C23.1702 43.5254 19.6289 39.9661 19.6289 35.4915C19.6289 31.0169 23.1702 27.4576 27.6221 27.4576C32.0741 27.4576 35.6154 31.0169 35.6154 35.4915C35.6154 39.9661 31.9729 43.5254 27.6221 43.5254Z" fill="#D6AA6D"/>
<path d="M18.7184 43.5254H10.3205L6.37444 39.1525V31.9322L10.7252 27.661H18.7184C19.2243 27.661 19.6291 27.2542 19.6291 26.7458C19.6291 26.2373 19.2243 25.8305 18.7184 25.8305H10.3205C10.1181 25.8305 9.81457 25.9322 9.61221 26.1356L4.65437 31.0169C4.45201 31.2203 4.35083 31.5254 4.35083 31.8305V39.7627C4.35083 39.9661 4.45201 40.2712 4.55319 40.3729L9.10631 45.3559C9.30867 45.5593 9.51103 45.661 9.81457 45.661H18.6173C19.1232 45.661 19.5279 45.2542 19.5279 44.7458C19.6291 43.9322 19.2243 43.5254 18.7184 43.5254Z" fill="#D6AA6D"/>
<path d="M23.5751 38.9492H25.194V40.2712C25.194 40.3729 25.194 40.3729 25.2952 40.4746C25.2952 40.4746 25.3964 40.5763 25.4976 40.5763H26.7117C26.8129 40.5763 26.8129 40.5763 26.9141 40.4746C26.9141 40.4746 27.0153 40.3729 27.0153 40.2712V38.9492H30.3542C30.4554 38.9492 30.4554 38.9492 30.5566 38.8475C30.5566 38.8475 30.6578 38.7458 30.6578 38.6441V37.7288C30.6578 37.6271 30.6578 37.6271 30.5566 37.5254C30.5566 37.5254 30.4554 37.4237 30.3542 37.4237H26.8129V36.6102H29.2413C30.1519 36.6102 30.9613 36.3051 31.5684 35.6949C32.1755 35.0847 32.479 34.3729 32.479 33.4576C32.479 32.5424 32.1755 31.8305 31.5684 31.2203C30.9613 30.6102 30.1519 30.3051 29.2413 30.3051H25.3964C25.2952 30.3051 25.2952 30.3051 25.194 30.4068C25.194 30.4068 25.0928 30.5085 25.0928 30.6102V35.0847H23.474C23.3728 35.0847 23.3728 35.0847 23.2716 35.1864C23.2716 35.1864 23.1704 35.2881 23.1704 35.3898V36.4068C23.1704 36.5085 23.1704 36.5085 23.2716 36.6102C23.2716 36.6102 23.3728 36.7119 23.474 36.7119H25.0928V37.6271H23.474C23.3728 37.6271 23.3728 37.6271 23.2716 37.7288C23.2716 37.7288 23.1704 37.8305 23.1704 37.9322V38.8475C23.1704 38.9492 23.1704 38.9492 23.2716 39.0508C23.474 38.9492 23.474 38.9492 23.5751 38.9492ZM26.8129 32.0339H29.0389C29.5448 32.0339 29.9495 32.1356 30.2531 32.4407C30.5566 32.7458 30.759 33.1525 30.759 33.5593C30.759 34.0678 30.5566 34.3729 30.2531 34.678C29.9495 34.983 29.5448 35.0847 29.0389 35.0847H26.8129V32.0339Z" fill="#D6AA6D"/>
</g>
<defs>
<clipPath id="clip0">
<rect width="60" height="60" fill="white"/>
</clipPath>
</defs>
</svg>
