<svg width="60" height="60" viewBox="0 0 60 60" fill="none" xmlns="http://www.w3.org/2000/svg">
<path d="M48.3872 7.74194H50.3227C50.3227 6.67742 51.1937 5.80646 52.2582 5.80646C52.7299 5.80646 53.1896 5.97581 53.5525 6.30242L54.8469 4.86291C54.1332 4.22178 53.2259 3.87097 52.2703 3.87097C50.1291 3.87097 48.3872 5.61291 48.3872 7.74194Z" fill="#A2A2A2"/>
<path d="M15.4839 9.67743H38.7097V11.6129H15.4839V9.67743Z" fill="#A2A2A2"/>
<path d="M15.4839 13.5484H21.2903V15.4839H15.4839V13.5484Z" fill="#A2A2A2"/>
<path d="M26.5525 38.1532C26.6977 36.8589 26.2501 35.5887 25.3307 34.6694C24.4114 33.75 23.1412 33.3024 21.859 33.4476H21.8106C21.0364 33.5202 20.2743 33.1936 19.7783 32.5887C18.9678 31.5726 17.7582 30.9919 16.4517 30.9919C15.1453 30.9919 13.9356 31.5726 13.1251 32.5887C12.6291 33.2177 11.8549 33.5323 11.0566 33.4476C9.7622 33.3024 8.49204 33.75 7.57268 34.6694C6.65333 35.5887 6.20575 36.8589 6.35091 38.1411V38.1895C6.42349 38.9637 6.09688 39.7258 5.49204 40.2218C4.47591 41.0323 3.89526 42.2419 3.89526 43.5484C3.89526 44.8548 4.47591 46.0645 5.49204 46.875C6.12107 47.3831 6.43559 48.1452 6.35091 48.9436C6.20575 50.2379 6.65333 51.5081 7.57268 52.4274C8.49204 53.3468 9.7622 53.7944 11.0445 53.6492H11.0928C11.867 53.5766 12.6291 53.9032 13.1251 54.5081C13.9356 55.5242 15.1574 56.1048 16.4517 56.1048C17.7461 56.1048 18.9678 55.5242 19.7783 54.5081C20.2743 53.879 21.0606 53.5645 21.8469 53.6492C23.1412 53.7944 24.4114 53.3468 25.3307 52.4274C26.2501 51.5081 26.6977 50.2379 26.5525 48.9557V48.9073C26.4799 48.1331 26.8066 47.371 27.4114 46.875C28.4275 46.0645 29.0082 44.8427 29.0082 43.5484C29.0082 42.254 28.4275 41.0323 27.4114 40.2218C26.7824 39.7258 26.4678 38.9516 26.5525 38.1532ZM26.8066 46.125L26.2017 45.375C25.0646 46.2944 24.4719 47.7097 24.6291 49.1613V49.2097C24.6896 49.8992 24.4477 50.5766 23.9517 51.0726C23.4437 51.5686 22.7541 51.8226 22.0525 51.7379C20.6009 51.5807 19.1856 52.1613 18.2662 53.3105C17.3711 54.4234 15.5203 54.4234 14.6251 53.3105C13.8025 52.2944 12.5928 51.7137 11.3106 51.7137C11.1533 51.7137 10.9961 51.7258 10.8509 51.7379H10.8025C10.113 51.7984 9.43559 51.5565 8.93962 51.0605C8.43155 50.5524 8.18962 49.8629 8.2743 49.1613C8.43155 47.7097 7.85091 46.2944 6.70172 45.375C6.14526 44.9274 5.83075 44.2621 5.83075 43.5605C5.83075 42.8468 6.14526 42.1815 6.70172 41.746C7.83881 40.8266 8.43155 39.4113 8.2743 37.9597V37.9113C8.21381 37.2218 8.45575 36.5444 8.95172 36.0484C9.45978 35.5403 10.1372 35.2984 10.8509 35.3831C12.3025 35.5403 13.7178 34.9597 14.6372 33.8105C15.5324 32.6976 17.3832 32.6976 18.2783 33.8105C19.1977 34.9476 20.613 35.5403 22.0646 35.3831H22.113C22.8146 35.3226 23.4799 35.5645 23.9759 36.0605C24.484 36.5686 24.7259 37.2581 24.6412 37.9597C24.484 39.4113 25.0646 40.8266 26.2138 41.746C26.7703 42.1936 27.0848 42.8589 27.0848 43.5605C27.0848 44.2621 26.7703 44.9274 26.2138 45.375L26.8066 46.125Z" fill="#A2A2A2"/>
<path d="M3.87085 21.2903H17.4192V23.2258H3.87085V21.2903Z" fill="#A2A2A2"/>
<path d="M7.74194 25.1613H17.4194V27.0968H7.74194V25.1613Z" fill="#A2A2A2"/>
<path d="M3.87085 25.1613H5.80633V27.0968H3.87085V25.1613Z" fill="#A2A2A2"/>
<path d="M30.9678 54.1935H44.5162V56.129H30.9678V54.1935Z" fill="#A2A2A2"/>
<path d="M42.5806 50.3226H44.5161V52.2581H42.5806V50.3226Z" fill="#A2A2A2"/>
<path d="M30.9678 50.3226H40.6452V52.2581H30.9678V50.3226Z" fill="#A2A2A2"/>
<path d="M30.9678 46.4516H44.5162V48.3871H30.9678V46.4516Z" fill="#A2A2A2"/>
<path d="M30.9678 42.5806H44.5162V44.5161H30.9678V42.5806Z" fill="#A2A2A2"/>
<path d="M17.6855 43.5242L21.7621 39.4476C22.1371 39.0726 22.1371 38.4677 21.7621 38.0927C21.3871 37.7177 20.7822 37.7177 20.4072 38.0927L16.3306 42.1572L12.254 38.0806C11.879 37.7056 11.2742 37.7056 10.8992 38.0806C10.5242 38.4556 10.5242 39.0605 10.8992 39.4355L14.9758 43.5121L10.8992 47.5887C10.5242 47.9637 10.5242 48.5685 10.8992 48.9435C11.2742 49.3185 11.879 49.3185 12.254 48.9435L16.3306 44.879L20.4072 48.9556C20.7822 49.3306 21.3871 49.3306 21.7621 48.9556C22.1371 48.5806 22.1371 47.9758 21.7621 47.6008L17.6855 43.5242Z" fill="#A2A2A2"/>
<path d="M52.2944 0C49.5363 0 46.9718 1.4879 45.6048 3.88306L44.504 5.80645H12.1815L0 17.9879V60H48.3871V18.8105L56.1169 14.3952C58.5121 13.0282 60 10.4637 60 7.70565C60 3.45968 56.5403 0 52.2944 0ZM11.6129 9.10887V17.4194H3.30242L11.6129 9.10887ZM46.4516 58.0645H1.93548V19.3548H13.5484V7.74194H43.4032L39.9677 13.7419L35.1048 15.6895L33.6048 18.6895L32.7339 17.8185C31.2218 16.3065 29.2258 15.4839 27.0968 15.4839C24.9677 15.4839 22.9597 16.3185 21.4597 17.8185L19.9234 19.3548L21.8589 21.2903L18.9556 24.1935L35.8064 41.0444L38.7097 38.1411L40.6452 40.0766L42.1815 38.5403C43.6936 37.0282 44.5161 35.0323 44.5161 32.9032C44.5161 30.7742 43.6814 28.7661 42.1815 27.2661L41.3105 26.3952L44.3105 24.8952L46.2581 20.0323L46.4516 19.9234V58.0645ZM40.8145 28.6331C41.9516 29.7702 42.5806 31.2944 42.5806 32.9032C42.5806 34.5121 41.9516 36.0363 40.8145 37.1734L40.6452 37.3427L22.6573 19.3548L22.8266 19.1855C23.9637 18.0484 25.4879 17.4194 27.0968 17.4194C28.7056 17.4194 30.2298 18.0484 31.3669 19.1855L40.8145 28.6331ZM37.3427 36.7742L35.8064 38.3105L21.6895 24.1935L23.2258 22.6573L37.3427 36.7742ZM55.1613 12.7137L44.7097 18.6895L42.7863 23.504L39.871 24.9677L35.0564 20.1532L36.5202 17.2379L41.3347 15.3145L47.2863 4.83871C48.3145 3.04839 50.2258 1.93548 52.2944 1.93548C55.4758 1.93548 58.0645 4.52419 58.0645 7.70565C58.0645 9.77419 56.9516 11.6855 55.1613 12.7137Z" fill="#D6AA6D"/>
</svg>
