<svg width="60" height="60" viewBox="0 0 60 60" fill="none" xmlns="http://www.w3.org/2000/svg">
<g clip-path="url(#clip0)">
<path d="M19.1133 21.5172C18.7363 21.2113 18.1828 21.2691 17.8771 21.6461C17.5032 22.1071 17.007 22.3609 16.4796 22.3609C15.9523 22.3609 15.456 22.1071 15.0821 21.6461C14.7765 21.2691 14.2229 21.2114 13.8459 21.5172C13.4689 21.8229 13.4113 22.3764 13.717 22.7534C14.4206 23.6209 15.4275 24.1186 16.4795 24.1186C17.5315 24.1186 18.5384 23.6209 19.2422 22.7534C19.5479 22.3764 19.4903 21.8229 19.1133 21.5172Z" fill="white"/>
<path d="M12.3193 16.1206C11.8339 16.1206 11.4404 16.5141 11.4404 16.9995V18.0396C11.4404 18.5249 11.8339 18.9185 12.3193 18.9185C12.8047 18.9185 13.1982 18.5249 13.1982 18.0396V16.9995C13.1982 16.5141 12.8047 16.1206 12.3193 16.1206Z" fill="white"/>
<path d="M20.6397 16.1206C20.1543 16.1206 19.7608 16.5141 19.7608 16.9995V18.0396C19.7608 18.5249 20.1543 18.9185 20.6397 18.9185C21.1251 18.9185 21.5186 18.5249 21.5186 18.0396V16.9995C21.5186 16.5141 21.1251 16.1206 20.6397 16.1206Z" fill="white"/>
<path d="M7.90527 40.5271L5.82518 36.3669C5.60815 35.9327 5.08022 35.7567 4.64604 35.9739C4.21186 36.1909 4.03584 36.7188 4.25299 37.153L6.24026 41.1277V57.5608C6.24026 58.0462 6.63378 58.4397 7.11917 58.4397C7.60456 58.4397 7.99808 58.0462 7.99808 57.5608V40.9201C7.99808 40.7836 7.96632 40.6491 7.90527 40.5271Z" fill="white"/>
<path d="M28.313 35.9739C27.8789 35.7567 27.3509 35.9327 27.1339 36.3669L25.0538 40.5271C24.9928 40.6492 24.961 40.7836 24.961 40.9201V57.5608C24.961 58.0462 25.3545 58.4397 25.8399 58.4397C26.3253 58.4397 26.7188 58.0462 26.7188 57.5608V41.1277L28.7061 37.153C28.9232 36.719 28.7472 36.191 28.313 35.9739Z" fill="white"/>
<path d="M30.1092 32.1313L24.4022 30.4193L23.451 28.9925C23.3127 28.785 23.0927 28.646 22.8459 28.6103C22.7493 28.5962 22.6524 28.599 22.5585 28.6165V27.3109C24.89 25.5845 26.4673 22.8948 26.6913 19.8337C27.9091 19.4672 28.7988 18.3352 28.7988 16.9995C28.7988 16.1349 28.4102 15.3154 27.7587 14.7583V8.67921C27.7587 7.01257 26.9146 5.45362 25.5312 4.5194C25.0689 2.78174 23.5103 1.56006 21.6797 1.56006H13.3594C8.86033 1.56006 5.20021 5.22018 5.20021 9.71925V14.7583C4.54876 15.3154 4.16016 16.1348 4.16016 16.9995C4.16016 18.3352 5.04985 19.4672 6.26767 19.8337C6.49161 22.8948 8.06884 25.5845 10.4004 27.3109V28.6164C10.3065 28.5988 10.2096 28.596 10.1131 28.6102C9.86627 28.646 9.64631 28.7849 9.50791 28.9924L8.5567 30.4192L2.84977 32.1312C1.14528 32.6427 0 34.182 0 35.9617V57.5611C0 58.0465 0.393516 58.4401 0.878908 58.4401C1.3643 58.4401 1.75782 58.0465 1.75782 57.5611V35.9617C1.75782 34.9643 2.39977 34.1016 3.35508 33.8149L7.28111 32.6371C7.28873 32.8194 7.35306 32.9994 7.47283 33.1491L11.0032 37.5621C11.3835 38.0374 11.938 38.2855 12.4998 38.2855C12.9007 38.2855 13.3055 38.1591 13.653 37.8985L15.6005 36.4378V57.5609C15.6005 58.0463 15.994 58.4398 16.4794 58.4398C16.9648 58.4398 17.3583 58.0463 17.3583 57.5609V36.4378L19.3059 37.8985C19.6533 38.1591 20.058 38.2855 20.459 38.2855C21.0208 38.2855 21.5754 38.0373 21.9556 37.5621L25.486 33.1491C25.606 32.9994 25.6702 32.8194 25.6779 32.6371L29.604 33.8149C30.5593 34.1016 31.2012 34.9643 31.2012 35.9617C31.2012 36.4471 31.5947 36.8406 32.0801 36.8406C32.5655 36.8406 32.959 36.4471 32.959 35.9617C32.959 34.182 31.8138 32.6427 30.1092 32.1313ZM7.99806 19.0796C7.99806 18.5942 7.60455 18.2007 7.11915 18.2007C6.45681 18.2007 5.91798 17.6619 5.91798 16.9995C5.91798 16.5732 6.14345 16.1874 6.52115 15.9676C6.5406 15.9562 6.55829 15.9429 6.57669 15.9302C6.74392 15.8452 6.92943 15.7984 7.11915 15.7984H8.34658C9.25818 15.7984 10.0496 15.1496 10.2283 14.2558L10.8678 11.0587C10.8767 11.0141 10.9 10.9801 10.9369 10.9577C10.966 10.9401 11.0141 10.9234 11.0786 10.9422C12.6398 11.3976 14.5074 11.6382 16.4795 11.6382C19.0103 11.6382 21.3467 11.2448 23.0583 10.5303C23.5062 10.3433 23.7177 9.82859 23.5308 9.38058C23.3438 8.93269 22.8292 8.72128 22.3811 8.90808C20.9009 9.52589 18.7498 9.88027 16.4794 9.88027C14.6973 9.88027 12.954 9.65808 11.5708 9.25461C11.0494 9.10261 10.4863 9.17527 10.0259 9.45429C9.57025 9.73039 9.24881 10.1895 9.14392 10.7141L8.50443 13.9111C8.48943 13.9861 8.42299 14.0406 8.34646 14.0406H7.11915C7.06537 14.0406 7.01169 14.0429 6.95802 14.0458V9.71925C6.95802 6.18956 9.82971 3.31787 13.3594 3.31787H21.6797C22.7822 3.31787 23.7086 4.11241 23.8824 5.20706C23.9245 5.4719 24.0851 5.70311 24.3187 5.83483C25.3564 6.42007 26.0009 7.50991 26.0009 8.67921V15.208C26.0009 15.5209 26.1673 15.8102 26.4378 15.9676C26.8155 16.1874 27.041 16.5732 27.041 16.9995C27.041 17.6619 26.5021 18.2007 25.8398 18.2007C25.3544 18.2007 24.9609 18.5942 24.9609 19.0796C24.9609 23.7564 21.1561 27.5611 16.4794 27.5611C11.8027 27.5611 7.99806 23.7562 7.99806 19.0796ZM12.5984 36.4923C12.5283 36.5449 12.4307 36.5324 12.376 36.4641L9.24693 32.5528L10.428 30.7813L15.0631 34.6438L12.5984 36.4923ZM16.4795 33.5361L12.1582 29.9351V28.3601C13.472 28.9743 14.936 29.3189 16.4795 29.3189C18.023 29.3189 19.487 28.9744 20.8008 28.3601V29.9351L16.4795 33.5361ZM20.5831 36.4641C20.5284 36.5325 20.4307 36.5448 20.3607 36.4923L17.896 34.6439L22.5311 30.7814L23.7121 32.5529L20.5831 36.4641Z" fill="white"/>
<path d="M13.3698 43.1616H13.3594C12.874 43.1616 12.4857 43.5551 12.4857 44.0405C12.4857 44.5259 12.8843 44.9194 13.3697 44.9194C13.8551 44.9194 14.2486 44.5259 14.2486 44.0405C14.2486 43.5551 13.8552 43.1616 13.3698 43.1616Z" fill="white"/>
<path d="M13.3698 51.4819H13.3594C12.874 51.4819 12.4857 51.8755 12.4857 52.3608C12.4857 52.8462 12.8843 53.2397 13.3697 53.2397C13.8551 53.2397 14.2486 52.8462 14.2486 52.3608C14.2486 51.8755 13.8552 51.4819 13.3698 51.4819Z" fill="white"/>
<path d="M13.3698 47.3218H13.3594C12.874 47.3218 12.4857 47.7153 12.4857 48.2007C12.4857 48.6861 12.8843 49.0796 13.3697 49.0796C13.8551 49.0796 14.2486 48.6861 14.2486 48.2007C14.2486 47.7153 13.8552 47.3218 13.3698 47.3218Z" fill="white"/>
<path d="M47.1944 26.7174C46.8174 26.4115 46.2639 26.4693 45.9582 26.8463C45.5844 27.3073 45.0881 27.5611 44.5607 27.5611C44.0334 27.5611 43.5371 27.3073 43.1633 26.8463C42.8576 26.4693 42.304 26.4116 41.9271 26.7174C41.5501 27.0231 41.4924 27.5766 41.7981 27.9536C42.5019 28.8213 43.5089 29.3188 44.5608 29.3188C45.6128 29.3188 46.6195 28.8213 47.3233 27.9536C47.6291 27.5766 47.5714 27.0231 47.1944 26.7174Z" fill="white"/>
<path d="M40.4005 21.3213C39.9151 21.3213 39.5215 21.7148 39.5215 22.2002V23.2402C39.5215 23.7256 39.9151 24.1191 40.4005 24.1191C40.8858 24.1191 41.2794 23.7256 41.2794 23.2402V22.2002C41.2794 21.7147 40.8858 21.3213 40.4005 21.3213Z" fill="white"/>
<path d="M48.7208 21.3213C48.2354 21.3213 47.8419 21.7148 47.8419 22.2002V23.2402C47.8419 23.7256 48.2354 24.1191 48.7208 24.1191C49.2062 24.1191 49.5997 23.7256 49.5997 23.2402V22.2002C49.5997 21.7148 49.2062 21.3213 48.7208 21.3213Z" fill="white"/>
<path d="M57.4863 39.3201L50.3548 36.4674C49.8961 36.284 49.5997 35.8461 49.5997 35.3521V33.192C50.0877 32.9166 50.5544 32.6014 50.9931 32.2468C52.7789 30.8034 54.0407 28.7818 54.5461 26.5547C54.7145 25.8125 54.7999 25.0472 54.7999 24.2798C54.7999 19.1605 51.0917 18.4243 47.5058 17.7124C45.2124 17.2571 42.841 16.7863 40.9495 15.2731C40.7425 15.1075 40.4716 15.0447 40.2129 15.1013C39.954 15.1578 39.7341 15.3286 39.6148 15.5653C39.6099 15.575 39.1175 16.5444 38.2847 17.4883C37.5793 18.2878 36.4715 19.2408 35.2002 19.2408C34.7726 19.2408 34.3664 19.3326 33.999 19.4966V18.0396C33.999 12.2159 38.7369 7.47804 44.5605 7.47804C50.3842 7.47804 55.1221 12.2159 55.1221 18.0396V20.1197C55.1221 20.6051 55.5156 20.9986 56.001 20.9986C56.4864 20.9986 56.8799 20.6051 56.8799 20.1197V18.0396C56.8799 13.432 54.3369 9.40789 50.581 7.29499C50.6191 7.06507 50.6396 6.83257 50.6396 6.59913C50.6396 3.82061 47.9126 1.56006 44.5605 1.56006C41.2085 1.56006 38.4814 3.82061 38.4814 6.59913C38.4814 6.83269 38.5017 7.06519 38.5399 7.29511C34.7841 9.408 32.2412 13.4321 32.2412 18.0396V22.1997C32.2412 23.5355 33.1309 24.6674 34.3488 25.0339C34.3863 25.547 34.4619 26.056 34.5751 26.5547C35.0805 28.7818 36.3424 30.8034 38.1281 32.2468C38.5667 32.6014 39.0335 32.9166 39.5214 33.192V35.3521C39.5214 35.8461 39.2251 36.2838 38.7664 36.4674L31.6349 39.3199C30.1079 39.9307 29.1212 41.3882 29.1212 43.0329V48.2014C29.1212 48.4346 29.2139 48.6582 29.3787 48.823C29.5435 48.9878 29.767 49.0803 30.0001 49.0803C30.0002 49.0803 30.0003 49.0803 30.0005 49.0803H30.1612V57.5613C30.1612 58.0467 30.5547 58.4402 31.0401 58.4402C31.5255 58.4402 31.919 58.0467 31.919 57.5613V49.0798H34.3214V57.5613C34.3214 58.0467 34.7149 58.4402 35.2003 58.4402C35.6857 58.4402 36.0792 58.0467 36.0792 57.5613V46.1208C36.0792 45.6354 35.6857 45.2419 35.2003 45.2419C34.7149 45.2419 34.3214 45.6354 34.3214 46.1208V47.322H31.0401C31.04 47.322 31.0399 47.322 31.0396 47.322H30.879V43.0329C30.879 42.1111 31.432 41.2943 32.2878 40.952L37.8338 38.7336C38.57 39.9812 40.6596 43.0729 44.1675 44.8268C44.2912 44.8887 44.4259 44.9196 44.5605 44.9196C44.6952 44.9196 44.8298 44.8887 44.9536 44.8268C48.4615 43.0729 50.5512 39.9812 51.2872 38.7336L56.8334 40.9521C57.6892 41.2944 58.2422 42.1114 58.2422 43.033V47.3221H58.0811H54.7998V46.1209C54.7998 45.6355 54.4063 45.242 53.9209 45.242C53.4355 45.242 53.042 45.6355 53.042 46.1209V57.5614C53.042 58.0468 53.4355 58.4403 53.9209 58.4403C54.4063 58.4403 54.7998 58.0468 54.7998 57.5614V49.0799H57.2021V57.5614C57.2021 58.0468 57.5957 58.4403 58.0811 58.4403C58.5664 58.4403 58.96 58.0468 58.96 57.5614V49.0799H59.1211C59.6065 49.0799 60 48.6864 60 48.201V43.033C60.0001 41.3884 59.0134 39.931 57.4863 39.3201ZM44.5606 3.31811C46.9005 3.31811 48.8106 4.73772 48.8787 6.50222C47.5342 5.99737 46.0793 5.72046 44.5606 5.72046C43.042 5.72046 41.587 5.99737 40.2426 6.50222C40.3107 4.73772 42.2208 3.31811 44.5606 3.31811ZM39.2332 30.8801C37.7532 29.6837 36.7078 28.0096 36.2893 26.1658C36.1498 25.5512 36.0792 24.9166 36.0792 24.2801C36.0792 23.7947 35.6857 23.4012 35.2003 23.4012C34.5379 23.4012 33.9991 22.8623 33.9991 22.2C33.9991 21.5376 34.5379 20.9988 35.2003 20.9988C37.8655 20.9988 39.7986 18.5854 40.6715 17.2352C42.7213 18.5549 45.0656 19.0203 47.1635 19.4369C51.0264 20.2038 53.0421 20.7675 53.0421 24.2802C53.0421 24.9169 52.9713 25.5513 52.832 26.166C52.4136 28.0097 51.3681 29.6838 49.8881 30.8801C48.3653 32.111 46.5231 32.7616 44.5606 32.7616C42.5982 32.7616 40.756 32.111 39.2332 30.8801ZM44.5606 43.0479C41.9089 41.5832 40.2032 39.2131 39.4897 38.0684C40.5788 37.6002 41.2794 36.5434 41.2794 35.3522V33.9758C42.3306 34.3314 43.4394 34.5193 44.5606 34.5193C45.6819 34.5193 46.7907 34.3314 47.8419 33.9758V35.3522C47.8419 36.5434 48.5424 37.6001 49.6316 38.0683C48.9177 39.2135 47.212 41.5834 44.5606 43.0479Z" fill="white"/>
</g>
<defs>
<clipPath id="clip0">
<rect width="60" height="60" fill="white"/>
</clipPath>
</defs>
</svg>
