<svg width="54" height="62" viewBox="0 0 54 62" fill="none" xmlns="http://www.w3.org/2000/svg">
<path d="M13.3987 21.6422C13.7737 21.9469 14.3245 21.8883 14.6292 21.5133C14.9808 21.0797 15.4495 20.8336 15.9534 20.8336C16.4573 20.8336 16.9261 21.0797 17.2776 21.5133C17.5823 21.8883 18.1331 21.9469 18.5081 21.6422C18.8831 21.3375 18.9417 20.7867 18.637 20.4117C17.9573 19.568 16.9729 19.0875 15.9417 19.0875C14.9104 19.0875 13.9378 19.568 13.2464 20.4117C12.9651 20.7867 13.0237 21.3375 13.3987 21.6422Z" fill="#D6AA6D"/>
<path d="M11.9297 14.0665C11.4492 14.0665 11.0508 14.4649 11.0508 14.9454V15.9532C11.0508 16.4337 11.4492 16.8321 11.9297 16.8321C12.4102 16.8321 12.8086 16.4337 12.8086 15.9532V14.9454C12.8086 14.4532 12.4102 14.0665 11.9297 14.0665Z" fill="#D6AA6D"/>
<path d="M19.957 14.0665C19.4766 14.0665 19.0781 14.4649 19.0781 14.9454V15.9532C19.0781 16.4337 19.4766 16.8321 19.957 16.8321C20.4375 16.8321 20.8359 16.4337 20.8359 15.9532V14.9454C20.8359 14.4532 20.4492 14.0665 19.957 14.0665Z" fill="#D6AA6D"/>
<path d="M26.8594 12.7536V6.9043C26.8594 5.28666 26.0391 3.77451 24.7031 2.87191C24.2578 1.18393 22.7344 0 20.9648 0H12.9258C8.56641 0 5.01562 3.55179 5.01562 7.9124V12.7536C4.40625 13.2811 4.00781 14.0665 4.00781 14.9457C4.00781 16.2468 4.86328 17.337 6.04688 17.7003C6.26953 20.6543 7.79297 23.2449 10.0312 24.9094V27.3359L2.76562 29.5162C1.11328 30.0202 0 31.5207 0 33.2555V43.0669C0 43.5475 0.398438 43.9461 0.878906 43.9461H1.00781V54.1208C1.00781 54.6014 1.40625 55 1.88672 55C2.36719 55 2.76562 54.6014 2.76562 54.1208V43.9461H6.02344V54.1208C6.02344 54.6014 6.42188 55 6.90234 55C7.38281 55 7.78125 54.6014 7.78125 54.1208V38.9525C7.78125 38.1788 7.55859 37.4403 7.125 36.7956L5.625 34.545C5.35547 34.1464 4.80469 34.0292 4.40625 34.2988C4.00781 34.5684 3.89062 35.1194 4.16016 35.5179L5.66016 37.7685C5.89453 38.1202 6.02344 38.5305 6.02344 38.9525V42.1878H1.75781V33.2555C1.75781 32.3061 2.36719 31.4855 3.28125 31.2159L6.29297 30.3133C7.34766 34.7091 11.332 37.9327 15.9375 37.9327C17.0156 37.9327 18.5273 37.6865 19.5352 37.3583L19.0078 35.6C18.1172 35.9282 16.8984 36.1743 15.9375 36.1743C12.1172 36.1743 8.8125 33.4783 7.98047 29.8092L10.1484 29.1528C10.6875 31.8606 13.0781 33.912 15.9375 33.912C17.6836 33.912 19.2539 33.15 20.332 31.9427L18.9727 30.8291C18.2109 31.6496 17.1328 32.1654 15.9375 32.1654C13.6523 32.1654 11.8008 30.3133 11.8008 28.0392V28.0275V25.9879C13.0664 26.574 14.4609 26.8904 15.9375 26.8904C17.4141 26.8904 18.8203 26.5622 20.0742 25.9879V26.785C20.1094 26.785 20.1328 26.7732 20.168 26.7732H21.7969L21.8438 24.9329C22.2305 24.6515 22.5938 24.335 22.9336 23.9951V21.1818C21.5039 23.5497 18.9023 25.1321 15.9492 25.1321C11.4492 25.1321 7.79297 21.4748 7.79297 16.9736C7.79297 16.493 7.39453 16.0944 6.91406 16.0944C6.29297 16.0944 5.78906 15.5904 5.78906 14.9691C5.78906 14.3478 6.29297 13.8438 6.91406 13.8438H8.91797C9.29297 13.8438 9.63281 13.5976 9.75 13.2459L10.5586 10.7843C12.5742 10.7374 18.8438 10.4561 22.3711 8.68606C22.8047 8.46334 22.9805 7.93585 22.7695 7.50213C22.5469 7.06841 22.0195 6.89258 21.5859 7.10358C17.8008 8.99084 10.0078 9.01428 9.92578 9.01428C9.55078 9.01428 9.21094 9.26044 9.09375 9.61211L8.28516 12.0269H6.90234C6.85547 12.0269 6.82031 12.0269 6.77344 12.0269V7.9124C6.77344 4.52472 9.52734 1.75831 12.9258 1.75831H20.9648C22.0195 1.75831 22.8984 2.52025 23.0625 3.55179C23.1094 3.8214 23.2617 4.04412 23.4961 4.18478C24.4922 4.74744 25.1016 5.79071 25.1016 6.9043V12.0503C25.0547 12.0503 25.0195 12.0503 24.9727 12.0503H23.9648C23.4844 12.0503 23.0859 12.4488 23.0859 12.9295C23.0859 13.4101 23.4844 13.8086 23.9648 13.8086H24.9727C25.5938 13.8086 26.0977 14.3127 26.0977 14.9339C26.0977 15.5552 25.5938 16.0592 24.9727 16.0592C24.4922 16.0592 24.0938 16.4578 24.0938 16.9384C24.0938 16.9736 24.0938 17.0205 24.0938 17.0556C24.0938 17.0791 24.0938 17.1025 24.0938 17.126V18.4271C24.6094 18.6264 25.125 18.8139 25.6289 19.0367C25.7227 18.5912 25.793 18.1458 25.8281 17.6886C27.0117 17.3252 27.8672 16.2234 27.8672 14.9339C27.8672 14.0665 27.4805 13.2811 26.8594 12.7536Z" fill="#D6AA6D"/>
<path d="M28.4576 41.7338C28.8326 42.0385 29.3833 41.9799 29.688 41.6049C30.0396 41.1713 30.5083 40.9252 31.0123 40.9252C31.5162 40.9252 31.9849 41.1713 32.3365 41.6049C32.6412 41.9799 33.1919 42.0385 33.5669 41.7338C33.9419 41.4291 34.0005 40.8783 33.6958 40.5034C33.0162 39.6596 32.0318 39.1791 31.0005 39.1791C29.9693 39.1791 28.9966 39.6596 28.3052 40.5034C28.024 40.8783 28.0826 41.4291 28.4576 41.7338Z" fill="#A2A2A2"/>
<path d="M28.0078 36.9123C28.4932 36.9123 28.8867 36.5188 28.8867 36.0334C28.8867 35.548 28.4932 35.1545 28.0078 35.1545C27.5224 35.1545 27.1289 35.548 27.1289 36.0334C27.1289 36.5188 27.5224 36.9123 28.0078 36.9123Z" fill="#A2A2A2"/>
<path d="M33.9844 36.9123C34.4698 36.9123 34.8633 36.5188 34.8633 36.0334C34.8633 35.548 34.4698 35.1545 33.9844 35.1545C33.499 35.1545 33.1055 35.548 33.1055 36.0334C33.1055 36.5188 33.499 36.9123 33.9844 36.9123Z" fill="#A2A2A2"/>
<path d="M41.9297 35.0256C41.9297 34.1816 41.5547 33.3963 40.9219 32.8453V32.0131C40.9219 31.6614 40.8984 31.3097 40.8633 30.9581C40.7227 29.6569 40.3125 28.6019 40.3125 28.6019C39.8086 27.207 38.9883 25.941 37.9102 24.8977V20.9943C37.9102 20.7833 37.8398 20.5723 37.7109 20.4082C37.4414 20.0917 36.9961 20.0096 36.6445 20.1855L31.0078 22.9988C31.0078 22.9988 27.375 21.2287 25.3711 20.2675C24.7852 19.9862 24.1055 20.4199 24.1055 21.0646V24.0889C24.1055 24.1006 24.1055 24.1124 24.1055 24.1124V24.886C22.2773 26.7147 21.0938 29.2349 21.0938 32.0013V32.8336C20.4609 33.3728 20.0859 34.1699 20.0859 35.0139C20.0859 35.8227 20.6484 36.7136 20.6484 36.7136C21.1758 37.4287 22.0195 37.8975 22.9805 37.8975H23.1094V38.0265C23.1094 40.9687 24.7266 43.5476 27.1289 44.9073V46.3374C27.1289 46.396 27.0938 46.4429 27.0469 46.4547L23.7656 47.5448C22.1719 48.0723 21.1055 49.561 21.1055 51.2373V54.0506C21.1055 54.5312 21.4805 54.9532 21.9609 54.9649C22.4531 54.9766 22.8633 54.5781 22.8633 54.0857V51.2373C22.8633 50.3229 23.4492 49.5024 24.3164 49.2093L25.2773 48.8928C26.5547 50.7918 28.6992 51.9523 31.0078 51.9523C33.3281 51.9523 35.4727 50.7918 36.7383 48.8928L37.6992 49.2093C38.5664 49.5024 39.1523 50.3112 39.1523 51.2373V54.0506C39.1523 54.5312 39.5273 54.9532 40.0078 54.9649C40.5 54.9766 40.9102 54.5781 40.9102 54.0857V51.2373C40.9102 49.561 39.8438 48.0723 38.25 47.5448L34.9688 46.4547C34.9219 46.4429 34.8867 46.3843 34.8867 46.3374V44.9073C36.6797 43.8875 38.0391 42.1878 38.6133 40.1599C38.9297 39.0815 39.0586 37.8975 39.0586 37.8975C40.6406 37.9093 41.9297 36.6198 41.9297 35.0256ZM36.1523 22.3892V25.5659L32.9766 23.9717L36.1523 22.3892ZM25.8633 22.3892L29.0391 23.9834L25.8633 25.5776V22.3892ZM34.9805 48.3302C34.0078 49.5141 32.5547 50.2174 30.9961 50.2174C29.4375 50.2174 27.9844 49.5141 27.0117 48.3302L27.5742 48.1426C28.3477 47.8847 28.8633 47.1697 28.8633 46.3609V45.6576C29.543 45.8451 30.2578 45.9506 30.9961 45.9506C31.7344 45.9506 32.4492 45.8451 33.1289 45.6576V46.3609C33.1289 47.1697 33.6445 47.8965 34.418 48.1426L34.9805 48.3302ZM39.0352 36.1627H38.0273C37.5469 36.1627 37.1484 36.5612 37.1484 37.0418V37.921C37.1484 37.9327 37.1484 37.9327 37.1484 37.9444V38.0499C37.1484 41.4376 34.3945 44.204 30.9961 44.204C27.6094 44.204 24.8438 41.4493 24.8438 38.0499V37.0418C24.8438 36.5612 24.4453 36.1627 23.9648 36.1627H22.9688C22.3477 36.1627 21.8438 35.6586 21.8438 35.0373C21.8438 34.6388 22.0547 34.2754 22.4063 34.0644C22.4883 34.0175 22.5586 33.9589 22.6172 33.8886C24.7852 33.83 31.8281 33.4197 36.457 30.7705C36.8789 30.5243 37.0195 29.9969 36.7852 29.5749C36.5391 29.1529 36.0117 29.0122 35.5898 29.2466C31.5352 31.5676 25.1602 32.0248 22.8516 32.1185V32.0131C22.8516 30.3837 23.3438 28.7895 24.2461 27.4649C24.3164 27.5704 24.4102 27.6759 24.5273 27.7462C24.668 27.8283 24.832 27.8752 24.9844 27.8752C25.1133 27.8752 25.2539 27.84 25.3828 27.7814L31.0195 24.9681L36.6562 27.7814C36.7852 27.84 36.9141 27.8752 37.0547 27.8752C37.2188 27.8752 37.3711 27.8283 37.5117 27.7462C37.6289 27.6759 37.7227 27.5821 37.793 27.4649C38.6953 28.8012 39.1875 30.3837 39.1875 32.0131V33.2908C39.1875 33.6073 39.3516 33.8886 39.6211 34.0527C39.9727 34.2637 40.1836 34.6271 40.1836 35.0256C40.1719 35.6586 39.6563 36.1627 39.0352 36.1627Z" fill="#A2A2A2"/>
<circle cx="42" cy="50" r="11.125" fill="white" stroke="#A2A2A2" stroke-width="1.75"/>
<path fill-rule="evenodd" clip-rule="evenodd" d="M43.1885 50L46.7539 46.4347C47.0821 46.1065 47.0821 45.5743 46.7539 45.2462C46.4257 44.918 45.8936 44.918 45.5654 45.2462L42 48.8116L38.4346 45.2461C38.1064 44.918 37.5743 44.918 37.2461 45.2461C36.918 45.5743 36.918 46.1065 37.2461 46.4346L40.8115 50L37.2461 53.5654C36.918 53.8936 36.918 54.4257 37.2461 54.7539C37.5743 55.082 38.1064 55.082 38.4346 54.7539L42 51.1884L45.5654 54.7539C45.8936 55.082 46.4257 55.082 46.7539 54.7539C47.0821 54.4257 47.0821 53.8936 46.7539 53.5654L43.1885 50Z" fill="#A2A2A2"/>
</svg>
