<svg width="60" height="60" viewBox="0 0 60 60" fill="none" xmlns="http://www.w3.org/2000/svg">
<path d="M45 56C45.552 56 46 55.552 46 55V23C46 22.5409 45.687 22.141 45.243 22.03L29.243 18.0299C28.9461 17.9549 28.627 18.0229 28.385 18.2119C28.1419 18.4009 28 18.6919 28 18.9999V40.9998C28 41.5518 28.448 41.9998 29 41.9998C29.5519 41.9998 29.9999 41.5518 29.9999 40.9998V20.281L44 23.781V55C44.0001 55.552 44.4481 56 45 56Z" fill="#D6AA6D"/>
<path d="M59 58H57V51.858C58.72 51.4111 60 49.858 60 48C60 45.7939 58.206 44 56 44C53.7941 44 52.0001 45.794 52.0001 48C52.0001 49.858 53.2801 51.4109 55.0001 51.858V58H30V53.8991C32.2789 53.4341 34 51.415 34 49C34 46.2431 31.757 44 28.9999 44C26.243 44 23.9999 46.243 23.9999 49C23.9999 51.415 25.7209 53.4341 27.9998 53.8991V58H6V47.8991C8.27895 47.4341 9.99996 45.415 9.99996 43C9.99996 40.2431 7.75699 38 4.99992 38C2.24297 38.0001 0 40.2431 0 43C0 45.415 1.72102 47.4341 3.99996 47.8991V58H0.999961C0.448008 58 0 58.448 0 59C0 59.552 0.448008 60.0001 0.999961 60.0001H58.9999C59.5519 60.0001 59.9999 59.5521 59.9999 59.0001C59.9999 58.4482 59.552 58 59 58ZM2.00004 43C2.00004 41.3461 3.34605 40 5.00004 40C6.65402 40 8.00004 41.3461 8.00004 43C8.00004 44.654 6.65402 46 5.00004 46C3.34605 46 2.00004 44.654 2.00004 43ZM26 49C26 47.3461 27.3461 46 29 46C30.654 46 32 47.3461 32 49C32 50.654 30.654 52 29 52C27.3461 52 26 50.654 26 49ZM54 48.0001C54 46.8971 54.897 46 56 46C57.1031 46 58.0001 46.897 58.0001 48.0001C58.0001 49.103 57.1031 50.0001 56 50.0001C54.897 50.0001 54 49.103 54 48.0001Z" fill="#D6AA6D"/>
<path d="M13.0001 26C13.552 26 14 25.552 14 25.0001V17.618L17.447 15.895C17.786 15.7249 18 15.379 18 15V6.61805L23 4.11809L28.0001 6.61805V15C28.0001 15.552 28.4481 16 29 16C29.552 16 30.0001 15.552 30.0001 15V6C30.0001 5.62102 29.7861 5.27496 29.4471 5.10504L24.0001 2.38195V0.999961C24.0001 0.448008 23.5521 0 23.0002 0C22.4482 0 22.0002 0.448008 22.0002 0.999961V2.38195L16.5532 5.10492C16.2142 5.27496 16.0002 5.6209 16.0002 5.99988V14.3818L12.5533 16.1048C12.2142 16.2749 12.0002 16.6208 12.0002 16.9998V24.9998C12.0001 25.552 12.4481 26 13.0001 26Z" fill="#D6AA6D"/>
<path d="M38.0002 39C38.0002 38.448 37.5522 38 37.0002 38C36.4483 38 36.0002 38.448 36.0002 39V41C36.0002 41.5519 36.4483 42 37.0002 42C37.5522 42 38.0002 41.5519 38.0002 41V39Z" fill="#D4D4D4"/>
<path d="M37 50C36.448 50 36 50.448 36 51V54.9999C36 55.5519 36.448 55.9999 37 55.9999C37.5519 55.9999 37.9999 55.5519 37.9999 54.9999V51C38 50.448 37.552 50 37 50Z" fill="#D4D4D4"/>
<path d="M41.9999 27C41.9999 26.448 41.5519 26 41 26C40.448 26 40 26.448 40 27V29C40 29.552 40.448 30 41 30C41.5519 30 41.9999 29.552 41.9999 29V27Z" fill="#D4D4D4"/>
<path d="M38.0002 33C38.0002 32.448 37.5522 32 37.0002 32C36.4483 32 36.0002 32.448 36.0002 33V35C36.0002 35.552 36.4483 36 37.0002 36C37.5522 36 38.0002 35.552 38.0002 35V33Z" fill="#D4D4D4"/>
<path d="M38 45C38 44.448 37.552 44 37.0001 44C36.4481 44 36 44.448 36 45V47C36 47.5519 36.448 48 37 48C37.5519 48 37.9999 47.5519 37.9999 47V45H38Z" fill="#D4D4D4"/>
<path d="M41.9999 33C41.9999 32.448 41.5519 32 41 32C40.448 32 40 32.448 40 33V35C40 35.552 40.448 36 41 36C41.5519 36 41.9999 35.552 41.9999 35V33Z" fill="#D4D4D4"/>
<path d="M33.9999 27C33.9999 26.448 33.5519 26 33 26C32.448 26 32 26.448 32 27V29C32 29.552 32.448 30 33 30C33.5519 30 33.9999 29.552 33.9999 29V27Z" fill="#D4D4D4"/>
<path d="M38.0002 27C38.0002 26.448 37.5522 26 37.0002 26C36.4483 26 36.0002 26.448 36.0002 27V29C36.0002 29.552 36.4483 30 37.0002 30C37.5522 30 38.0002 29.552 38.0002 29V27Z" fill="#D4D4D4"/>
<path d="M41.9999 17V15C41.9999 14.448 41.5519 14 41 14C40.448 14 40 14.448 40 15V17C40 17.552 40.448 18 41 18C41.5519 18 41.9999 17.552 41.9999 17Z" fill="#D4D4D4"/>
<path d="M33.9999 33C33.9999 32.448 33.5519 32 33 32C32.448 32 32 32.448 32 33V35C32 35.552 32.448 36 33 36C33.5519 36 33.9999 35.552 33.9999 35V33Z" fill="#D4D4D4"/>
<path d="M45.9999 15C45.9999 14.448 45.5519 14 45 14C44.448 14 44 14.448 44 15V17C44 17.552 44.448 18 45 18C45.5519 18 45.9999 17.552 45.9999 17V15Z" fill="#D4D4D4"/>
<path d="M33 38C32.448 38 32 38.448 32 39V41C32 41.5519 32.448 42 33 42C33.5519 42 33.9999 41.5519 33.9999 41V39C33.9999 38.448 33.5519 38 33 38Z" fill="#D4D4D4"/>
<path d="M50 45C50 44.448 49.552 44 49.0001 44C48.4481 44 48 44.448 48 45V47C48 47.5519 48.448 48 49 48C49.5519 48 49.9999 47.5519 49.9999 47V45H50Z" fill="#D4D4D4"/>
<path d="M49 50C48.448 50 48 50.448 48 51V54.9999C48 55.5519 48.448 55.9999 49 55.9999C49.5519 55.9999 49.9999 55.5519 49.9999 54.9999V51C50 50.448 49.552 50 49 50Z" fill="#D4D4D4"/>
<path d="M53 38C52.448 38 52 38.448 52 39V41C52 41.5519 52.448 42 53 42C53.5519 42 53.9999 41.5519 53.9999 41V39C53.9999 38.448 53.5519 38 53 38Z" fill="#D4D4D4"/>
<path d="M37 18C37.5519 18 37.9999 17.552 37.9999 17V12.7811L48 10.281V27C48 27.417 48.259 27.79 48.649 27.937L56 30.6931V41C56 41.552 56.448 42 57 42C57.552 42 58 41.552 58 41V30C58 29.5831 57.741 29.21 57.351 29.063L49.9999 26.307V6.99996C49.9999 6.44801 49.5519 6 49 6C48.448 6 48 6.44801 48 6.99996V8.21895L36.757 11.0299C36.3121 11.1409 36 11.541 36 11.9999V16.9999C36 17.552 36.448 18 37 18Z" fill="#D4D4D4"/>
<path d="M53.9999 33C53.9999 32.448 53.5519 32 53 32C52.448 32 52 32.448 52 33V35C52 35.552 52.448 36 53 36C53.5519 36 53.9999 35.552 53.9999 35V33Z" fill="#D4D4D4"/>
<path d="M50.0002 33C50.0002 32.448 49.5522 32 49.0002 32C48.4482 32 48.0002 32.448 48.0002 33V35C48.0002 35.552 48.4482 36 49.0002 36C49.5522 36 50.0002 35.552 50.0002 35V33Z" fill="#D4D4D4"/>
<path d="M41.9999 45C41.9999 44.448 41.5519 44 41 44C40.448 44 40 44.448 40 45V47C40 47.5519 40.448 48 41 48C41.5519 48 41.9999 47.5519 41.9999 47V45Z" fill="#D4D4D4"/>
<path d="M50.0002 39C50.0002 38.448 49.5522 38 49.0002 38C48.4482 38 48.0002 38.448 48.0002 39V41C48.0002 41.5519 48.4482 42 49.0002 42C49.5522 42 50.0002 41.5519 50.0002 41V39Z" fill="#D4D4D4"/>
<path d="M41 50C40.448 50 40 50.448 40 51V54.9999C40 55.5519 40.448 55.9999 41 55.9999C41.5519 55.9999 41.9999 55.5519 41.9999 54.9999V51C41.9999 50.448 41.5519 50 41 50Z" fill="#D4D4D4"/>
<path d="M41.9999 39C41.9999 38.448 41.5519 38 41 38C40.448 38 40 38.448 40 39V41C40 41.5519 40.448 42 41 42C41.5519 42 41.9999 41.5519 41.9999 41V39Z" fill="#D4D4D4"/>
<path d="M21.9999 21C21.9999 20.448 21.5519 20 21 20C20.448 20 20 20.448 20 21V23C20 23.552 20.448 24 21 24C21.5519 24 21.9999 23.552 21.9999 23V21Z" fill="#D4D4D4"/>
<path d="M21.9999 15C21.9999 14.448 21.5519 14 21 14C20.448 14 20 14.448 20 15V17C20 17.552 20.448 18 21 18C21.5519 18 21.9999 17.552 21.9999 17V15Z" fill="#D4D4D4"/>
<path d="M14 45C14 44.448 13.552 44 13.0001 44C12.4481 44 12 44.448 12 45V47C12 47.5519 12.448 48 13 48C13.5519 48 13.9999 47.5519 13.9999 47V45H14Z" fill="#D4D4D4"/>
<path d="M5.00008 35.9999C5.55203 35.9999 6.00004 35.5519 6.00004 35V29.9999H16V54.9999C16 55.5518 16.448 55.9998 17 55.9998C17.5519 55.9998 17.9999 55.5518 17.9999 54.9999V29C17.9999 28.448 17.5519 28 17 28H4.99996C4.44801 28 4 28.448 4 29V35C4 35.5519 4.44801 35.9999 5.00008 35.9999Z" fill="#D4D4D4"/>
<path d="M16 21V23C16 23.552 16.448 24 17 24C17.5519 24 17.9999 23.552 17.9999 23V21C17.9999 20.448 17.5519 20 17 20C16.448 20 16 20.448 16 21Z" fill="#D4D4D4"/>
<path d="M21.9999 8.99996C21.9999 8.44801 21.5519 8 21 8C20.448 8 20 8.44801 20 8.99996V11C20 11.552 20.448 12 21 12C21.5519 12 21.9999 11.552 21.9999 11V8.99996Z" fill="#D4D4D4"/>
<path d="M13 50C12.448 50 12 50.448 12 51V54.9999C12 55.5519 12.448 55.9999 13 55.9999C13.5519 55.9999 13.9999 55.5519 13.9999 54.9999V51C14 50.448 13.552 50 13 50Z" fill="#D4D4D4"/>
<path d="M8 51V54.9999C8 55.5519 8.44801 55.9999 8.99996 55.9999C9.55192 55.9999 9.99992 55.5519 9.99992 54.9999V51C9.99992 50.448 9.55192 50 8.99996 50C8.44801 50 8 50.448 8 51Z" fill="#D4D4D4"/>
<path d="M14.0002 33C14.0002 32.448 13.5522 32 13.0002 32C12.4483 32 12.0002 32.448 12.0002 33V35C12.0002 35.552 12.4483 36 13.0002 36C13.5522 36 14.0002 35.552 14.0002 35V33Z" fill="#D4D4D4"/>
<path d="M14.0002 39C14.0002 38.448 13.5522 38 13.0002 38C12.4483 38 12.0002 38.448 12.0002 39V41C12.0002 41.5519 12.4483 42 13.0002 42C13.5522 42 14.0002 41.5519 14.0002 41V39Z" fill="#D4D4D4"/>
<path d="M8 33V35C8 35.552 8.44801 36 8.99996 36C9.55192 36 9.99992 35.552 9.99992 35V33C9.99992 32.448 9.55192 32 8.99996 32C8.44801 32 8 32.448 8 33Z" fill="#D4D4D4"/>
<path d="M21.9999 39C21.9999 38.448 21.5519 38 21 38C20.448 38 20 38.448 20 39V41C20 41.5519 20.448 42 21 42C21.5519 42 21.9999 41.5519 21.9999 41V39Z" fill="#D4D4D4"/>
<path d="M25.9999 27C25.9999 26.448 25.5519 26 25 26C24.448 26 24 26.448 24 27V29C24 29.552 24.448 30 25 30C25.5519 30 25.9999 29.552 25.9999 29V27Z" fill="#D4D4D4"/>
<path d="M25.9999 21C25.9999 20.448 25.5519 20 25 20C24.448 20 24 20.448 24 21V23C24 23.552 24.448 24 25 24C25.5519 24 25.9999 23.552 25.9999 23V21Z" fill="#D4D4D4"/>
<path d="M25.9999 33C25.9999 32.448 25.5519 32 25 32C24.448 32 24 32.448 24 33V35C24 35.552 24.448 36 25 36C25.5519 36 25.9999 35.552 25.9999 35V33Z" fill="#D4D4D4"/>
<path d="M25 38C24.448 38 24 38.448 24 39V41C24 41.5519 24.448 42 25 42C25.5519 42 25.9999 41.5519 25.9999 41V39C26 38.448 25.552 38 25 38Z" fill="#D4D4D4"/>
<path d="M25.9999 15C25.9999 14.448 25.5519 14 25 14C24.448 14 24 14.448 24 15V17C24 17.552 24.448 18 25 18C25.5519 18 25.9999 17.552 25.9999 17V15Z" fill="#D4D4D4"/>
<path d="M21.9999 45C21.9999 44.448 21.5519 44 21 44C20.448 44 20 44.448 20 45V47C20 47.5519 20.448 48 21 48C21.5519 48 21.9999 47.5519 21.9999 47V45Z" fill="#D4D4D4"/>
<path d="M21.9999 33C21.9999 32.448 21.5519 32 21 32C20.448 32 20 32.448 20 33V35C20 35.552 20.448 36 21 36C21.5519 36 21.9999 35.552 21.9999 35V33Z" fill="#D4D4D4"/>
<path d="M21 50C20.448 50 20 50.448 20 51V54.9999C20 55.5519 20.448 55.9999 21 55.9999C21.5519 55.9999 21.9999 55.5519 21.9999 54.9999V51C21.9999 50.448 21.5519 50 21 50Z" fill="#D4D4D4"/>
<path d="M25.9999 8.99996C25.9999 8.44801 25.5519 8 25 8C24.448 8 24 8.44801 24 8.99996V11C24 11.552 24.448 12 25 12C25.5519 12 25.9999 11.552 25.9999 11V8.99996Z" fill="#D4D4D4"/>
<path d="M21.9999 27C21.9999 26.448 21.5519 26 21 26C20.448 26 20 26.448 20 27V29C20 29.552 20.448 30 21 30C21.5519 30 21.9999 29.552 21.9999 29V27Z" fill="#D4D4D4"/>
</svg>
