<svg width="60" height="60" viewBox="0 0 60 60" fill="none" xmlns="http://www.w3.org/2000/svg">
<path d="M23.638 42.263L20 40.405V40.018C21.628 39.129 22.773 37.664 23.412 35.653C24.381 35.14 25 34.14 25 33.018V32.018C25 31.091 24.569 30.232 23.849 29.668C23.225 25.888 20.587 23.972 16 23.972C15.783 23.972 15.571 23.981 15.364 23.997C14.499 24.064 13.235 23.994 12.14 23.256C11.73 22.98 11.421 22.712 11.223 22.46C10.887 22.032 10.322 21.883 9.822 22.091C9.321 22.297 9.026 22.799 9.089 23.339C9.131 23.711 9.194 24.147 9.289 24.624C9.482 25.599 9.482 25.599 9.211 26.182C9.109 26.403 8.983 26.672 8.835 27.035C8.504 27.845 8.269 28.732 8.134 29.681C7.424 30.245 7 31.1 7 32.018V33.018C7 34.14 7.619 35.14 8.588 35.654C9.227 37.666 10.372 39.131 12 40.019V40.395L8.23 42.252C6.854 43.003 6 44.443 6 46.011V47.335C6 48.138 6 50.018 16 50.018C26 50.018 26 48.138 26 47.335V46.091C26 44.461 25.095 42.994 23.638 42.263ZM24 47.109C23.377 47.488 20.839 48.017 16 48.017C11.161 48.017 8.623 47.488 8 47.109V46.01C8 45.175 8.456 44.407 9.151 44.027L13.009 42.127C13.611 41.833 14 41.21 14 40.539V38.735L13.396 38.474C11.879 37.822 10.893 36.575 10.381 34.66L10.238 34.128L9.712 33.964C9.293 33.834 9 33.444 9 33.018V32.018C9 31.655 9.207 31.319 9.541 31.141L10.01 30.891L10.065 30.363C10.164 29.424 10.373 28.559 10.687 27.793C10.82 27.468 10.933 27.225 11.025 27.026C11.364 26.297 11.487 25.921 11.402 25.15C12.577 25.822 13.989 26.109 15.524 25.992C15.679 25.979 15.838 25.972 16.001 25.972C19.745 25.972 21.573 27.328 21.93 30.371L21.992 30.894L22.458 31.139C22.792 31.316 23 31.652 23 32.018V33.018C23 33.445 22.707 33.834 22.288 33.964L21.762 34.128L21.619 34.66C21.107 36.575 20.121 37.822 18.604 38.474L18 38.735V40.547C18 41.213 18.369 41.817 18.964 42.122L22.732 44.046L22.739 44.05C23.517 44.439 24 45.222 24 46.091V47.109Z" fill="white"/>
<path d="M55.322 14H37V6.313C37 5.037 35.963 4 34.687 4H25.312C24.037 4 23 5.037 23 6.313V14H4.678C2.099 14 0 16.099 0 18.678V51.323C0 53.901 2.099 56 4.678 56H55.323C57.901 56 60 53.901 60 51.322V18.678C60 16.099 57.901 14 55.322 14ZM25 6.313C25 6.141 25.141 6 25.312 6H34.687C34.859 6 35 6.141 35 6.313V14V19.688C35 19.859 34.859 20 34.687 20H25.312C25.141 20 25 19.859 25 19.688V14V6.313ZM58 51.322C58 52.799 56.799 54 55.322 54H4.678C3.201 54 2 52.799 2 51.322V18.678C2 17.201 3.201 16 4.678 16H23V19.688C23 20.963 24.037 22 25.312 22H34.687C35.963 22 37 20.963 37 19.688V16H55.322C56.799 16 58 17.201 58 18.678V51.322Z" fill="white"/>
<path d="M52.29 44.2899C52.109 44.4789 52 44.7399 52 44.9999C52 45.2599 52.1 45.5199 52.29 45.7099C52.479 45.8899 52.74 45.9999 53 45.9999C53.26 45.9999 53.52 45.8899 53.71 45.7099C53.89 45.5199 54 45.2599 54 44.9999C54 44.7399 53.89 44.4789 53.71 44.2899C53.34 43.9299 52.67 43.9199 52.29 44.2899Z" fill="white"/>
<path d="M31 29.0181H41C41.553 29.0181 42 28.5711 42 28.0181C42 27.4651 41.553 27.0181 41 27.0181H31C30.447 27.0181 30 27.4651 30 28.0181C30 28.5711 30.447 29.0181 31 29.0181Z" fill="white"/>
<path d="M32 44.0181H31C30.447 44.0181 30 44.4651 30 45.0181C30 45.5711 30.447 46.0181 31 46.0181H32C32.553 46.0181 33 45.5711 33 45.0181C33 44.4651 32.553 44.0181 32 44.0181Z" fill="white"/>
<path d="M38 44.0181H36C35.447 44.0181 35 44.4651 35 45.0181C35 45.5711 35.447 46.0181 36 46.0181H38C38.553 46.0181 39 45.5711 39 45.0181C39 44.4651 38.553 44.0181 38 44.0181Z" fill="white"/>
<path d="M43 44.0181H42C41.447 44.0181 41 44.4651 41 45.0181C41 45.5711 41.447 46.0181 42 46.0181H43C43.553 46.0181 44 45.5711 44 45.0181C44 44.4651 43.553 44.0181 43 44.0181Z" fill="white"/>
<path d="M49 44.0181H47C46.447 44.0181 46 44.4651 46 45.0181C46 45.5711 46.447 46.0181 47 46.0181H49C49.553 46.0181 50 45.5711 50 45.0181C50 44.4651 49.553 44.0181 49 44.0181Z" fill="white"/>
<path d="M53 33.0181H31C30.447 33.0181 30 33.4651 30 34.0181C30 34.5711 30.447 35.0181 31 35.0181H53C53.553 35.0181 54 34.5711 54 34.0181C54 33.4651 53.553 33.0181 53 33.0181Z" fill="white"/>
<path d="M53 39.0181H31C30.447 39.0181 30 39.4651 30 40.0181C30 40.5711 30.447 41.0181 31 41.0181H53C53.553 41.0181 54 40.5711 54 40.0181C54 39.4651 53.553 39.0181 53 39.0181Z" fill="white"/>
<path d="M30 15C32.206 15 34 13.206 34 11C34 8.794 32.206 7 30 7C27.794 7 26 8.794 26 11C26 13.206 27.794 15 30 15ZM30 9C31.103 9 32 9.897 32 11C32 12.103 31.103 13 30 13C28.897 13 28 12.103 28 11C28 9.897 28.897 9 30 9Z" fill="white"/>
</svg>
