<svg width="72" height="55" viewBox="0 0 72 55" fill="none" xmlns="http://www.w3.org/2000/svg">
<g clip-path="url(#clip0)">
<path d="M27.9143 29.198L21.8109 27.3658V24.8918C24.0632 23.223 25.592 20.6206 25.802 17.6682C26.9807 17.3181 27.8443 16.2211 27.8443 14.9257C27.8443 14.0855 27.4708 13.292 26.8407 12.7551V6.88521C26.8407 5.27477 26.0238 3.76936 24.6817 2.85911C24.2383 1.17865 22.7329 0 20.9591 0H12.9185C8.56567 0 5.02971 3.53596 5.02971 7.88882V12.7551C4.39953 13.292 4.0261 14.0855 4.0261 14.9257C4.0261 16.2211 4.88967 17.3064 6.06832 17.6682C6.29005 20.6323 7.80713 23.223 10.0594 24.8918V27.3658L2.75408 29.5597C1.10864 30.0499 0 31.5436 0 33.2591V43.0851C0 43.5519 0.385105 43.937 0.851899 43.937H1.00361V54.1481C1.00361 54.6149 1.38871 55 1.85551 55C2.3223 55 2.70741 54.6149 2.70741 54.1481V43.937H6.03331V54.1481C6.03331 54.6149 6.41842 55 6.88521 55C7.35201 55 7.73711 54.6149 7.73711 54.1481V38.0554C7.73711 37.927 7.7021 37.7986 7.64375 37.6703L5.63654 33.6442C5.42648 33.2241 4.91301 33.049 4.49289 33.2591C4.07278 33.4691 3.89773 33.9826 4.10779 34.4027L6.03331 38.2421V42.2215H1.85551H1.7038V33.2591C1.7038 32.2905 2.3223 31.4619 3.24422 31.1818L6.29005 30.2716C7.32867 34.6828 11.3198 37.9037 15.9293 37.9037C18.2983 37.9037 20.5856 37.0518 22.3828 35.5114C23.9699 34.146 25.0902 32.3021 25.5686 30.2716L27.4241 30.8317C27.5058 30.8551 27.5875 30.8668 27.6692 30.8668C28.031 30.8668 28.3694 30.6334 28.4861 30.2599C28.6145 29.8048 28.3577 29.338 27.9143 29.198ZM7.73711 16.9446C7.73711 16.4778 7.35201 16.0927 6.88521 16.0927C6.24337 16.0927 5.71823 15.5676 5.71823 14.9257C5.71823 14.5173 5.93995 14.1439 6.30172 13.9338C6.32506 13.9221 6.33673 13.9105 6.36007 13.8988C6.52345 13.8171 6.69849 13.7704 6.88521 13.7704H8.16889C8.97411 13.7704 9.6743 13.2569 9.93104 12.4984L10.5145 10.7479C12.5101 10.7013 18.8118 10.4212 22.3478 8.65903C22.7679 8.44897 22.9429 7.9355 22.7329 7.51538C22.5228 7.09527 22.0093 6.92022 21.5892 7.13028C17.7965 9.02079 9.97772 9.0558 9.89603 9.0558C9.53427 9.0558 9.20751 9.2892 9.09081 9.6393L8.30893 11.9733C8.28559 12.0316 8.22724 12.0783 8.15722 12.0783H6.88521C6.83853 12.0783 6.78018 12.0783 6.7335 12.0783V7.88882C6.7335 4.48122 9.51093 1.7038 12.9185 1.7038H20.9591C22.021 1.7038 22.9196 2.47401 23.083 3.53596C23.118 3.7927 23.2813 4.01443 23.5031 4.1428C24.5067 4.70295 25.1252 5.76491 25.1252 6.89688V13.2103C25.1252 13.5137 25.2886 13.7938 25.5453 13.9455C25.9071 14.1555 26.1288 14.529 26.1288 14.9374C26.1288 15.5792 25.6036 16.1044 24.9618 16.1044C24.495 16.1044 24.1099 16.4895 24.1099 16.9563C24.1099 21.4725 20.4339 25.1602 15.906 25.1602C11.3781 25.1602 7.73711 21.4609 7.73711 16.9446ZM20.1072 25.9071V27.996C20.1072 30.2949 18.2283 32.1738 15.9293 32.1738C13.6304 32.1738 11.7632 30.3066 11.7515 28.0076V27.996V25.9071C13.0236 26.5022 14.4356 26.829 15.9293 26.829C17.4231 26.8407 18.8468 26.5022 20.1072 25.9071ZM21.2858 34.216C19.8037 35.4997 17.9016 36.1999 15.941 36.1999C12.09 36.1999 8.75239 33.4808 7.9355 29.7815L10.1644 29.1163C10.6896 31.8237 13.0702 33.8892 15.941 33.8892C18.8001 33.8892 21.1924 31.8354 21.7176 29.1163L23.9465 29.7815C23.5614 31.4969 22.6278 33.0607 21.2858 34.216Z" fill="#E6B775"/>
<path d="M13.397 21.6213C13.7588 21.9131 14.2956 21.8664 14.5874 21.493C14.9491 21.0495 15.4276 20.8045 15.9411 20.8045C16.4545 20.8045 16.933 21.0495 17.2948 21.493C17.5865 21.8547 18.1233 21.9131 18.4851 21.6213C18.8468 21.3296 18.9052 20.7928 18.6134 20.431C17.9366 19.5908 16.9563 19.1123 15.9411 19.1123C14.9258 19.1123 13.9455 19.5908 13.2687 20.431C12.9769 20.7928 13.0353 21.3296 13.397 21.6213Z" fill="#E6B775"/>
<path d="M11.9149 14.0739C11.4481 14.0739 11.063 14.459 11.063 14.9257V15.9294C11.063 16.3961 11.4481 16.7813 11.9149 16.7813C12.3817 16.7813 12.7668 16.3961 12.7668 15.9294V14.9257C12.7668 14.459 12.3817 14.0739 11.9149 14.0739Z" fill="#E6B775"/>
<path d="M19.9554 14.0739C19.4886 14.0739 19.1035 14.459 19.1035 14.9257V15.9294C19.1035 16.3961 19.4886 16.7813 19.9554 16.7813C20.4222 16.7813 20.8073 16.3961 20.8073 15.9294V14.9257C20.8073 14.459 20.4222 14.0739 19.9554 14.0739Z" fill="#E6B775"/>
<path d="M28.1594 42.2332H25.8371V38.2538L27.7626 34.4144C27.9727 33.9943 27.7976 33.4808 27.3775 33.2708C26.9574 33.0607 26.4439 33.2358 26.2339 33.6559L24.2267 37.682C24.1683 37.7987 24.1333 37.927 24.1333 38.0671V54.1481C24.1333 54.6149 24.5184 55 24.9852 55C25.452 55 25.8371 54.6149 25.8371 54.1481V43.937H27.5059C27.5409 43.937 27.5642 43.9253 27.5993 43.9253C27.6343 43.9253 27.6576 43.9253 27.6926 43.937H28.1711V42.2332H28.1594Z" fill="#E6B775"/>
<path d="M25.8138 43.937H29.1397V54.1481C29.1397 54.6149 29.5248 55 29.9916 55C30.4584 55 30.8435 54.6149 30.8435 54.1481V43.937H30.9952C31.462 43.937 31.8471 43.5519 31.8471 43.0851V33.2591C31.8471 31.5436 30.7385 30.0498 29.093 29.5597L21.7877 27.3658L21.6943 29.1046C21.6943 29.1046 27.9377 30.8201 28.9997 31.3452C29.9566 31.8237 30.12 32.0571 30.1433 32.9556C30.1433 33.0373 30.1433 42.2215 30.1433 42.2215L25.8255 42.2332L25.8138 43.937Z" fill="#E6B775"/>
<path d="M71.4777 34.8928C71.4777 34.0526 71.1043 33.2707 70.4741 32.7222V31.8937C70.4741 31.5436 70.4508 31.1935 70.4158 30.8434C70.2757 29.548 69.8673 28.4977 69.8673 28.4977C69.3655 27.109 68.5486 25.8487 67.475 24.8101V20.924C67.475 20.7139 67.4049 20.5039 67.2766 20.3405C67.0082 20.0254 66.5647 19.9437 66.2146 20.1188L60.6014 22.9195C60.6014 22.9195 56.9838 21.1574 54.9882 20.2005C54.4047 19.9204 53.7279 20.3522 53.7279 20.994V24.0048C53.7279 24.0165 53.7279 24.0282 53.7279 24.0282V24.7984C51.9074 26.6189 50.7287 29.1279 50.7287 31.882V32.7105C50.0985 33.2474 49.7251 34.0409 49.7251 34.8811C49.7251 35.6864 50.2852 36.5733 50.2852 36.5733C50.8104 37.2851 51.6506 37.7519 52.6076 37.7519H52.7359V37.8803C52.7359 40.8094 54.3464 43.3768 56.7387 44.7305V46.1542C56.7387 46.2126 56.7037 46.2592 56.657 46.2709L53.3894 47.3562C51.8023 47.8814 50.7404 49.3634 50.7404 51.0322V53.833C50.7404 54.3114 51.1138 54.7316 51.5923 54.7432C52.0824 54.7549 52.4909 54.3581 52.4909 53.868V51.0322C52.4909 50.122 53.0743 49.3051 53.9379 49.0133L54.8948 48.6982C56.1669 50.5888 58.3024 51.7441 60.6014 51.7441C62.912 51.7441 65.0476 50.5888 66.308 48.6982L67.2649 49.0133C68.1285 49.3051 68.712 50.1103 68.712 51.0322V53.833C68.712 54.3114 69.0854 54.7316 69.5639 54.7432C70.054 54.7549 70.4624 54.3581 70.4624 53.868V51.0322C70.4624 49.3634 69.4005 47.8814 67.8134 47.3562L64.5458 46.2709C64.4991 46.2592 64.4641 46.2009 64.4641 46.1542V44.7305C66.2496 43.7152 67.6033 42.0231 68.1752 40.0042C68.4902 38.9306 68.6186 37.7519 68.6186 37.7519C70.194 37.7519 71.4777 36.4682 71.4777 34.8928ZM65.7245 22.301V25.4636L62.5619 23.8765L65.7245 22.301ZM55.4783 22.301L58.6409 23.8881L55.4783 25.4752V22.301ZM64.5692 48.1264C63.6006 49.3051 62.1535 50.0053 60.6014 50.0053C59.0493 50.0053 57.6023 49.3051 56.6337 48.1264L57.1938 47.9397C57.964 47.683 58.4775 46.9711 58.4775 46.1659V45.4657C59.1543 45.6524 59.8662 45.7574 60.6014 45.7574C61.3366 45.7574 62.0485 45.6524 62.7253 45.4657V46.1659C62.7253 46.9711 63.2388 47.6946 64.009 47.9397L64.5692 48.1264ZM68.6069 36.0131H67.6033C67.1249 36.0131 66.7281 36.4099 66.7281 36.8884V37.7636C66.7281 37.7753 66.7281 37.7753 66.7281 37.7869V37.892C66.7281 41.2645 63.9857 44.0186 60.6014 44.0186C57.2288 44.0186 54.4747 41.2762 54.4747 37.892V36.8884C54.4747 36.4099 54.078 36.0131 53.5995 36.0131H52.5959C51.9774 36.0131 51.4756 35.5113 51.4756 34.8928C51.4756 34.496 51.6856 34.1343 52.0357 33.9242C52.1174 33.8775 52.1874 33.8192 52.2458 33.7492C54.4047 33.6908 61.4183 33.2824 66.0279 30.645C66.448 30.3999 66.588 29.8748 66.3546 29.4547C66.1096 29.0345 65.5844 28.8945 65.1643 29.1279C61.1266 31.4385 54.7781 31.8937 52.4792 31.987V31.882C52.4792 30.2599 52.9693 28.6728 53.8679 27.3541C53.9379 27.4591 54.0313 27.5641 54.148 27.6342C54.288 27.7159 54.4514 27.7625 54.6031 27.7625C54.7315 27.7625 54.8715 27.7275 54.9999 27.6692L60.6131 24.8684L66.2263 27.6692C66.3547 27.7275 66.483 27.7625 66.6231 27.7625C66.7864 27.7625 66.9381 27.7159 67.0782 27.6342C67.1949 27.5641 67.2882 27.4708 67.3583 27.3541C68.2568 28.6844 68.747 30.2599 68.747 31.882V33.154C68.747 33.4691 68.9104 33.7492 69.1788 33.9125C69.5289 34.1226 69.7389 34.4844 69.7389 34.8811C69.7272 35.5113 69.2254 36.0131 68.6069 36.0131Z" fill="#A2A2A2"/>
<path d="M63.1572 39.2106C62.7838 38.9072 62.2353 38.9656 61.9319 39.339C61.5818 39.7708 61.115 40.0158 60.6132 40.0158C60.1114 40.0158 59.6446 39.7708 59.2945 39.339C58.9911 38.9656 58.4426 38.9072 58.0692 39.2106C57.6957 39.514 57.6374 40.0625 57.9408 40.4359C58.6176 41.2762 59.5979 41.7546 60.6248 41.7546C61.6401 41.7546 62.6204 41.2762 63.3089 40.4359C63.589 40.0625 63.5306 39.514 63.1572 39.2106Z" fill="#A2A2A2"/>
<path d="M57.6138 36.7717C58.0971 36.7717 58.489 36.3798 58.489 35.8964C58.489 35.413 58.0971 35.0212 57.6138 35.0212C57.1304 35.0212 56.7385 35.413 56.7385 35.8964C56.7385 36.3798 57.1304 36.7717 57.6138 36.7717Z" fill="#A2A2A2"/>
<path d="M63.5654 36.7717C64.0488 36.7717 64.4407 36.3798 64.4407 35.8964C64.4407 35.413 64.0488 35.0212 63.5654 35.0212C63.082 35.0212 62.6902 35.413 62.6902 35.8964C62.6902 36.3798 63.082 36.7717 63.5654 36.7717Z" fill="#A2A2A2"/>
<path d="M33.8072 17.8782H38.02C38.1951 17.8782 38.3468 17.7381 38.3468 17.5514C38.3468 17.3647 38.2067 17.2247 38.02 17.2247H33.8072C33.6322 17.2247 33.4805 17.3647 33.4805 17.5514C33.4805 17.7381 33.6322 17.8782 33.8072 17.8782Z" fill="#A2A2A2" stroke="#A2A2A2" stroke-width="0.75" stroke-miterlimit="10"/>
<path d="M42.2329 19.6403H33.8072C33.6322 19.6403 33.4805 19.7804 33.4805 19.9671C33.4805 20.1538 33.6205 20.2938 33.8072 20.2938H42.2329C42.4079 20.2938 42.5596 20.1538 42.5596 19.9671C42.5596 19.7804 42.4079 19.6403 42.2329 19.6403Z" fill="#A2A2A2" stroke="#A2A2A2" stroke-width="0.75" stroke-miterlimit="10"/>
<path d="M42.2329 22.056H33.8072C33.6322 22.056 33.4805 22.196 33.4805 22.3827C33.4805 22.5694 33.6205 22.7095 33.8072 22.7095H42.2329C42.4079 22.7095 42.5596 22.5694 42.5596 22.3827C42.5596 22.196 42.4079 22.056 42.2329 22.056Z" fill="#A2A2A2" stroke="#A2A2A2" stroke-width="0.75" stroke-miterlimit="10"/>
<path d="M48.0796 11.028L37.0166 11.0046C35.9547 11.0046 35.0911 11.8682 35.0911 12.9302V14.5873H32.477C31.4151 14.5873 30.5515 15.4509 30.5515 16.5128V23.363C30.5515 24.425 31.4151 25.2885 32.477 25.2885H34.4376V28.5328C34.4376 28.6611 34.5193 28.7895 34.6476 28.8362C34.6826 28.8479 34.7293 28.8595 34.7643 28.8595C34.8577 28.8595 34.9394 28.8245 35.0094 28.7545L38.1486 25.3002L43.5401 25.2769C44.602 25.2769 45.4656 24.4133 45.4656 23.3513V23.3163L47.1694 25.1952C47.2277 25.2652 47.3211 25.3002 47.4144 25.3002C47.4495 25.3002 47.4961 25.2885 47.5311 25.2769C47.6595 25.2302 47.7412 25.1135 47.7412 24.9735V21.7292H48.0913C49.1533 21.7292 50.0168 20.8657 50.0168 19.8037V12.9535C50.0052 11.8915 49.1416 11.0396 48.0796 11.028ZM44.8237 23.3397C44.8237 24.0399 44.2519 24.6117 43.5517 24.6117L38.0202 24.635C37.9269 24.635 37.8452 24.67 37.7868 24.7401L35.1144 27.6809V24.9501C35.1144 24.7751 34.9744 24.6234 34.7877 24.6234H32.5004C31.8002 24.6234 31.2284 24.0515 31.2284 23.3513V16.5011C31.2284 15.8009 31.8002 15.2291 32.5004 15.2291L35.4412 15.2175L43.5634 15.2058C44.2636 15.2058 44.8354 15.7776 44.8354 16.4778V22.4528V23.3397H44.8237ZM49.3516 19.8037C49.3516 20.5039 48.7798 21.0757 48.0796 21.0757H47.4144C47.2394 21.0757 47.0877 21.2158 47.0877 21.4025V24.1332L45.4656 22.3477V16.5011C45.4656 15.4392 44.602 14.5756 43.5401 14.5756L35.7446 14.5873V12.9302C35.7446 12.23 36.3164 11.6582 37.0166 11.6582L48.0796 11.6815C48.7798 11.6815 49.3516 12.2533 49.3516 12.9535V19.8037Z" fill="#A2A2A2" stroke="#A2A2A2" stroke-width="0.75" stroke-miterlimit="10"/>
</g>
<defs>
<clipPath id="clip0">
<rect width="71.4778" height="55" fill="white"/>
</clipPath>
</defs>
</svg>
