<svg width="60" height="52" viewBox="0 0 60 52" fill="none" xmlns="http://www.w3.org/2000/svg">
<g clip-path="url(#clip0)">
<path d="M49.319 10.7125C49.319 9.22951 48.1199 8.03046 46.6369 8.03046C45.1538 8.03046 43.9548 9.22951 43.9548 10.7125V11.4856H38.9377V10.7125C38.9377 9.22951 37.7386 8.03046 36.2556 8.03046C34.7725 8.03046 33.5735 9.22951 33.5735 10.7125V48.6405C33.5735 50.1235 34.7725 51.3226 36.2556 51.3226C37.7386 51.3226 38.9377 50.1235 38.9377 48.6405V46.1793H43.9548V48.6405C43.9548 50.1235 45.1538 51.3226 46.6369 51.3226C48.1199 51.3226 49.319 50.1235 49.319 48.6405V10.7125ZM47.5519 48.6405C47.5519 49.1454 47.1417 49.5556 46.6369 49.5556C46.132 49.5556 45.7218 49.1454 45.7218 48.6405V45.2958C45.7218 44.8067 45.3274 44.4123 44.8383 44.4123H38.0542C37.5651 44.4123 37.1707 44.8067 37.1707 45.2958V48.6405C37.1707 49.1454 36.7604 49.5556 36.2556 49.5556C35.7507 49.5556 35.3405 49.1454 35.3405 48.6405V10.7125C35.3405 10.2077 35.7507 9.79748 36.2556 9.79748C36.7604 9.79748 37.1707 10.2077 37.1707 10.7125V12.3691C37.1707 12.8582 37.5651 13.2526 38.0542 13.2526H44.8383C45.3274 13.2526 45.7218 12.8582 45.7218 12.3691V10.7125C45.7218 10.2077 46.132 9.79748 46.6369 9.79748C47.1417 9.79748 47.5519 10.2077 47.5519 10.7125V48.6405Z" fill="#A2A2A2"/>
<path d="M44.8383 24.8488H38.0542C37.5651 24.8488 37.1707 25.2432 37.1707 25.7323V31.8854C37.1707 32.3745 37.5651 32.7689 38.0542 32.7689H44.8383C45.3274 32.7689 45.7218 32.3745 45.7218 31.8854V25.7323C45.7218 25.2432 45.3274 24.8488 44.8383 24.8488ZM43.9548 31.0019H38.9377V26.6158H43.9548V31.0019Z" fill="#A2A2A2"/>
<path d="M44.8383 34.599H38.0542C37.5651 34.599 37.1707 34.9934 37.1707 35.4825V41.6986C37.1707 42.1877 37.5651 42.5822 38.0542 42.5822H44.8383C45.3274 42.5822 45.7218 42.1877 45.7218 41.6986V35.4825C45.7218 34.9934 45.3274 34.599 44.8383 34.599ZM43.9548 40.8151H38.9377V36.366H43.9548V40.8151Z" fill="#A2A2A2"/>
<path d="M44.8383 15.0986H38.0542C37.5651 15.0986 37.1707 15.493 37.1707 15.9821V22.1351C37.1707 22.6242 37.5651 23.0186 38.0542 23.0186H44.8383C45.3274 23.0186 45.7218 22.6242 45.7218 22.1351V15.9821C45.7218 15.493 45.3274 15.0986 44.8383 15.0986ZM43.9548 21.2516H38.9377V16.8656H43.9548V21.2516Z" fill="#A2A2A2"/>
<path d="M31.98 43.1501H5.2853V39.2532H31.98V37.4862H5.2853V34.8672C5.52195 34.6937 5.80594 34.599 6.1057 34.599H31.9642V32.832H25.1012V32.6584C25.1012 31.5698 24.8646 30.5128 24.4228 29.5346C24.2177 29.0928 23.6971 28.9035 23.2553 29.1086C22.8136 29.3137 22.6242 29.8343 22.8293 30.2761C23.1764 31.0334 23.35 31.8222 23.35 32.6584V32.8478H8.40915V32.6584C8.40915 29.5188 10.965 26.9629 14.1046 26.9629H17.6387C18.6958 26.9629 19.7213 27.2469 20.6206 27.7991C21.0308 28.0515 21.583 27.9253 21.8354 27.5151C22.0878 27.1049 21.9616 26.5527 21.5514 26.3003C20.3839 25.5745 19.0271 25.1959 17.6387 25.1959H14.1204C10.0026 25.1959 6.6579 28.5406 6.6579 32.6584V32.8478H6.12148C5.80594 32.8478 5.53773 32.8951 5.30108 32.9897V24.4386H31.9958V22.6716H5.2853V18.7747H8.20405C8.69313 18.7747 9.08756 18.3802 9.08756 17.8911C9.08756 17.4021 8.69313 17.0076 8.20405 17.0076H5.2853V14.3886C5.52195 14.2151 5.80594 14.1204 6.1057 14.1204H31.9642V12.3692H24.8646C24.0284 9.11912 21.0465 6.75256 17.6229 6.75256H14.1204C10.6968 6.75256 7.71496 9.11912 6.87878 12.3692H6.1057C5.82172 12.3692 5.55351 12.4007 5.2853 12.4796V2.65054C5.2853 1.18328 4.10202 0 2.65054 0C1.18328 0 0 1.18328 0 2.65054V39.3006C0 39.7896 0.394425 40.1841 0.883513 40.1841C1.3726 40.1841 1.76703 39.7896 1.76703 39.3006V2.65054C1.76703 2.16145 2.16145 1.76703 2.65054 1.76703C3.13963 1.76703 3.53405 2.16145 3.53405 2.65054V17.9069V23.5551V48.6248C3.53405 49.1139 3.13963 49.5083 2.65054 49.5083C2.16145 49.5083 1.76703 49.1139 1.76703 48.6248V43.1817C1.76703 42.6926 1.3726 42.2982 0.883513 42.2982C0.394425 42.2982 0 42.6926 0 43.1817V48.6248C0 50.0763 1.18328 51.2753 2.65054 51.2753C4.1178 51.2753 5.30108 50.092 5.30108 48.6248V44.9329H31.9958V43.1501H31.98ZM14.1204 8.50381H17.6545C20.1157 8.50381 22.2771 10.0973 23.0502 12.3534H8.72469C9.49776 10.0973 11.6592 8.50381 14.1204 8.50381Z" fill="#D6AA6D"/>
<path d="M57.3493 0C55.8978 0 54.6987 1.18328 54.6987 2.65054V13.3474C53.7048 12.7163 52.5531 12.3692 51.3382 12.3692H50.8965V14.1362H51.3382C52.632 14.1362 53.8468 14.6884 54.6987 15.6508V17.0234H50.8965V18.7747H54.6987V22.6716H50.8965V24.4386H54.6987V33.8259C53.7048 33.1948 52.5531 32.8478 51.3382 32.8478H50.8965V34.6148H51.3382C52.632 34.6148 53.8468 35.167 54.6987 36.1294V37.502H50.8965V39.269H54.6987V43.1659H50.8965V44.9329H54.6987V48.6248C54.6987 50.0763 55.882 51.2753 57.3493 51.2753C58.8165 51.2753 59.9998 50.092 59.9998 48.6248V2.65054C59.9998 1.18328 58.8165 0 57.3493 0ZM58.2328 48.6248C58.2328 49.1139 57.8384 49.5083 57.3493 49.5083C56.8602 49.5083 56.4658 49.1139 56.4658 48.6248V2.65054C56.4658 2.16145 56.8602 1.76703 57.3493 1.76703C57.8384 1.76703 58.2328 2.16145 58.2328 2.65054V48.6248Z" fill="#D6AA6D"/>
<path d="M11.3911 17.8911C11.3911 18.3802 11.7855 18.7747 12.2746 18.7747H31.9801V17.0076H12.2746C11.7855 17.0076 11.3911 17.4021 11.3911 17.8911Z" fill="#D6AA6D"/>
</g>
<defs>
<clipPath id="clip0">
<rect width="60" height="51.3226" fill="white"/>
</clipPath>
</defs>
</svg>
