<svg width="60" height="60" viewBox="0 0 60 60" fill="none" xmlns="http://www.w3.org/2000/svg">
<g clip-path="url(#clip0)">
<path d="M39.072 55.2127C39.072 55.7415 39.5007 56.1702 40.0295 56.1702C40.5582 56.1702 40.9869 55.7415 40.9869 55.2127V47.5531C40.9869 47.0244 40.5582 46.5957 40.0295 46.5957C39.5007 46.5957 39.072 47.0244 39.072 47.5531V55.2127Z" fill="white"/>
<path d="M40.0295 44.6807C40.5582 44.6807 40.9869 44.252 40.9869 43.7232V4.78704C40.9869 4.25827 40.5582 3.82959 40.0295 3.82959C39.5007 3.82959 39.072 4.25827 39.072 4.78704V43.7232C39.072 44.252 39.5007 44.6807 40.0295 44.6807Z" fill="white"/>
<path d="M52.7872 0H27.2716C23.2945 0 20.0589 3.23566 20.0589 7.21277C20.0589 7.74153 20.4875 8.17021 21.0163 8.17021C21.5451 8.17021 21.9738 7.74153 21.9738 7.21277C21.9738 4.29153 24.3504 1.91489 27.2716 1.91489H52.7872C55.7084 1.91489 58.0851 4.29153 58.0851 7.21277V52.7872C58.0851 55.7085 55.7084 58.0851 52.7872 58.0851H37.8216C37.2928 58.0851 36.8641 58.5138 36.8641 59.0426C36.8641 59.5713 37.2928 60 37.8216 60H52.7872C56.7643 60 60 56.7643 60 52.7872V7.21277C60 3.23566 56.7643 0 52.7872 0Z" fill="white"/>
<path d="M49.5361 15.0183C52.1133 15.0183 54.2101 12.9216 54.2101 10.3443C54.2101 7.76709 52.1134 5.67041 49.5361 5.67041C46.9587 5.67041 44.8621 7.76709 44.8621 10.3443C44.8621 12.9216 46.9589 15.0183 49.5361 15.0183ZM49.5361 7.5853C51.0574 7.5853 52.2952 8.82296 52.2952 10.3443C52.2952 11.8656 51.0575 13.1034 49.5361 13.1034C48.0146 13.1034 46.777 11.8657 46.777 10.3443C46.777 8.82296 48.0147 7.5853 49.5361 7.5853V7.5853Z" fill="white"/>
<path d="M49.5361 28.1223C52.1133 28.1223 54.2101 26.0256 54.2101 23.4483C54.2101 20.8711 52.1134 18.7744 49.5361 18.7744C46.9587 18.7744 44.8621 20.8711 44.8621 23.4483C44.8621 26.0256 46.9589 28.1223 49.5361 28.1223ZM49.5361 20.6893C51.0574 20.6893 52.2952 21.927 52.2952 23.4483C52.2952 24.9696 51.0575 26.2074 49.5361 26.2074C48.0146 26.2074 46.777 24.9697 46.777 23.4483C46.777 21.927 48.0147 20.6893 49.5361 20.6893Z" fill="white"/>
<path d="M49.5361 41.2258C52.1133 41.2258 54.2101 39.1291 54.2101 36.5519C54.2101 33.9747 52.1134 31.8779 49.5361 31.8779C46.9587 31.8779 44.8621 33.9746 44.8621 36.5519C44.8621 39.1291 46.9589 41.2258 49.5361 41.2258ZM49.5361 33.7928C51.0574 33.7928 52.2952 35.0305 52.2952 36.5519C52.2952 38.0733 51.0575 39.3109 49.5361 39.3109C48.0146 39.3109 46.777 38.0733 46.777 36.5519C46.777 35.0305 48.0147 33.7928 49.5361 33.7928Z" fill="white"/>
<path d="M49.5361 54.3293C52.1133 54.3293 54.2101 52.2326 54.2101 49.6554C54.2101 47.0783 52.1134 44.9814 49.5361 44.9814C46.9587 44.9814 44.8621 47.0781 44.8621 49.6554C44.8621 52.2326 46.9589 54.3293 49.5361 54.3293ZM49.5361 46.8963C51.0574 46.8963 52.2952 48.134 52.2952 49.6554C52.2952 51.1768 51.0575 52.4144 49.5361 52.4144C48.0146 52.4144 46.777 51.1768 46.777 49.6554C46.777 48.134 48.0147 46.8963 49.5361 46.8963Z" fill="white"/>
<path d="M28.9817 8.0556C29.4374 7.74794 29.9703 7.58543 30.5231 7.58543C31.0872 7.58543 31.6294 7.7542 32.0908 8.0736C32.257 8.18862 32.4468 8.24377 32.6347 8.24377C32.9383 8.24377 33.237 8.09977 33.4229 7.83118C33.7238 7.39637 33.6153 6.79994 33.1805 6.49892C32.3974 5.95688 31.4784 5.67041 30.5231 5.67041C29.587 5.67041 28.6835 5.94641 27.9103 6.46841C27.472 6.76432 27.3566 7.35935 27.6525 7.79773C27.9485 8.23611 28.5436 8.35152 28.9817 8.0556Z" fill="white"/>
<path d="M12.1183 48.3H23.574C26.7748 48.3 29.3788 45.696 29.3788 42.4952C29.3788 39.2944 26.7748 36.6904 23.574 36.6904H12.1183C8.91751 36.6904 6.31351 39.2944 6.31351 42.4952C6.31351 45.696 8.91751 48.3 12.1183 48.3ZM18.8036 38.6053H23.574C25.7189 38.6053 27.4639 40.3503 27.4639 42.4952C27.4639 44.6402 25.7189 46.3852 23.574 46.3852H18.8036V38.6053ZM12.1183 38.6053H16.8887V46.3852H12.1183C9.97338 46.3852 8.2284 44.6402 8.2284 42.4952C8.2284 40.3503 9.97338 38.6053 12.1183 38.6053Z" fill="white"/>
<path d="M34.7349 18.6978C35.2637 18.6978 35.6923 18.2691 35.6923 17.7403C35.6923 17.2116 35.2637 16.7829 34.7349 16.7829H34.6549V12.673C34.6549 11.2735 33.5163 10.1348 32.1166 10.1348H3.57575C2.17621 10.1348 1.03749 11.2734 1.03749 12.673V16.7829H0.957447C0.428681 16.7829 0 17.2116 0 17.7403C0 18.2691 0.428681 18.6978 0.957447 18.6978H3.31277V20.9851L2.13804 21.6578C0.939064 22.3444 0 24.0517 0 25.5449V55.8813C0 58.1525 1.84774 60.0003 4.11906 60.0003H31.5734C33.8447 60.0003 35.6925 58.1525 35.6925 55.8812V25.5449C35.6925 24.0518 34.7534 22.3444 33.5543 21.6578L32.3796 20.9852V18.6979H34.7349V18.6978ZM33.7775 55.8812C33.7775 57.0966 32.7887 58.0854 31.5733 58.0854H4.11906C2.90362 58.0854 1.91489 57.0966 1.91489 55.8812V53.677H33.7775V55.8812V55.8812ZM33.7775 51.7623H1.91489V33.229H33.7775V51.7623V51.7623ZM32.6027 23.3194C33.2175 23.6715 33.7775 24.7321 33.7775 25.5448V31.3141H1.91489V25.5449C1.91489 24.7323 2.47481 23.6717 3.08962 23.3196L4.74613 22.3711C5.04396 22.2005 5.22779 21.8835 5.22779 21.5403V18.6978H30.4648V21.5403C30.4648 21.8835 30.6485 22.2005 30.9465 22.3711L32.6027 23.3194ZM2.95238 16.7829V12.673C2.95238 12.3351 3.23783 12.0497 3.57575 12.0497H7.37796V13.9106C7.37796 14.4393 7.80664 14.868 8.33541 14.868C8.86417 14.868 9.29285 14.4393 9.29285 13.9106V12.0497H13.7184V13.9106C13.7184 14.4393 14.1471 14.868 14.6759 14.868C15.2046 14.868 15.6333 14.4393 15.6333 13.9106V12.0497H20.0589V13.9106C20.0589 14.4393 20.4876 14.868 21.0163 14.868C21.5451 14.868 21.9738 14.4393 21.9738 13.9106V12.0497H26.3994V13.9106C26.3994 14.4393 26.828 14.868 27.3568 14.868C27.8856 14.868 28.3143 14.4393 28.3143 13.9106V12.0497H32.1166C32.4545 12.0497 32.74 12.3351 32.74 12.673V16.7829H2.95238Z" fill="white"/>
<path d="M27.5924 20.5825H15.7596C15.2309 20.5825 14.8022 21.0112 14.8022 21.54C14.8022 22.0687 15.2309 22.4974 15.7596 22.4974H27.5924C28.1212 22.4974 28.5498 22.0687 28.5498 21.54C28.5498 21.0112 28.1212 20.5825 27.5924 20.5825Z" fill="white"/>
<path d="M11.9298 20.5825H8.10002C7.57126 20.5825 7.14258 21.0112 7.14258 21.54C7.14258 22.0687 7.57126 22.4974 8.10002 22.4974H11.9298C12.4586 22.4974 12.8873 22.0687 12.8873 21.54C12.8873 21.0112 12.4586 20.5825 11.9298 20.5825Z" fill="white"/>
</g>
<defs>
<clipPath id="clip0">
<rect width="60" height="60" fill="white"/>
</clipPath>
</defs>
</svg>
