<svg width="70" height="60" viewBox="0 0 70 60" fill="none" xmlns="http://www.w3.org/2000/svg">
<g clip-path="url(#clip0)">
<path d="M68.8333 28.0003H57.1364C57.9083 27.14 58.3287 26.0858 58.3333 25.0003C58.3407 22.8436 56.7291 20.9276 54.3394 20.2518C51.9502 19.5765 49.3247 20.2943 47.8333 22.0316C46.6034 20.5731 44.552 19.7962 42.4659 19.9998C40.3798 20.2034 38.5843 21.3558 37.7691 23.014C36.9533 24.6717 37.2444 26.578 38.5302 28.0003H26.8333C26.189 28.0003 25.6666 28.4481 25.6666 29.0003V37.0003C25.6666 37.5526 26.189 38.0003 26.8333 38.0003H28V59.0003C28 59.5526 28.5223 60.0003 29.1666 60.0003H66.5C67.1442 60.0003 67.6666 59.5526 67.6666 59.0003V38.0003H68.8333C69.4776 38.0003 70 37.5526 70 37.0003V29.0003C70 28.4481 69.4776 28.0003 68.8333 28.0003ZM52.5 36.0003H43.1666V30.0003H52.5V36.0003ZM52.5 22.0003C54.4328 22.0003 56 23.3436 56 25.0003C56 26.6571 54.4328 28.0003 52.5 28.0003H49V25.0003C49 23.3436 50.5671 22.0003 52.5 22.0003ZM39.6666 25.0003C39.6666 23.3436 41.2338 22.0003 43.1666 22.0003C45.0995 22.0003 46.6666 23.3436 46.6666 25.0003V28.0003H43.1666C41.2338 28.0003 39.6666 26.6571 39.6666 25.0003ZM28 30.0003H40.8333V36.0003H28V30.0003ZM30.3333 38.0003H42V58.0003H30.3333V38.0003ZM44.3333 58.0003V38.0003H51.3333V58.0003H44.3333ZM65.3333 58.0003H53.6666V38.0003H65.3333V58.0003ZM67.6666 36.0003H54.8333V30.0003H67.6666V36.0003Z" fill="#D6AA6D"/>
<path d="M14 18H44.3333V17C44.3333 16.4478 43.811 16 43.1667 16H39.6667V9.00001C39.6604 4.03174 34.963 0.00537775 29.1667 6.64541e-06H26.8333C25.4308 -0.0014582 24.042 0.239264 22.75 0.708014C21.458 0.239264 20.0692 -0.0014582 18.6667 6.64541e-06H16.3333C10.537 0.00537775 5.8396 4.03174 5.83333 9.00001V16H1.16667C0.522379 16 0 16.4478 0 17V59C0 59.5523 0.522379 60 1.16667 60H25.6667V58H14V18ZM22.75 2.94678C25.2736 4.19581 26.8293 6.50245 26.8333 9.00001V16H18.6667V9.00001C18.6707 6.50245 20.2264 4.19581 22.75 2.94678ZM26.8333 2.00001H29.1667C33.675 2.0044 37.3282 5.13575 37.3333 9.00001V16H29.1667V9.00001C29.1667 6.34132 27.7921 3.81934 25.4137 2.1128C25.882 2.03956 26.3571 2.00196 26.8333 2.00001ZM8.16667 9.00001C8.17179 5.13575 11.825 2.0044 16.3333 2.00001H18.6667C19.1429 2.00196 19.618 2.03956 20.0863 2.1128C17.7079 3.81934 16.3333 6.34132 16.3333 9.00001V16H8.16667V9.00001ZM7.89608 52.3589C7.66707 52.1416 7.3418 52.0181 7 52.0181C6.65877 52.0181 6.33293 52.1416 6.10392 52.3589L2.33333 56.2378V19.7622L6.10392 23.6411C6.32552 23.8687 6.65365 24.0005 7 24.0005C7.34635 24.0005 7.67448 23.8687 7.89608 23.6411L11.6667 19.7622V56.2378L7.89608 52.3589ZM10.3428 58H3.65723L7 54.562L10.3428 58ZM3.65723 18H10.3428L7 21.438L3.65723 18Z" fill="#D4D4D4"/>
</g>
<defs>
<clipPath id="clip0">
<rect width="70" height="60" fill="white"/>
</clipPath>
</defs>
</svg>
