<svg width="72" height="62" viewBox="0 0 72 62" fill="none" xmlns="http://www.w3.org/2000/svg">
<path d="M13.399 21.6422C13.774 21.9469 14.3248 21.8883 14.6294 21.5133C14.981 21.0797 15.4498 20.8336 15.9537 20.8336C16.4576 20.8336 16.9263 21.0797 17.2779 21.5133C17.5826 21.8883 18.1333 21.9469 18.5083 21.6422C18.8833 21.3375 18.9419 20.7867 18.6373 20.4117C17.9576 19.568 16.9732 19.0875 15.9419 19.0875C14.9107 19.0875 13.938 19.568 13.2466 20.4117C12.9654 20.7867 13.024 21.3375 13.399 21.6422Z" fill="#D6AA6D"/>
<path d="M11.9297 14.0665C11.4492 14.0665 11.0508 14.4649 11.0508 14.9454V15.9532C11.0508 16.4337 11.4492 16.8321 11.9297 16.8321C12.4102 16.8321 12.8086 16.4337 12.8086 15.9532V14.9454C12.8086 14.4532 12.4102 14.0665 11.9297 14.0665Z" fill="#D6AA6D"/>
<path d="M19.957 14.0665C19.4766 14.0665 19.0781 14.4649 19.0781 14.9454V15.9532C19.0781 16.4337 19.4766 16.8321 19.957 16.8321C20.4375 16.8321 20.8359 16.4337 20.8359 15.9532V14.9454C20.8359 14.4532 20.4492 14.0665 19.957 14.0665Z" fill="#D6AA6D"/>
<path d="M42.5201 26.6592C42.8951 26.9639 43.4458 26.9053 43.7505 26.5303C44.1021 26.0967 44.5708 25.8506 45.0748 25.8506C45.5787 25.8506 46.0474 26.0967 46.399 26.5303C46.7037 26.9053 47.2544 26.9639 47.6294 26.6592C48.0044 26.3545 48.063 25.8038 47.7583 25.4288C47.0787 24.585 46.0943 24.1045 45.063 24.1045C44.0318 24.1045 43.0591 24.585 42.3677 25.4288C42.0865 25.792 42.1451 26.3545 42.5201 26.6592Z" fill="#D6AA6D"/>
<path d="M41.0508 19.0836C40.5703 19.0836 40.1719 19.482 40.1719 19.9625V20.9703C40.1719 21.4507 40.5703 21.8492 41.0508 21.8492C41.5312 21.8492 41.9297 21.4507 41.9297 20.9703V19.9625C41.9297 19.482 41.5312 19.0836 41.0508 19.0836Z" fill="#D6AA6D"/>
<path d="M49.0781 19.0836C48.5977 19.0836 48.1992 19.482 48.1992 19.9625V20.9703C48.1992 21.4507 48.5977 21.8492 49.0781 21.8492C49.5586 21.8492 49.957 21.4507 49.957 20.9703V19.9625C49.957 19.482 49.5703 19.0836 49.0781 19.0836Z" fill="#D6AA6D"/>
<path d="M26.8594 12.7536V6.9043C26.8594 5.28666 26.0391 3.77451 24.7031 2.87191C24.2578 1.18393 22.7344 0 20.9648 0H12.9258C8.56641 0 5.01562 3.55179 5.01562 7.9124V12.7536C4.40625 13.2811 4.00781 14.0665 4.00781 14.9457C4.00781 16.2468 4.86328 17.337 6.04688 17.7003C6.26953 20.6543 7.79297 23.2449 10.0312 24.9094V27.3359L2.76562 29.5162C1.11328 30.0202 0 31.5207 0 33.2555V43.0669C0 43.5475 0.398438 43.9461 0.878906 43.9461H1.00781V54.1208C1.00781 54.6014 1.40625 55 1.88672 55C2.36719 55 2.76562 54.6014 2.76562 54.1208V43.9461H6.02344V54.1208C6.02344 54.6014 6.42188 55 6.90234 55C7.38281 55 7.78125 54.6014 7.78125 54.1208V38.9525C7.78125 38.1788 7.55859 37.4403 7.125 36.7956L5.625 34.545C5.35547 34.1464 4.80469 34.0292 4.40625 34.2988C4.00781 34.5684 3.89062 35.1194 4.16016 35.5179L5.66016 37.7685C5.89453 38.1202 6.02344 38.5305 6.02344 38.9525V42.1878H1.75781V33.2555C1.75781 32.3061 2.36719 31.4855 3.28125 31.2159L6.29297 30.3133C7.34766 34.7091 11.332 37.9327 15.9375 37.9327C17.0156 37.9327 18.5273 37.6865 19.5352 37.3583L19.0078 35.6C18.1172 35.9282 16.8984 36.1743 15.9375 36.1743C12.1172 36.1743 8.8125 33.4783 7.98047 29.8092L10.1484 29.1528C10.6875 31.8606 13.0781 33.912 15.9375 33.912C17.6836 33.912 19.2539 33.15 20.332 31.9427L18.9727 30.8291C18.2109 31.6496 17.1328 32.1654 15.9375 32.1654C13.6523 32.1654 11.8008 30.3133 11.8008 28.0392V28.0275V25.9879C13.0664 26.574 14.4609 26.8904 15.9375 26.8904C17.4141 26.8904 18.8203 26.5622 20.0742 25.9879V26.785C20.1094 26.785 20.1328 26.7732 20.168 26.7732H21.7969L21.8438 24.9329C22.2305 24.6515 22.5938 24.335 22.9336 23.9951V21.1818C21.5039 23.5497 18.9023 25.1321 15.9492 25.1321C11.4492 25.1321 7.79297 21.4748 7.79297 16.9736C7.79297 16.493 7.39453 16.0944 6.91406 16.0944C6.29297 16.0944 5.78906 15.5904 5.78906 14.9691C5.78906 14.3478 6.29297 13.8438 6.91406 13.8438H8.91797C9.29297 13.8438 9.63281 13.5976 9.75 13.2459L10.5586 10.7843C12.5742 10.7374 18.8438 10.4561 22.3711 8.68606C22.8047 8.46334 22.9805 7.93585 22.7695 7.50213C22.5469 7.06841 22.0195 6.89258 21.5859 7.10358C17.8008 8.99084 10.0078 9.01428 9.92578 9.01428C9.55078 9.01428 9.21094 9.26044 9.09375 9.61211L8.28516 12.0269H6.90234C6.85547 12.0269 6.82031 12.0269 6.77344 12.0269V7.9124C6.77344 4.52472 9.52734 1.75831 12.9258 1.75831H20.9648C22.0195 1.75831 22.8984 2.52025 23.0625 3.55179C23.1094 3.8214 23.2617 4.04412 23.4961 4.18478C24.4922 4.74744 25.1016 5.79071 25.1016 6.9043V12.0503C25.0547 12.0503 25.0195 12.0503 24.9727 12.0503H23.9648C23.4844 12.0503 23.0859 12.4488 23.0859 12.9295C23.0859 13.4101 23.4844 13.8086 23.9648 13.8086H24.9727C25.5938 13.8086 26.0977 14.3127 26.0977 14.9339C26.0977 15.5552 25.5938 16.0592 24.9727 16.0592C24.4922 16.0592 24.0938 16.4578 24.0938 16.9384C24.0938 16.9736 24.0938 17.0205 24.0938 17.0556C24.0938 17.0791 24.0938 17.1025 24.0938 17.126V18.4271C24.6094 18.6264 25.125 18.8139 25.6289 19.0367C25.7227 18.5912 25.793 18.1458 25.8281 17.6886C27.0117 17.3252 27.8672 16.2234 27.8672 14.9339C27.8672 14.0665 27.4805 13.2811 26.8594 12.7536Z" fill="#D6AA6D"/>
<path d="M57.5508 36.4674L50.6602 33.7127C50.625 33.7009 50.5898 33.6775 50.5547 33.6658C55.3125 32.5873 57.5625 30.7704 57.668 30.6884C57.9023 30.4891 58.0195 30.1843 57.9844 29.8795C57.9727 29.8092 56.9883 22.8346 56.9883 15.942C56.9883 9.3659 51.6445 4.00891 45.0586 4.00891C38.4844 4.00891 33.1289 9.35418 33.1289 15.942C33.1289 17.3721 33.082 19.0483 32.9883 20.7246C33.5859 20.3964 34.1602 20.0447 34.793 19.7986C34.8516 18.4505 34.8867 17.1494 34.8867 15.9303C34.8867 10.3271 39.4453 5.7555 45.0586 5.7555C50.6602 5.7555 55.2305 10.3154 55.2305 15.9303C55.2305 21.8382 55.9453 27.8047 56.168 29.5865C55.3828 30.1023 53.3672 31.2393 49.957 31.9778V30.5946C50.4258 30.325 50.8711 30.0319 51.293 29.692C53.0273 28.2971 54.2461 26.3395 54.7383 24.1826C54.9023 23.4676 54.9844 22.7174 54.9844 21.9789C54.9844 17.0087 51.3867 16.2937 47.918 15.602C45.7031 15.1683 43.418 14.7112 41.6016 13.2576C41.332 13.0466 40.9805 12.9997 40.6758 13.1521C40.3711 13.2928 40.1719 13.6093 40.1719 13.9492C40.1719 13.9727 40.1367 16.2819 36.8203 17.1142C36.3516 17.2314 36.0586 17.712 36.1758 18.1809C36.293 18.6498 36.7734 18.9428 37.2422 18.8256C40.0195 18.134 41.1445 16.575 41.6016 15.4028C43.5117 16.5281 45.6445 16.9618 47.5664 17.3369C51.2812 18.0754 53.2148 18.6146 53.2148 21.9789C53.2148 22.5884 53.1445 23.198 53.0156 23.7958C52.6172 25.5658 51.6094 27.1835 50.1797 28.3322C48.7148 29.5162 46.9453 30.1374 45.0586 30.1374C44.0039 30.1374 43.0898 30.0554 42.1406 29.6685C42.375 30.3484 42.4922 31.6144 42.4922 31.6496C43.207 31.8137 44.2969 31.8957 45.0586 31.8957C46.125 31.8957 47.1914 31.7199 48.1992 31.38V32.6694C48.1992 33.8533 48.9141 34.9083 50.0156 35.3538L51.9141 36.104C51 39.1048 48.2344 41.1796 45.0703 41.1796C43.4297 41.1796 41.7187 40.4763 40.4648 39.4799L39.6562 41.1327C41.1094 42.1174 43.2539 42.9379 45.0703 42.9379C48.9609 42.9379 52.3828 40.4177 53.5547 36.7604L56.9062 38.1084C57.7266 38.4367 58.2422 39.2103 58.2422 40.0895V44.1922H54.9844V43.0669C54.9844 42.5863 54.5859 42.1877 54.1055 42.1877C53.625 42.1877 53.2266 42.5863 53.2266 43.0669V54.1208C53.2266 54.6014 53.625 55 54.1055 55C54.5859 55 54.9844 54.6014 54.9844 54.1208V45.9505H57.2461V54.1091C57.2461 54.5897 57.6445 54.9882 58.125 54.9882C58.6055 54.9882 59.0039 54.5897 59.0039 54.1091V45.9505H59.1328C59.3672 45.9505 59.5898 45.8567 59.7539 45.6926C59.918 45.5285 60.0117 45.3058 60.0117 45.0714V40.0895C60 38.4835 59.0391 37.0652 57.5508 36.4674Z" fill="#D6AA6D"/>
<path d="M45.0586 30.1373C44.0039 30.1373 43.0898 30.0553 42.1406 29.6686C42.1406 29.6686 42.4922 31.6139 42.4922 31.6491" fill="#D6AA6D"/>
<path d="M33.1406 15.942C33.1406 17.3721 33.0938 19.0484 33 20.7246L34.8047 19.8103" fill="#D6AA6D"/>
<path d="M28.4576 41.7338C28.8326 42.0385 29.3833 41.9799 29.688 41.6049C30.0396 41.1713 30.5083 40.9252 31.0123 40.9252C31.5162 40.9252 31.9849 41.1713 32.3365 41.6049C32.6412 41.9799 33.1919 42.0385 33.5669 41.7338C33.9419 41.4291 34.0005 40.8783 33.6958 40.5034C33.0162 39.6596 32.0318 39.1791 31.0005 39.1791C29.9693 39.1791 28.9966 39.6596 28.3052 40.5034C28.024 40.8783 28.0826 41.4291 28.4576 41.7338Z" fill="#A2A2A2"/>
<path d="M28.0078 36.9123C28.4932 36.9123 28.8867 36.5188 28.8867 36.0334C28.8867 35.548 28.4932 35.1545 28.0078 35.1545C27.5224 35.1545 27.1289 35.548 27.1289 36.0334C27.1289 36.5188 27.5224 36.9123 28.0078 36.9123Z" fill="#A2A2A2"/>
<path d="M33.9844 36.9123C34.4698 36.9123 34.8633 36.5188 34.8633 36.0334C34.8633 35.548 34.4698 35.1545 33.9844 35.1545C33.499 35.1545 33.1055 35.548 33.1055 36.0334C33.1055 36.5188 33.499 36.9123 33.9844 36.9123Z" fill="#A2A2A2"/>
<path d="M41.9297 35.0256C41.9297 34.1816 41.5547 33.3963 40.9219 32.8453V32.0131C40.9219 31.6614 40.8984 31.3097 40.8633 30.9581C40.7227 29.6569 40.3125 28.6019 40.3125 28.6019C39.8086 27.207 38.9883 25.941 37.9102 24.8977V20.9943C37.9102 20.7833 37.8398 20.5723 37.7109 20.4082C37.4414 20.0917 36.9961 20.0096 36.6445 20.1855L31.0078 22.9988C31.0078 22.9988 27.375 21.2287 25.3711 20.2675C24.7852 19.9862 24.1055 20.4199 24.1055 21.0646V24.0889C24.1055 24.1006 24.1055 24.1124 24.1055 24.1124V24.886C22.2773 26.7147 21.0938 29.2349 21.0938 32.0013V32.8336C20.4609 33.3728 20.0859 34.1699 20.0859 35.0139C20.0859 35.8227 20.6484 36.7136 20.6484 36.7136C21.1758 37.4287 22.0195 37.8975 22.9805 37.8975H23.1094V38.0265C23.1094 40.9687 24.7266 43.5476 27.1289 44.9073V46.3374C27.1289 46.396 27.0938 46.4429 27.0469 46.4547L23.7656 47.5448C22.1719 48.0723 21.1055 49.561 21.1055 51.2373V54.0506C21.1055 54.5312 21.4805 54.9532 21.9609 54.9649C22.4531 54.9766 22.8633 54.5781 22.8633 54.0857V51.2373C22.8633 50.3229 23.4492 49.5024 24.3164 49.2093L25.2773 48.8928C26.5547 50.7918 28.6992 51.9523 31.0078 51.9523C33.3281 51.9523 35.4727 50.7918 36.7383 48.8928L37.6992 49.2093C38.5664 49.5024 39.1523 50.3112 39.1523 51.2373V54.0506C39.1523 54.5312 39.5273 54.9532 40.0078 54.9649C40.5 54.9766 40.9102 54.5781 40.9102 54.0857V51.2373C40.9102 49.561 39.8438 48.0723 38.25 47.5448L34.9688 46.4547C34.9219 46.4429 34.8867 46.3843 34.8867 46.3374V44.9073C36.6797 43.8875 38.0391 42.1878 38.6133 40.1599C38.9297 39.0815 39.0586 37.8975 39.0586 37.8975C40.6406 37.9093 41.9297 36.6198 41.9297 35.0256ZM36.1523 22.3892V25.5659L32.9766 23.9717L36.1523 22.3892ZM25.8633 22.3892L29.0391 23.9834L25.8633 25.5776V22.3892ZM34.9805 48.3302C34.0078 49.5141 32.5547 50.2174 30.9961 50.2174C29.4375 50.2174 27.9844 49.5141 27.0117 48.3302L27.5742 48.1426C28.3477 47.8847 28.8633 47.1697 28.8633 46.3609V45.6576C29.543 45.8451 30.2578 45.9506 30.9961 45.9506C31.7344 45.9506 32.4492 45.8451 33.1289 45.6576V46.3609C33.1289 47.1697 33.6445 47.8965 34.418 48.1426L34.9805 48.3302ZM39.0352 36.1627H38.0273C37.5469 36.1627 37.1484 36.5612 37.1484 37.0418V37.921C37.1484 37.9327 37.1484 37.9327 37.1484 37.9444V38.0499C37.1484 41.4376 34.3945 44.204 30.9961 44.204C27.6094 44.204 24.8438 41.4493 24.8438 38.0499V37.0418C24.8438 36.5612 24.4453 36.1627 23.9648 36.1627H22.9688C22.3477 36.1627 21.8438 35.6586 21.8438 35.0373C21.8438 34.6388 22.0547 34.2754 22.4063 34.0644C22.4883 34.0175 22.5586 33.9589 22.6172 33.8886C24.7852 33.83 31.8281 33.4197 36.457 30.7705C36.8789 30.5243 37.0195 29.9969 36.7852 29.5749C36.5391 29.1529 36.0117 29.0122 35.5898 29.2466C31.5352 31.5676 25.1602 32.0248 22.8516 32.1185V32.0131C22.8516 30.3837 23.3438 28.7895 24.2461 27.4649C24.3164 27.5704 24.4102 27.6759 24.5273 27.7462C24.668 27.8283 24.832 27.8752 24.9844 27.8752C25.1133 27.8752 25.2539 27.84 25.3828 27.7814L31.0195 24.9681L36.6562 27.7814C36.7852 27.84 36.9141 27.8752 37.0547 27.8752C37.2188 27.8752 37.3711 27.8283 37.5117 27.7462C37.6289 27.6759 37.7227 27.5821 37.793 27.4649C38.6953 28.8012 39.1875 30.3837 39.1875 32.0131V33.2908C39.1875 33.6073 39.3516 33.8886 39.6211 34.0527C39.9727 34.2637 40.1836 34.6271 40.1836 35.0256C40.1719 35.6586 39.6563 36.1627 39.0352 36.1627Z" fill="#A2A2A2"/>
<circle cx="60" cy="50" r="11.125" fill="white" stroke="#A2A2A2" stroke-width="1.75"/>
<path d="M59.0586 45.0997V51.4422C59.0586 52.0494 59.551 52.5418 60.1583 52.5418C60.7655 52.5418 61.2579 52.0494 61.2579 51.4422V45.0997C61.2579 44.4924 60.7655 44 60.1583 44C59.551 44 59.0586 44.4924 59.0586 45.0997Z" fill="#A2A2A2"/>
<path d="M60.1583 53.6835C59.5197 53.6835 59 54.2029 59 54.8417C59 55.4804 59.5197 56 60.1583 56C60.7969 56 61.3165 55.4804 61.3165 54.8417C61.3165 54.2029 60.7968 53.6835 60.1583 53.6835Z" fill="#A2A2A2"/>
</svg>
