<svg width="60" height="60" viewBox="0 0 60 60" fill="none" xmlns="http://www.w3.org/2000/svg">
<g clip-path="url(#clip0)">
<path d="M44.9923 46.0029C44.4402 46.0029 43.9925 46.4506 43.9925 47.0027V57.001C43.9925 57.5537 43.5448 58.0009 42.9927 58.0009H2.99949C2.44734 58.0009 1.99966 57.5537 1.99966 57.001V3.01023C1.99966 2.45808 2.44734 2.0104 2.99949 2.0104H42.9927C43.5448 2.0104 43.9925 2.45808 43.9925 3.01023V21.7873C43.9925 22.3395 44.4402 22.7871 44.9923 22.7871C45.5445 22.7871 45.9922 22.3395 45.9922 21.7873V3.01023C45.9922 1.35378 44.6491 0.0107422 42.9927 0.0107422H2.99949C1.34303 0.0107422 0 1.35378 0 3.01023V57.001C0 58.658 1.34303 60.0005 2.99949 60.0005H42.9927C44.6491 60.0005 45.9922 58.658 45.9922 57.001V47.0027C45.9922 46.4506 45.5445 46.0029 44.9923 46.0029Z" fill="white"/>
<path d="M59.8897 14.2277C59.6832 13.4598 59.1794 12.8051 58.49 12.4082C57.8002 12.0093 56.98 11.9014 56.2106 12.1079C55.4422 12.3149 54.7875 12.8183 54.3906 13.5076L53.8907 14.3776C53.4157 14.1047 52.8089 14.2653 52.5311 14.7379L49.9915 19.0667L49.1215 18.5668C48.8911 18.4335 48.6167 18.3974 48.3599 18.4667C48.1026 18.5365 47.8839 18.7055 47.7516 18.9369C47.4807 19.4148 47.6457 20.0221 48.1217 20.2965L48.9916 20.7964L40.4931 35.5239L38.3933 41.1333L37.3935 43.0026C36.8082 44.021 36.8707 45.2869 37.5536 46.2423L35.304 49.0016L34.6743 47.4222C34.3901 46.7183 33.7325 46.2359 32.9763 46.1769C32.2196 46.1173 31.4946 46.4913 31.1045 47.142L30.7447 47.7518L30.405 43.7525C30.3268 42.8063 29.5941 42.0457 28.6518 41.9315C27.7091 41.8177 26.8167 42.3826 26.5155 43.2828L24.0559 50.6614C23.8841 51.1833 24.1653 51.7457 24.6857 51.9215C24.7834 51.9669 24.8883 51.9942 24.9957 52.0011C25.4253 52.0025 25.8081 51.7286 25.9458 51.3215L28.395 43.9429L28.7451 48.0017C28.8173 48.8678 29.4398 49.5879 30.2863 49.7841C31.1329 49.9804 32.0087 49.6074 32.4544 48.8619L32.8245 48.2517L33.4445 49.8217C33.7076 50.4832 34.3027 50.9553 35.0072 51.0603C35.7117 51.1653 36.4186 50.8875 36.8638 50.3314L39.1935 47.3822C39.4513 47.4496 39.7168 47.4833 39.9834 47.4823C41.055 47.4906 42.0499 46.9262 42.5928 46.0021L43.5927 44.3324L47.4021 39.7033L55.9904 24.7957L56.8604 25.2956C57.0923 25.4284 57.2612 25.6476 57.3301 25.9059C57.3994 26.1622 57.3633 26.4356 57.2305 26.6655L53.2311 33.5945C53.0803 33.822 53.029 34.1013 53.0896 34.3678C53.1501 34.6339 53.3166 34.8638 53.5509 35.004C53.7813 35.1377 54.0557 35.1738 54.3125 35.1045C54.5698 35.0347 54.7885 34.8658 54.9208 34.6344L58.9201 27.7054C59.319 27.0156 59.4269 26.1954 59.2199 25.426C59.0129 24.6576 58.5095 24.0029 57.8202 23.606L56.9502 23.1061L59.4498 18.7767C59.7227 18.3017 59.5621 17.6954 59.09 17.4171L59.5899 16.5471C59.9995 15.8466 60.1079 15.0098 59.8897 14.2277V14.2277ZM56.1203 14.5074C56.2526 14.276 56.4723 14.1066 56.7306 14.0378C56.9873 13.9743 57.2588 14.01 57.4902 14.1379C57.7221 14.2702 57.891 14.4899 57.9603 14.7476C58.0238 15.0044 57.9881 15.2759 57.8602 15.5073L57.3603 16.3772L55.6204 15.3774L56.1203 14.5074ZM42.4927 42.4231L41.9928 42.1331L40.5131 41.2729L41.9328 37.4737L45.0821 39.2933L42.4927 42.4231ZM39.4933 45.3123C39.071 45.0179 38.9411 44.4516 39.1935 44.0024L39.6934 43.1329L41.4329 44.1328L40.933 44.9925C40.7928 45.2356 40.5575 45.4084 40.2836 45.4695C40.0098 45.53 39.7232 45.4734 39.4933 45.3123ZM46.2221 37.6539L42.7627 35.6542L50.7614 21.7962L54.2207 23.7959L46.2221 37.6539ZM55.2206 22.0662L51.7612 20.0666L53.7608 16.6072L57.2202 18.6068L55.2206 22.0662Z" fill="white"/>
<path d="M15.7771 44.8122L12.2382 48.3418L10.1184 46.2221C9.72835 45.8345 9.09858 45.8345 8.70851 46.2221C8.51909 46.41 8.41266 46.6654 8.41266 46.9319C8.41266 47.1985 8.51909 47.4543 8.70851 47.6418L10.8283 49.7615C11.2032 50.1335 11.7099 50.342 12.2382 50.3415C12.7693 50.3444 13.2805 50.136 13.6579 49.7615L17.187 46.2221C17.5268 45.8252 17.5039 45.234 17.1348 44.8649C16.7652 44.4953 16.174 44.4724 15.7771 44.8122Z" fill="white"/>
<path d="M3.99933 47.5017C3.99933 52.1957 7.80434 56.0003 12.4979 56.0003C17.1914 56.0003 20.9964 52.1957 20.9964 47.5017C20.9964 46.9496 20.5488 46.5019 19.9966 46.5019C19.4445 46.5019 18.9968 46.9496 18.9968 47.5017C18.9968 51.0909 16.0871 54.0006 12.4979 54.0006C8.90865 54.0006 5.99899 51.0909 5.99899 47.5017C5.99899 43.9125 8.90865 41.0028 12.4979 41.0028C13.9049 40.9989 15.2743 41.4554 16.3971 42.3029C16.8389 42.6344 17.4658 42.5445 17.7968 42.1027C18.1283 41.6609 18.0389 41.0345 17.5971 40.7031C15.0219 38.7717 11.5762 38.4612 8.69726 39.9005C5.81787 41.3402 3.99933 44.283 3.99933 47.5017Z" fill="white"/>
<path d="M35.9939 8.00845C36.546 8.00845 36.9937 7.56126 36.9937 7.00862C36.9937 6.45647 36.546 6.00879 35.9939 6.00879H9.9983C9.44615 6.00879 8.99847 6.45647 8.99847 7.00862V11.0079C8.99847 11.5606 9.44615 12.0078 9.9983 12.0078H35.9939C36.546 12.0078 36.9937 11.5606 36.9937 11.0079C36.9937 10.4558 36.546 10.0081 35.9939 10.0081H10.9981V8.00845H35.9939Z" fill="white"/>
<path d="M12.9978 14.0073C12.4457 14.0073 11.998 14.455 11.998 15.0072C11.998 15.5598 12.4457 16.007 12.9978 16.007H32.9944C33.5466 16.007 33.9943 15.5598 33.9943 15.0072C33.9943 14.455 33.5466 14.0073 32.9944 14.0073H12.9978Z" fill="white"/>
<path d="M38.9933 21.0063H16.9971C16.4449 21.0063 15.9973 21.454 15.9973 22.0062C15.9973 22.5588 16.4449 23.006 16.9971 23.006H38.9933C39.5455 23.006 39.9932 22.5588 39.9932 22.0062C39.9932 21.454 39.5455 21.0063 38.9933 21.0063Z" fill="white"/>
<path d="M28.995 28.0052C28.995 27.453 28.5474 27.0054 27.9952 27.0054H7.99861C7.44646 27.0054 6.99878 27.453 6.99878 28.0052C6.99878 28.5578 7.44646 29.005 7.99861 29.005H27.9952C28.5474 29.005 28.995 28.5578 28.995 28.0052Z" fill="white"/>
<path d="M38.9934 27.0054H31.9946C31.4424 27.0054 30.9948 27.453 30.9948 28.0052C30.9948 28.5578 31.4424 29.005 31.9946 29.005H38.9934C39.5455 29.005 39.9932 28.5578 39.9932 28.0052C39.9932 27.453 39.5455 27.0054 38.9934 27.0054Z" fill="white"/>
<path d="M17.9969 34.0041C18.5491 34.0041 18.9967 33.5569 18.9967 33.0042C18.9967 32.4521 18.5491 32.0044 17.9969 32.0044H7.99861C7.44646 32.0044 6.99878 32.4521 6.99878 33.0042C6.99878 33.5569 7.44646 34.0041 7.99861 34.0041H17.9969Z" fill="white"/>
<path d="M21.9963 34.0041H28.9951C29.5472 34.0041 29.9949 33.5569 29.9949 33.0042C29.9949 32.4521 29.5472 32.0044 28.9951 32.0044H21.9963C21.4441 32.0044 20.9965 32.4521 20.9965 33.0042C20.9965 33.5569 21.4441 34.0041 21.9963 34.0041Z" fill="white"/>
</g>
<defs>
<clipPath id="clip0">
<rect width="60" height="60" fill="white"/>
</clipPath>
</defs>
</svg>
