<svg width="60" height="60" viewBox="0 0 60 60" fill="none" xmlns="http://www.w3.org/2000/svg">
<path d="M45 56C45.552 56 46 55.552 46 55V23C46 22.5409 45.687 22.141 45.2429 22.03L29.243 18.0299C28.946 17.9549 28.6269 18.0229 28.3849 18.2119C28.1419 18.4009 28 18.6919 28 18.9999V40.9998C28 41.5518 28.448 41.9998 28.9999 41.9998C29.5519 41.9998 29.9999 41.5518 29.9999 40.9998V20.281L43.9999 23.781V55C44.0001 55.552 44.4481 56 45 56Z" fill="white"/>
<path d="M59 58H57V51.858C58.72 51.4111 60 49.858 60 48C60 45.7939 58.206 44 56 44C53.7941 44 52.0001 45.794 52.0001 48C52.0001 49.858 53.2801 51.4109 55.0001 51.858V58H30V53.8991C32.2789 53.4341 34 51.415 34 49C34 46.2431 31.757 44 28.9999 44C26.243 44 23.9999 46.243 23.9999 49C23.9999 51.415 25.7209 53.4341 27.9998 53.8991V58H6V47.8991C8.27895 47.4341 9.99996 45.415 9.99996 43C9.99996 40.2431 7.75699 38 4.99992 38C2.24297 38.0001 0 40.2431 0 43C0 45.415 1.72102 47.4341 3.99996 47.8991V58H0.999961C0.448008 58 0 58.448 0 59C0 59.552 0.448008 60.0001 0.999961 60.0001H58.9999C59.5519 60.0001 59.9999 59.5521 59.9999 59.0001C59.9999 58.4482 59.552 58 59 58ZM2.00004 43C2.00004 41.3461 3.34605 40 5.00004 40C6.65402 40 8.00004 41.3461 8.00004 43C8.00004 44.654 6.65402 46 5.00004 46C3.34605 46 2.00004 44.654 2.00004 43ZM26 49C26 47.3461 27.3461 46 29 46C30.654 46 32 47.3461 32 49C32 50.654 30.654 52 29 52C27.3461 52 26 50.654 26 49ZM54 48.0001C54 46.8971 54.897 46 56 46C57.1031 46 58.0001 46.897 58.0001 48.0001C58.0001 49.103 57.1031 50.0001 56 50.0001C54.897 50.0001 54 49.103 54 48.0001Z" fill="white"/>
<path d="M13 26C13.5519 26 13.9999 25.552 13.9999 25.0001V17.618L17.4469 15.895C17.7859 15.7249 17.9999 15.379 17.9999 15V6.61805L22.9999 4.11809L28 6.61805V15C28 15.552 28.448 16 28.9999 16C29.5519 16 30 15.552 30 15V6C30 5.62102 29.786 5.27496 29.447 5.10504L24 2.38195V0.999961C24 0.448008 23.552 0 23 0C22.4481 0 22.0001 0.448008 22.0001 0.999961V2.38195L16.5531 5.10492C16.2141 5.27496 16.0001 5.6209 16.0001 5.99988V14.3818L12.5531 16.1048C12.2141 16.2749 12.0001 16.6208 12.0001 16.9998V24.9998C12 25.552 12.448 26 13 26Z" fill="white"/>
<path d="M38 39C38 38.448 37.552 38 37.0001 38C36.4481 38 36.0001 38.448 36.0001 39V41C36.0001 41.5519 36.4481 42 37.0001 42C37.552 42 38 41.5519 38 41V39Z" fill="white"/>
<path d="M37 50C36.448 50 36 50.448 36 51V54.9999C36 55.5519 36.448 55.9999 37 55.9999C37.5519 55.9999 37.9999 55.5519 37.9999 54.9999V51C38 50.448 37.552 50 37 50Z" fill="white"/>
<path d="M42 27C42 26.448 41.552 26 41.0001 26C40.4481 26 40.0001 26.448 40.0001 27V29C40.0001 29.552 40.4481 30 41.0001 30C41.552 30 42 29.552 42 29V27Z" fill="white"/>
<path d="M38 33C38 32.448 37.552 32 37.0001 32C36.4481 32 36.0001 32.448 36.0001 33V35C36.0001 35.552 36.4481 36 37.0001 36C37.552 36 38 35.552 38 35V33Z" fill="white"/>
<path d="M38 45C38 44.448 37.552 44 37.0001 44C36.4481 44 36 44.448 36 45V47C36 47.5519 36.448 48 37 48C37.5519 48 37.9999 47.5519 37.9999 47V45H38Z" fill="white"/>
<path d="M42 33C42 32.448 41.552 32 41.0001 32C40.4481 32 40.0001 32.448 40.0001 33V35C40.0001 35.552 40.4481 36 41.0001 36C41.552 36 42 35.552 42 35V33Z" fill="white"/>
<path d="M34 27C34 26.448 33.552 26 33 26C32.448 26 32 26.448 32 27V29C32 29.552 32.448 30 33 30C33.552 30 34 29.552 34 29V27Z" fill="white"/>
<path d="M38 27C38 26.448 37.552 26 37.0001 26C36.4481 26 36.0001 26.448 36.0001 27V29C36.0001 29.552 36.4481 30 37.0001 30C37.552 30 38 29.552 38 29V27Z" fill="white"/>
<path d="M42 17V15C42 14.448 41.552 14 41.0001 14C40.4481 14 40.0001 14.448 40.0001 15V17C40.0001 17.552 40.4481 18 41.0001 18C41.552 18 42 17.552 42 17Z" fill="white"/>
<path d="M34 33C34 32.448 33.552 32 33 32C32.448 32 32 32.448 32 33V35C32 35.552 32.448 36 33 36C33.552 36 34 35.552 34 35V33Z" fill="white"/>
<path d="M46 15C46 14.448 45.5519 14 45 14C44.448 14 44 14.448 44 15V17C44 17.552 44.448 18 45 18C45.5519 18 46 17.552 46 17V15Z" fill="white"/>
<path d="M33 38C32.448 38 32 38.448 32 39V41C32 41.5519 32.448 42 33 42C33.552 42 34 41.5519 34 41V39C34 38.448 33.552 38 33 38Z" fill="white"/>
<path d="M50.0001 45C50.0001 44.448 49.5521 44 49.0001 44C48.4482 44 48 44.448 48 45V47C48 47.5519 48.448 48 49 48C49.5519 48 50 47.5519 50 47V45H50.0001Z" fill="white"/>
<path d="M49 50C48.448 50 48 50.448 48 51V54.9999C48 55.5519 48.448 55.9999 49 55.9999C49.5519 55.9999 50 55.5519 50 54.9999V51C50.0001 50.448 49.5521 50 49 50Z" fill="white"/>
<path d="M53 38C52.4481 38 52.0001 38.448 52.0001 39V41C52.0001 41.5519 52.4481 42 53 42C53.552 42 54 41.5519 54 41V39C54 38.448 53.552 38 53 38Z" fill="white"/>
<path d="M37 18C37.5519 18 37.9999 17.552 37.9999 17V12.7811L48 10.281V27C48 27.417 48.259 27.79 48.649 27.937L56 30.6931V41C56 41.552 56.448 42 57 42C57.552 42 58 41.552 58 41V30C58 29.5831 57.741 29.21 57.351 29.063L49.9999 26.307V6.99996C49.9999 6.44801 49.5519 6 49 6C48.448 6 48 6.44801 48 6.99996V8.21895L36.757 11.0299C36.3121 11.1409 36 11.541 36 11.9999V16.9999C36 17.552 36.448 18 37 18Z" fill="white"/>
<path d="M54 33C54 32.448 53.552 32 53 32C52.4481 32 52.0001 32.448 52.0001 33V35C52.0001 35.552 52.4481 36 53 36C53.552 36 54 35.552 54 35V33Z" fill="white"/>
<path d="M50 33C50 32.448 49.552 32 49.0001 32C48.4481 32 48.0001 32.448 48.0001 33V35C48.0001 35.552 48.4481 36 49.0001 36C49.552 36 50 35.552 50 35V33Z" fill="white"/>
<path d="M42 45C42 44.448 41.552 44 41.0001 44C40.4481 44 40.0001 44.448 40.0001 45V47C40.0001 47.5519 40.4481 48 41.0001 48C41.552 48 42 47.5519 42 47V45Z" fill="white"/>
<path d="M50 39C50 38.448 49.552 38 49.0001 38C48.4481 38 48.0001 38.448 48.0001 39V41C48.0001 41.5519 48.4481 42 49.0001 42C49.552 42 50 41.5519 50 41V39Z" fill="white"/>
<path d="M41.0001 50C40.4481 50 40.0001 50.448 40.0001 51V54.9999C40.0001 55.5519 40.4481 55.9999 41.0001 55.9999C41.552 55.9999 42 55.5519 42 54.9999V51C42 50.448 41.552 50 41.0001 50Z" fill="white"/>
<path d="M42 39C42 38.448 41.552 38 41.0001 38C40.4481 38 40.0001 38.448 40.0001 39V41C40.0001 41.5519 40.4481 42 41.0001 42C41.552 42 42 41.5519 42 41V39Z" fill="white"/>
<path d="M22 21C22 20.448 21.552 20 21 20C20.4481 20 20.0001 20.448 20.0001 21V23C20.0001 23.552 20.4481 24 21 24C21.552 24 22 23.552 22 23V21Z" fill="white"/>
<path d="M22 15C22 14.448 21.552 14 21 14C20.4481 14 20.0001 14.448 20.0001 15V17C20.0001 17.552 20.4481 18 21 18C21.552 18 22 17.552 22 17V15Z" fill="white"/>
<path d="M14 45C14 44.448 13.552 44 13.0001 44C12.4481 44 12 44.448 12 45V47C12 47.5519 12.448 48 13 48C13.5519 48 13.9999 47.5519 13.9999 47V45H14Z" fill="white"/>
<path d="M5.00005 35.9999C5.552 35.9999 6.00001 35.5519 6.00001 35V29.9999H16V54.9999C16 55.5518 16.448 55.9998 16.9999 55.9998C17.5519 55.9998 17.9999 55.5518 17.9999 54.9999V29C17.9999 28.448 17.5519 28 16.9999 28H4.99993C4.44798 28 3.99997 28.448 3.99997 29V35C3.99997 35.5519 4.44798 35.9999 5.00005 35.9999Z" fill="white"/>
<path d="M15.9999 21V23C15.9999 23.552 16.4479 24 16.9999 24C17.5519 24 17.9999 23.552 17.9999 23V21C17.9999 20.448 17.5519 20 16.9999 20C16.4479 20 15.9999 20.448 15.9999 21Z" fill="white"/>
<path d="M22 8.99996C22 8.44801 21.552 8 21 8C20.4481 8 20.0001 8.44801 20.0001 8.99996V11C20.0001 11.552 20.4481 12 21 12C21.552 12 22 11.552 22 11V8.99996Z" fill="white"/>
<path d="M13 50C12.448 50 12 50.448 12 51V54.9999C12 55.5519 12.448 55.9999 13 55.9999C13.5519 55.9999 13.9999 55.5519 13.9999 54.9999V51C14 50.448 13.552 50 13 50Z" fill="white"/>
<path d="M8.00003 51V54.9999C8.00003 55.5519 8.44804 55.9999 8.99999 55.9999C9.55195 55.9999 9.99995 55.5519 9.99995 54.9999V51C9.99995 50.448 9.55195 50 8.99999 50C8.44804 50 8.00003 50.448 8.00003 51Z" fill="white"/>
<path d="M14 33C14 32.448 13.552 32 13.0001 32C12.4481 32 12.0001 32.448 12.0001 33V35C12.0001 35.552 12.4481 36 13.0001 36C13.552 36 14 35.552 14 35V33Z" fill="white"/>
<path d="M14 39C14 38.448 13.552 38 13.0001 38C12.4481 38 12.0001 38.448 12.0001 39V41C12.0001 41.5519 12.4481 42 13.0001 42C13.552 42 14 41.5519 14 41V39Z" fill="white"/>
<path d="M8.00003 33V35C8.00003 35.552 8.44804 36 8.99999 36C9.55195 36 9.99995 35.552 9.99995 35V33C9.99995 32.448 9.55195 32 8.99999 32C8.44804 32 8.00003 32.448 8.00003 33Z" fill="white"/>
<path d="M22 39C22 38.448 21.552 38 21 38C20.4481 38 20.0001 38.448 20.0001 39V41C20.0001 41.5519 20.4481 42 21 42C21.552 42 22 41.5519 22 41V39Z" fill="white"/>
<path d="M26 27C26 26.448 25.552 26 25.0001 26C24.4481 26 24.0001 26.448 24.0001 27V29C24.0001 29.552 24.4481 30 25.0001 30C25.552 30 26 29.552 26 29V27Z" fill="white"/>
<path d="M26 21C26 20.448 25.552 20 25.0001 20C24.4481 20 24.0001 20.448 24.0001 21V23C24.0001 23.552 24.4481 24 25.0001 24C25.552 24 26 23.552 26 23V21Z" fill="white"/>
<path d="M26 33C26 32.448 25.552 32 25.0001 32C24.4481 32 24.0001 32.448 24.0001 33V35C24.0001 35.552 24.4481 36 25.0001 36C25.552 36 26 35.552 26 35V33Z" fill="white"/>
<path d="M25 38C24.448 38 24 38.448 24 39V41C24 41.5519 24.448 42 25 42C25.5519 42 25.9999 41.5519 25.9999 41V39C26 38.448 25.552 38 25 38Z" fill="white"/>
<path d="M26 15C26 14.448 25.552 14 25.0001 14C24.4481 14 24.0001 14.448 24.0001 15V17C24.0001 17.552 24.4481 18 25.0001 18C25.552 18 26 17.552 26 17V15Z" fill="white"/>
<path d="M22 45C22 44.448 21.552 44 21 44C20.4481 44 20.0001 44.448 20.0001 45V47C20.0001 47.5519 20.4481 48 21 48C21.552 48 22 47.5519 22 47V45Z" fill="white"/>
<path d="M22 33C22 32.448 21.552 32 21 32C20.4481 32 20.0001 32.448 20.0001 33V35C20.0001 35.552 20.4481 36 21 36C21.552 36 22 35.552 22 35V33Z" fill="white"/>
<path d="M21 50C20.4481 50 20.0001 50.448 20.0001 51V54.9999C20.0001 55.5519 20.4481 55.9999 21 55.9999C21.552 55.9999 22 55.5519 22 54.9999V51C22 50.448 21.552 50 21 50Z" fill="white"/>
<path d="M26 8.99996C26 8.44801 25.552 8 25.0001 8C24.4481 8 24.0001 8.44801 24.0001 8.99996V11C24.0001 11.552 24.4481 12 25.0001 12C25.552 12 26 11.552 26 11V8.99996Z" fill="white"/>
<path d="M22 27C22 26.448 21.552 26 21 26C20.4481 26 20.0001 26.448 20.0001 27V29C20.0001 29.552 20.4481 30 21 30C21.552 30 22 29.552 22 29V27Z" fill="white"/>
</svg>
