<svg width="60" height="60" viewBox="0 0 60 60" fill="none" xmlns="http://www.w3.org/2000/svg">
<path d="M56.8457 25.6379C58.585 25.6379 60 24.2228 60 22.4835C60 20.7442 58.585 19.3292 56.8457 19.3292H55.7719C54.2036 19.3292 52.8993 20.48 52.6578 21.9812L49.9723 14.5957C49.367 12.9309 47.7701 11.8124 45.9987 11.8124H38.342L37.7753 8.97918C37.4816 7.50977 36.1806 6.44336 34.6822 6.44336H25.3175C23.8192 6.44336 22.5184 7.50977 22.2245 8.97918L21.6579 11.8124H14.0012C12.2298 11.8124 10.6329 12.931 10.0276 14.5956L7.34215 21.9811C7.10086 20.48 5.79656 19.3292 4.22824 19.3292H3.15445C1.41504 19.3292 0 20.7442 0 22.4835C0 24.2228 1.41504 25.6379 3.15434 25.6379H4.22813C4.72395 25.6379 5.19316 25.5225 5.61105 25.3178L3.30949 28.1949C2.5602 29.1314 2.14758 30.3077 2.14758 31.507V51.4768C2.14758 52.624 3.08086 53.5573 4.22813 53.5573H7.44961C8.59687 53.5573 9.53016 52.624 9.53016 51.4768V47.1143H50.4697V51.4768C50.4697 52.624 51.403 53.5573 52.5503 53.5573H55.7718C56.919 53.5573 57.8523 52.624 57.8523 51.4768V31.507C57.8523 30.3077 57.4397 29.1313 56.6904 28.1949L54.3888 25.3178C54.8067 25.5225 55.2759 25.6379 55.7718 25.6379H56.8457V25.6379ZM4.22824 23.6245H3.15445C2.52527 23.6245 2.01352 23.1127 2.01352 22.4835C2.01352 21.8543 2.52527 21.3426 3.15445 21.3426H4.22824C4.85742 21.3426 5.36918 21.8543 5.36918 22.4835C5.36918 23.1126 4.8573 23.6245 4.22824 23.6245ZM24.1989 9.37387C24.3052 8.84242 24.7757 8.45664 25.3175 8.45664H34.6822C35.2242 8.45664 35.6947 8.84242 35.8009 9.37387L36.2886 11.8124H23.7111L24.1989 9.37387ZM7.51676 51.4768C7.51676 51.5138 7.48664 51.5439 7.44961 51.5439H4.22813C4.19109 51.5439 4.16098 51.5138 4.16098 51.4768V46.486C4.80551 46.8839 5.56418 47.1143 6.3757 47.1143H7.51664V51.4768H7.51676ZM41.8792 45.1009H18.1208V42.8862C18.1208 42.8492 18.1509 42.8191 18.188 42.8191H41.8121C41.8492 42.8191 41.8793 42.8492 41.8793 42.8862V45.1009H41.8792ZM55.8389 51.4768C55.8389 51.5138 55.8088 51.5439 55.7718 51.5439H52.5503C52.5132 51.5439 52.4831 51.5138 52.4831 51.4768V47.1143H53.6241C54.4356 47.1143 55.1943 46.8839 55.8388 46.486V51.4768H55.8389ZM55.1184 29.4527C55.583 30.0336 55.839 30.7632 55.839 31.5071V42.8862C55.839 44.1074 54.8455 45.1009 53.6243 45.1009H43.8926V42.8862C43.8926 41.7389 42.9593 40.8057 41.812 40.8057H18.188C17.0407 40.8057 16.1074 41.7389 16.1074 42.8862V45.1009H6.37582C5.15461 45.1009 4.16109 44.1074 4.16109 42.8862V31.5071C4.16109 30.7632 4.41703 30.0336 4.8818 29.4527L7.93348 25.6379H36.443C36.9989 25.6379 37.4497 25.1871 37.4497 24.6311C37.4497 24.0752 36.999 23.6243 36.443 23.6243H8.88703L11.9201 15.2835C12.2371 14.4115 13.0736 13.8257 14.0014 13.8257H45.9988C46.9267 13.8257 47.763 14.4116 48.0802 15.2835L51.1132 23.6243H47.1814C46.6255 23.6243 46.1747 24.075 46.1747 24.6311C46.1747 25.187 46.6254 25.6379 47.1814 25.6379H52.0668L55.1184 29.4527ZM54.6308 22.4835C54.6308 21.8543 55.1426 21.3426 55.7718 21.3426H56.8455C57.4747 21.3426 57.9865 21.8543 57.9865 22.4835C57.9865 23.1127 57.4747 23.6245 56.8455 23.6245H55.7718C55.1427 23.6245 54.6308 23.1126 54.6308 22.4835Z" fill="white"/>
<path d="M42.8858 23.624H40.7386C40.1826 23.624 39.7318 24.0747 39.7318 24.6308C39.7318 25.1867 40.1825 25.6375 40.7386 25.6375H42.8858C43.4417 25.6375 43.8926 25.1868 43.8926 24.6308C43.8924 24.0747 43.4417 23.624 42.8858 23.624Z" fill="white"/>
<path d="M43.1504 31.9408C42.7534 31.4323 42.1556 31.1406 41.5105 31.1406H18.4894C17.8442 31.1406 17.2466 31.4323 16.8494 31.9408C16.4524 32.4494 16.3144 33.0999 16.4709 33.7258L17.0079 35.8736C17.2399 36.8014 18.0699 37.4494 19.0263 37.4494H40.9737C41.93 37.4494 42.7599 36.8014 42.9921 35.8735L43.529 33.7258C43.6855 33.0998 43.5474 32.4493 43.1504 31.9408ZM41.5756 33.2376L41.0387 35.3852C41.0312 35.4153 41.0045 35.436 40.9737 35.436H19.0263C18.9955 35.436 18.9685 35.415 18.9612 35.3853L18.4242 33.2376C18.4217 33.2281 18.4162 33.2058 18.4364 33.18C18.4565 33.1543 18.4795 33.1543 18.4892 33.1543H41.5105C41.5203 33.1543 41.5432 33.1543 41.5633 33.18C41.5835 33.2058 41.5781 33.228 41.5756 33.2376Z" fill="white"/>
<path d="M10.6711 38.6577C9.52386 38.6577 8.59058 39.591 8.59058 40.7383C8.59058 41.8855 9.52386 42.8188 10.6711 42.8188C11.8184 42.8188 12.7517 41.8855 12.7517 40.7383C12.7517 39.591 11.8184 38.6577 10.6711 38.6577Z" fill="white"/>
<path d="M49.3288 38.6577C48.1816 38.6577 47.2483 39.591 47.2483 40.7383C47.2483 41.8855 48.1816 42.8188 49.3288 42.8188C50.4761 42.8188 51.4094 41.8855 51.4094 40.7383C51.4094 39.591 50.476 38.6577 49.3288 38.6577Z" fill="white"/>
<path d="M10.1343 30.0669C8.09885 30.0669 6.44299 31.7228 6.44299 33.7582C6.44299 35.7936 8.09885 37.4495 10.1343 37.4495C12.1697 37.4495 13.8256 35.7936 13.8256 33.7582C13.8256 31.7228 12.1697 30.0669 10.1343 30.0669ZM10.1343 35.436C9.20909 35.436 8.45639 34.6834 8.45639 33.7581C8.45639 32.8328 9.20897 32.0802 10.1343 32.0802C11.0596 32.0802 11.8122 32.8328 11.8122 33.7581C11.8122 34.6834 11.0595 35.436 10.1343 35.436Z" fill="white"/>
<path d="M49.8657 30.0669C47.8303 30.0669 46.1744 31.7228 46.1744 33.7582C46.1744 35.7936 47.8303 37.4495 49.8657 37.4495C51.9012 37.4495 53.557 35.7936 53.557 33.7582C53.557 31.7228 51.9012 30.0669 49.8657 30.0669ZM49.8657 35.436C48.9405 35.436 48.1878 34.6834 48.1878 33.7581C48.1878 32.8328 48.9404 32.0802 49.8657 32.0802C50.7909 32.0802 51.5436 32.8328 51.5436 33.7581C51.5436 34.6834 50.791 35.436 49.8657 35.436Z" fill="white"/>
</svg>
