<svg width="60" height="60" viewBox="0 0 60 60" fill="none" xmlns="http://www.w3.org/2000/svg">
<g clip-path="url(#clip0)">
<path d="M44.9923 46.0029C44.4402 46.0029 43.9925 46.4506 43.9925 47.0027V57.001C43.9925 57.5537 43.5448 58.0009 42.9927 58.0009H2.99949C2.44734 58.0009 1.99966 57.5537 1.99966 57.001V3.01023C1.99966 2.45808 2.44734 2.0104 2.99949 2.0104H42.9927C43.5448 2.0104 43.9925 2.45808 43.9925 3.01023V21.7873C43.9925 22.3395 44.4402 22.7871 44.9923 22.7871C45.5445 22.7871 45.9922 22.3395 45.9922 21.7873V3.01023C45.9922 1.35378 44.6491 0.0107422 42.9927 0.0107422H2.99949C1.34303 0.0107422 0 1.35378 0 3.01023V57.001C0 58.658 1.34303 60.0005 2.99949 60.0005H42.9927C44.6491 60.0005 45.9922 58.658 45.9922 57.001V47.0027C45.9922 46.4506 45.5445 46.0029 44.9923 46.0029Z" fill="#D6AA6D"/>
<path d="M59.8896 14.2277C59.6831 13.4598 59.1792 12.8051 58.4899 12.4082C57.8001 12.0093 56.9799 11.9014 56.2105 12.1079C55.4421 12.3149 54.7874 12.8183 54.3905 13.5076L53.8906 14.3776C53.4156 14.1047 52.8087 14.2653 52.531 14.7379L49.9913 19.0667L49.1214 18.5668C48.8909 18.4335 48.6166 18.3974 48.3598 18.4667C48.1025 18.5365 47.8838 18.7055 47.7515 18.9369C47.4805 19.4148 47.6456 20.0221 48.1215 20.2965L48.9915 20.7964L40.493 35.5239L38.3932 41.1333L37.3934 43.0026C36.808 44.021 36.8705 45.2869 37.5535 46.2423L35.3039 49.0016L34.6741 47.4222C34.39 46.7183 33.7324 46.2359 32.9762 46.1768C32.2195 46.1173 31.4945 46.4912 31.1044 47.142L30.7446 47.7518L30.4048 43.7525C30.3267 42.8063 29.5939 42.0457 28.6517 41.9315C27.709 41.8177 26.8166 42.3826 26.5154 43.2828L24.0558 50.6614C23.884 51.1833 24.1652 51.7457 24.6856 51.9215C24.7832 51.9669 24.8882 51.9942 24.9956 52.0011C25.4252 52.0025 25.808 51.7286 25.9456 51.3215L28.3949 43.9429L28.745 48.0017C28.8172 48.8678 29.4397 49.5879 30.2862 49.7841C31.1327 49.9804 32.0086 49.6074 32.4543 48.8619L32.8243 48.2517L33.4444 49.8217C33.7075 50.4832 34.3026 50.9553 35.0071 51.0603C35.7116 51.1653 36.4185 50.8875 36.8637 50.3314L39.1934 47.3822C39.4511 47.4496 39.7167 47.4833 39.9833 47.4823C41.0549 47.4906 42.0498 46.9262 42.5927 46.0021L43.5925 44.3324L47.4019 39.7033L55.9903 24.7957L56.8603 25.2956C57.0922 25.4284 57.2611 25.6476 57.3299 25.9059C57.3993 26.1622 57.3631 26.4356 57.2303 26.6655L53.231 33.5945C53.0802 33.822 53.0289 34.1013 53.0895 34.3678C53.15 34.6339 53.3165 34.8638 53.5508 35.004C53.7812 35.1377 54.0556 35.1738 54.3124 35.1045C54.5697 35.0347 54.7884 34.8658 54.9207 34.6344L58.92 27.7054C59.3189 27.0156 59.4267 26.1954 59.2198 25.426C59.0128 24.6576 58.5094 24.0029 57.8201 23.606L56.9501 23.1061L59.4497 18.7767C59.7226 18.3017 59.562 17.6954 59.0899 17.4171L59.5898 16.5471C59.9994 15.8466 60.1078 15.0098 59.8896 14.2277ZM56.1202 14.5074C56.2525 14.276 56.4722 14.1066 56.7304 14.0378C56.9872 13.9743 57.2587 14.01 57.4901 14.1379C57.722 14.2702 57.8909 14.4899 57.9602 14.7476C58.0237 15.0044 57.988 15.2759 57.8601 15.5073L57.3602 16.3772L55.6203 15.3774L56.1202 14.5074ZM42.4926 42.4231L41.9927 42.1331L40.513 41.2729L41.9327 37.4737L45.082 39.2933L42.4926 42.4231ZM39.4931 45.3123C39.0708 45.0179 38.941 44.4516 39.1934 44.0024L39.6933 43.1329L41.4327 44.1328L40.9328 44.9925C40.7927 45.2356 40.5574 45.4084 40.2835 45.4695C40.0096 45.53 39.7231 45.4734 39.4931 45.3123ZM46.222 37.6539L42.7626 35.6542L50.7612 21.7962L54.2206 23.7959L46.222 37.6539ZM55.2204 22.0662L51.7611 20.0666L53.7607 16.6072L57.2201 18.6068L55.2204 22.0662Z" fill="#D6AA6D"/>
<path d="M15.7771 44.8122L12.2381 48.3418L10.1184 46.2221C9.72829 45.8345 9.09852 45.8345 8.70845 46.2221C8.51902 46.41 8.4126 46.6654 8.4126 46.9319C8.4126 47.1985 8.51902 47.4543 8.70845 47.6418L10.8282 49.7615C11.2031 50.1335 11.7099 50.342 12.2381 50.3415C12.7693 50.3444 13.2804 50.136 13.6578 49.7615L17.187 46.2221C17.5268 45.8252 17.5038 45.234 17.1347 44.8649C16.7652 44.4953 16.174 44.4724 15.7771 44.8122Z" fill="#D4D4D4"/>
<path d="M3.99927 47.5017C3.99927 52.1957 7.80428 56.0003 12.4978 56.0003C17.1914 56.0003 20.9964 52.1957 20.9964 47.5017C20.9964 46.9496 20.5487 46.5019 19.9965 46.5019C19.4444 46.5019 18.9967 46.9496 18.9967 47.5017C18.9967 51.0909 16.0871 54.0006 12.4978 54.0006C8.90859 54.0006 5.99893 51.0909 5.99893 47.5017C5.99893 43.9125 8.90859 41.0028 12.4978 41.0028C13.9048 40.9989 15.2742 41.4554 16.3971 42.3029C16.8389 42.6344 17.4657 42.5445 17.7967 42.1027C18.1282 41.6609 18.0389 41.0345 17.597 40.7031C15.0218 38.7717 11.5761 38.4612 8.6972 39.9005C5.81781 41.3402 3.99927 44.283 3.99927 47.5017Z" fill="#D4D4D4"/>
<path d="M35.9939 8.00845C36.5461 8.00845 36.9938 7.56126 36.9938 7.00862C36.9938 6.45647 36.5461 6.00879 35.9939 6.00879H9.99837C9.44621 6.00879 8.99854 6.45647 8.99854 7.00862V11.0079C8.99854 11.5606 9.44621 12.0078 9.99837 12.0078H35.9939C36.5461 12.0078 36.9938 11.5606 36.9938 11.0079C36.9938 10.4558 36.5461 10.0081 35.9939 10.0081H10.9982V8.00845H35.9939Z" fill="#D4D4D4"/>
<path d="M12.9979 14.0073C12.4457 14.0073 11.998 14.455 11.998 15.0072C11.998 15.5598 12.4457 16.007 12.9979 16.007H32.9945C33.5466 16.007 33.9943 15.5598 33.9943 15.0072C33.9943 14.455 33.5466 14.0073 32.9945 14.0073H12.9979Z" fill="#D4D4D4"/>
<path d="M38.9931 21.0063H16.9969C16.4447 21.0063 15.9971 21.454 15.9971 22.0062C15.9971 22.5588 16.4447 23.006 16.9969 23.006H38.9931C39.5453 23.006 39.993 22.5588 39.993 22.0062C39.993 21.454 39.5453 21.0063 38.9931 21.0063Z" fill="#D4D4D4"/>
<path d="M28.995 28.0052C28.995 27.453 28.5474 27.0054 27.9952 27.0054H7.99861C7.44646 27.0054 6.99878 27.453 6.99878 28.0052C6.99878 28.5578 7.44646 29.005 7.99861 29.005H27.9952C28.5474 29.005 28.995 28.5578 28.995 28.0052Z" fill="#D4D4D4"/>
<path d="M38.9933 27.0054H31.9945C31.4423 27.0054 30.9946 27.453 30.9946 28.0052C30.9946 28.5578 31.4423 29.005 31.9945 29.005H38.9933C39.5454 29.005 39.9931 28.5578 39.9931 28.0052C39.9931 27.453 39.5454 27.0054 38.9933 27.0054Z" fill="#D4D4D4"/>
<path d="M17.9969 34.0041C18.5491 34.0041 18.9967 33.5569 18.9967 33.0042C18.9967 32.4521 18.5491 32.0044 17.9969 32.0044H7.99861C7.44646 32.0044 6.99878 32.4521 6.99878 33.0042C6.99878 33.5569 7.44646 34.0041 7.99861 34.0041H17.9969Z" fill="#D4D4D4"/>
<path d="M21.9962 34.0041H28.995C29.5471 34.0041 29.9948 33.5569 29.9948 33.0042C29.9948 32.4521 29.5471 32.0044 28.995 32.0044H21.9962C21.444 32.0044 20.9963 32.4521 20.9963 33.0042C20.9963 33.5569 21.444 34.0041 21.9962 34.0041Z" fill="#D4D4D4"/>
</g>
<defs>
<clipPath id="clip0">
<rect width="60" height="60" fill="white"/>
</clipPath>
</defs>
</svg>
