<svg width="140" height="56" viewBox="0 0 140 56" fill="none" xmlns="http://www.w3.org/2000/svg">
<rect x="10" y="6" width="30" height="4" fill="#D6AA6D"/>
<rect y="13" width="50" height="4" fill="#D6AA6D"/>
<rect x="5" y="20" width="40" height="4" fill="#D6AA6D"/>
<path d="M13 28H17V42L13 40V28Z" fill="#D6AA6D"/>
<path d="M23 28H27V46L23 44V28Z" fill="#D6AA6D"/>
<path d="M33 28H37V51L33 49V28Z" fill="#D6AA6D"/>
<path d="M66.8867 22V5.55859H69.5596V19.6079H75.5342V22H66.8867ZM87.7642 17.0361H79.2515C79.3114 18.0319 79.6071 18.8105 80.1387 19.3721C80.6702 19.9261 81.3778 20.2031 82.2612 20.2031C83.0474 20.2031 83.7025 20.0384 84.2266 19.709C84.7507 19.3796 85.2074 18.848 85.5967 18.1143L87.6519 19.2598C87.0529 20.3304 86.3117 21.1278 85.4282 21.6519C84.5448 22.1759 83.5078 22.438 82.3174 22.438C80.6104 22.438 79.2515 21.9176 78.2407 20.877C77.23 19.8363 76.7246 18.4474 76.7246 16.7104C76.7246 15.0409 77.245 13.6707 78.2856 12.6001C79.3338 11.522 80.6777 10.9829 82.3174 10.9829C84.0319 10.9829 85.3683 11.4733 86.3267 12.4541C87.285 13.4349 87.7642 14.8088 87.7642 16.5757V17.0361ZM85.2373 15.3965C85.14 14.6328 84.848 14.0526 84.3613 13.6558C83.8747 13.2515 83.2083 13.0493 82.3623 13.0493C81.5612 13.0493 80.9173 13.244 80.4307 13.6333C79.944 14.0226 79.6034 14.6104 79.4087 15.3965H85.2373ZM91.0435 22H88.3481L92.3799 16.2725L88.9321 11.3535H91.6162L93.1099 13.5547C93.2671 13.7793 93.4056 13.9964 93.5254 14.2061C93.6452 14.4157 93.7537 14.6291 93.8511 14.8462C93.9409 14.6665 94.042 14.4793 94.1543 14.2847C94.2741 14.0825 94.4238 13.8317 94.6035 13.5322L96.0859 11.3535H98.7476L95.2998 16.2949L99.2979 22H96.6362L94.6597 19.2036L94.5698 19.0688C94.188 18.4924 93.9409 18.0506 93.8286 17.7437C93.6789 18.0282 93.5329 18.2939 93.3906 18.541C93.2559 18.7806 93.1174 19.0052 92.9751 19.2148L91.0435 22ZM65.9434 46.7095L68.0771 45.7212C68.2793 46.4549 68.6499 47.0164 69.189 47.4058C69.728 47.7876 70.4168 47.9785 71.2554 47.9785C72.049 47.9785 72.6779 47.7576 73.1421 47.3159C73.6138 46.8742 73.8496 46.2827 73.8496 45.5415C73.8496 44.5757 73.0485 43.7147 71.4463 42.9585C71.2217 42.8462 71.0495 42.7638 70.9297 42.7114C69.1178 41.828 67.9087 41.0306 67.3022 40.3193C66.7033 39.6006 66.4038 38.7246 66.4038 37.6914C66.4038 36.3512 66.8568 35.2656 67.7627 34.4346C68.6761 33.6035 69.8703 33.188 71.3452 33.188C72.5581 33.188 73.5726 33.4238 74.3887 33.8955C75.2048 34.3597 75.77 35.0298 76.0845 35.9058L73.9956 36.9839C73.6662 36.4673 73.3031 36.0892 72.9062 35.8496C72.5169 35.61 72.0677 35.4902 71.5586 35.4902C70.8398 35.4902 70.2671 35.6774 69.8403 36.0518C69.4211 36.4261 69.2114 36.9277 69.2114 37.5566C69.2114 38.5449 70.1398 39.4658 71.9966 40.3193C72.1388 40.3867 72.2511 40.4391 72.3335 40.4766C73.9582 41.2253 75.0737 41.959 75.6802 42.6777C76.2866 43.389 76.5898 44.2799 76.5898 45.3506C76.5898 46.9079 76.0994 48.147 75.1187 49.0679C74.1379 49.9813 72.8127 50.438 71.1431 50.438C69.743 50.438 68.5938 50.116 67.6953 49.4722C66.8044 48.8283 66.2204 47.9074 65.9434 46.7095ZM89.561 45.0361H81.0483C81.1082 46.0319 81.404 46.8105 81.9355 47.3721C82.4671 47.9261 83.1746 48.2031 84.0581 48.2031C84.8442 48.2031 85.4993 48.0384 86.0234 47.709C86.5475 47.3796 87.0042 46.848 87.3936 46.1143L89.4487 47.2598C88.8498 48.3304 88.1086 49.1278 87.2251 49.6519C86.3416 50.1759 85.3047 50.438 84.1143 50.438C82.4072 50.438 81.0483 49.9176 80.0376 48.877C79.0269 47.8363 78.5215 46.4474 78.5215 44.7104C78.5215 43.0409 79.0418 41.6707 80.0825 40.6001C81.1307 39.522 82.4746 38.9829 84.1143 38.9829C85.8288 38.9829 87.1652 39.4733 88.1235 40.4541C89.0819 41.4349 89.561 42.8088 89.561 44.5757V45.0361ZM87.0342 43.3965C86.9368 42.6328 86.6449 42.0526 86.1582 41.6558C85.6715 41.2515 85.0052 41.0493 84.1592 41.0493C83.3581 41.0493 82.7142 41.244 82.2275 41.6333C81.7409 42.0226 81.4002 42.6104 81.2056 43.3965H87.0342ZM94.5474 41.0493C94.8094 40.3455 95.1538 39.8252 95.5806 39.4883C96.0148 39.1514 96.5501 38.9829 97.1865 38.9829C97.5309 38.9829 97.8678 39.0241 98.1973 39.1064C98.5342 39.1888 98.8636 39.3086 99.1855 39.4658L98.3096 41.5322C98.0999 41.3825 97.8716 41.2739 97.6245 41.2065C97.3849 41.1317 97.1154 41.0942 96.8159 41.0942C96.0073 41.0942 95.4271 41.4199 95.0752 42.0713C94.7233 42.7152 94.5474 43.8008 94.5474 45.3281V50H92.1104V39.3311H94.5474V41.0493ZM104.318 50.6401L98.7363 39.3535H101.398L103.723 44.7104C103.798 44.8752 103.887 45.1222 103.992 45.4517C104.097 45.7811 104.206 46.1742 104.318 46.6309C104.393 46.3089 104.479 45.9907 104.576 45.6763C104.681 45.3543 104.805 45.0324 104.947 44.7104L107.26 39.3535H109.911L104.318 50.6401ZM111.236 34.749C111.236 34.3372 111.386 33.9816 111.685 33.6821C111.992 33.3826 112.355 33.2329 112.774 33.2329C113.209 33.2329 113.568 33.3789 113.853 33.6709C114.145 33.9554 114.291 34.3148 114.291 34.749C114.291 35.1833 114.145 35.5501 113.853 35.8496C113.561 36.1416 113.201 36.2876 112.774 36.2876C112.355 36.2876 111.992 36.1379 111.685 35.8384C111.386 35.5314 111.236 35.1683 111.236 34.749ZM111.562 50V39.3535H113.999V50H111.562ZM125.442 42.3857C125.068 41.974 124.63 41.6595 124.128 41.4424C123.634 41.2253 123.099 41.1167 122.522 41.1167C121.527 41.1167 120.729 41.4386 120.13 42.0825C119.531 42.7264 119.232 43.5799 119.232 44.6431C119.232 45.7511 119.531 46.6234 120.13 47.2598C120.737 47.8887 121.572 48.2031 122.635 48.2031C123.226 48.2031 123.754 48.0946 124.218 47.8774C124.682 47.6528 125.09 47.3159 125.442 46.8667V49.6743C124.993 49.9289 124.51 50.1198 123.994 50.2471C123.485 50.3743 122.942 50.438 122.365 50.438C120.696 50.438 119.333 49.9064 118.277 48.8433C117.229 47.7801 116.705 46.4025 116.705 44.7104C116.705 42.9959 117.248 41.6146 118.333 40.5664C119.427 39.5107 120.853 38.9829 122.612 38.9829C123.166 38.9829 123.675 39.0391 124.14 39.1514C124.604 39.2562 125.038 39.4209 125.442 39.6455V42.3857ZM138.189 45.0361H129.676C129.736 46.0319 130.032 46.8105 130.563 47.3721C131.095 47.9261 131.803 48.2031 132.686 48.2031C133.472 48.2031 134.127 48.0384 134.651 47.709C135.175 47.3796 135.632 46.848 136.021 46.1143L138.077 47.2598C137.478 48.3304 136.736 49.1278 135.853 49.6519C134.97 50.1759 133.933 50.438 132.742 50.438C131.035 50.438 129.676 49.9176 128.666 48.877C127.655 47.8363 127.149 46.4474 127.149 44.7104C127.149 43.0409 127.67 41.6707 128.71 40.6001C129.759 39.522 131.103 38.9829 132.742 38.9829C134.457 38.9829 135.793 39.4733 136.751 40.4541C137.71 41.4349 138.189 42.8088 138.189 44.5757V45.0361ZM135.662 43.3965C135.565 42.6328 135.273 42.0526 134.786 41.6558C134.299 41.2515 133.633 41.0493 132.787 41.0493C131.986 41.0493 131.342 41.244 130.855 41.6333C130.369 42.0226 130.028 42.6104 129.833 43.3965H135.662Z" fill="#222222"/>
</svg>
