<svg width="30" height="30" viewBox="0 0 30 30" fill="none" xmlns="http://www.w3.org/2000/svg">
<g clip-path="url(#clip0)">
<path d="M19.6504 15.1144C19.2293 15.1144 18.8867 15.457 18.8867 15.8781V18.4306C18.8867 18.8517 19.2293 19.1942 19.6504 19.1942H30V15.1144H19.6504V15.1144ZM20.9383 18.3316C20.288 18.3316 19.7609 17.8045 19.7609 17.1542C19.7609 16.504 20.288 15.9768 20.9383 15.9768C21.5885 15.9768 22.1156 16.5039 22.1156 17.1542C22.1156 17.8045 21.5885 18.3316 20.9383 18.3316Z" fill="#D6AA6D"/>
<path d="M19.6504 13.3321H30V8.96191C30 7.55807 28.8579 6.41602 27.4541 6.41602H27.0976H7.83416H2.5459C1.14211 6.41602 0 7.55807 0 8.96191V27.1287C0 28.5326 1.14211 29.6747 2.5459 29.6747H27.454C28.8579 29.6747 29.9999 28.5326 29.9999 27.1287V20.9764H19.6504C18.2466 20.9764 17.1045 19.8343 17.1045 18.4305V15.878C17.1045 14.4742 18.2467 13.3321 19.6504 13.3321Z" fill="#D6AA6D"/>
<path d="M24.9272 0.325317L12.8359 4.63372H26.4624L24.9272 0.325317Z" fill="#D6AA6D"/>
</g>
<defs>
<clipPath id="clip0">
<rect width="30" height="30" fill="white"/>
</clipPath>
</defs>
</svg>
