<svg width="36" height="36" viewBox="0 0 36 36" fill="none" xmlns="http://www.w3.org/2000/svg">
<g clip-path="url(#clip0)">
<path d="M9.40948 15.5658L12.5871 14.1094L9.10054 13.3959L8.90194 14.308C8.7769 14.7934 9.00492 15.2789 9.40948 15.5658Z" fill="#E6B775"/>
<path d="M26.195 19.2583L3.31909 29.7253L4.20176 31.6377L27.085 21.1708L26.195 19.2583Z" fill="#E6B775"/>
<path d="M26.8274 17.0811L27.9454 19.5084L32.1013 20.369C32.7486 20.5014 33.3812 20.0895 33.521 19.4422L33.7196 18.508L26.8274 17.0811Z" fill="#E6B775"/>
<path d="M22.9879 12.3367C22.7083 11.7262 21.9948 11.4614 21.3843 11.7409L0.715138 21.2002C0.11198 21.4871 -0.174888 22.2006 0.11198 22.8037L2.65701 28.3792L25.5402 17.9122L22.9879 12.3367ZM19.4498 18.6846L18.0743 15.6835L21.0754 14.2859L22.4509 17.287L19.4498 18.6846Z" fill="#E6B775"/>
<path d="M4.80493 33.0722L5.20213 33.9328C5.489 34.5359 6.20249 34.8228 6.80565 34.5359L27.4601 25.0767C28.1001 24.7824 28.3722 24.0248 28.0633 23.3996L27.6808 22.6125L4.80493 33.0722Z" fill="#E6B775"/>
<path d="M24.937 12.9619L26.0551 15.3672L34.0359 17.0222L34.4625 14.9406L24.937 12.9619Z" fill="#E6B775"/>
<path d="M35.0658 5.98885L12.8078 1.3769C12.1605 1.2445 11.5206 1.65641 11.3882 2.31106L10.123 8.32793L20.4135 10.4831C20.4135 10.4831 21.3697 10.0859 21.892 10.1374C22.7967 10.2183 23.4808 10.5346 23.9883 11.2702L34.6907 13.4768L35.9485 7.46732C36.1545 6.78325 35.7205 6.12861 35.0658 5.98885ZM32.6311 11.1304L29.402 10.4463L30.0861 7.21723L33.3152 7.9013L32.6311 11.1304Z" fill="#E6B775"/>
<path d="M18.1627 11.535L9.80675 9.82117L9.38013 11.9028L14.8748 13.0503L18.1627 11.535Z" fill="#E6B775"/>
</g>
<defs>
<clipPath id="clip0">
<rect width="36" height="36" fill="white"/>
</clipPath>
</defs>
</svg>
